STARTFONT 2.1
FONT -lucy-tewi-Medium-R-Normal--22-170-96-96-M-120-ISO10646-1
SIZE 21 75 75
FONTBOUNDINGBOX 12 26 0 -6
COMMENT "Generated by fontforge, http://fontforge.sourceforge.net"
COMMENT "(c) lucy <ne.tetewi@gmail.com>"
STARTPROPERTIES 32
FOUNDRY "lucy"
FAMILY_NAME "tewi"
WEIGHT_NAME "Medium"
SLANT "R"
SETWIDTH_NAME "Normal"
ADD_STYLE_NAME ""
PIXEL_SIZE 22
POINT_SIZE 170
RESOLUTION_X 96
RESOLUTION_Y 96
SPACING "M"
AVERAGE_WIDTH 130
CHARSET_REGISTRY "ISO10646"
CHARSET_ENCODING "1"
FONTNAME_REGISTRY ""
CHARSET_COLLECTIONS "ASCII ISOLatin1Encoding ISO8859-2 ISO8859-5 ISO8859-7 ISO8859-9 ISO8859-8 ISO8859-4 ISO10646-1"
FONT_NAME "tewimedium"
FACE_NAME "tewi medium"
COPYRIGHT "(c) lucy <ne.tetewi@gmail.com>"
FONT_VERSION "001.000"
FONT_ASCENT 18
FONT_DESCENT 4
UNDERLINE_POSITION 0
UNDERLINE_THICKNESS 2
X_HEIGHT 9
CAP_HEIGHT 13
RAW_ASCENT 799
RAW_DESCENT 200
NORM_SPACE 13
FIGURE_WIDTH 13
AVG_LOWERCASE_WIDTH 130
AVG_UPPERCASE_WIDTH 130
ENDPROPERTIES
CHARS 3419
STARTCHAR SPACE
ENCODING 32
SWIDTH 543 0
DWIDTH 12 0
BBX 0 0 0 0
BITMAP
ENDCHAR
STARTCHAR EXCLAMATION
ENCODING 33
SWIDTH 543 0
DWIDTH 12 0
BBX 2 14 4 0
BITMAP
C0
C0
C0
C0
C0
C0
C0
C0
C0
C0
00
00
C0
C0
ENDCHAR
STARTCHAR QUOTATION
ENCODING 34
SWIDTH 543 0
DWIDTH 12 0
BBX 6 6 2 10
BITMAP
CC
CC
CC
CC
CC
CC
ENDCHAR
STARTCHAR NUMBER
ENCODING 35
SWIDTH 543 0
DWIDTH 12 0
BBX 10 10 0 2
BITMAP
3300
3300
FFC0
FFC0
3300
3300
FFC0
FFC0
3300
3300
ENDCHAR
STARTCHAR DOLLAR
ENCODING 36
SWIDTH 543 0
DWIDTH 12 0
BBX 10 18 0 -2
BITMAP
0C00
0C00
3F00
3F00
CCC0
CCC0
CC00
CC00
3F00
3F00
0CC0
0CC0
CCC0
CCC0
3F00
3F00
0C00
0C00
ENDCHAR
STARTCHAR PERCENT
ENCODING 37
SWIDTH 543 0
DWIDTH 12 0
BBX 10 14 0 0
BITMAP
30C0
30C0
CCC0
CCC0
3300
3300
0C00
0C00
3300
3300
CCC0
CCC0
C300
C300
ENDCHAR
STARTCHAR AMPERSAND
ENCODING 38
SWIDTH 543 0
DWIDTH 12 0
BBX 10 14 0 0
BITMAP
3C00
3C00
C300
C300
CC00
CC00
3000
3000
CCC0
CCC0
C300
C300
3CC0
3CC0
ENDCHAR
STARTCHAR APOSTROPHE
ENCODING 39
SWIDTH 543 0
DWIDTH 12 0
BBX 2 6 4 10
BITMAP
C0
C0
C0
C0
C0
C0
ENDCHAR
STARTCHAR LEFT
ENCODING 40
SWIDTH 543 0
DWIDTH 12 0
BBX 6 18 2 -2
BITMAP
0C
0C
30
30
30
30
C0
C0
C0
C0
C0
C0
30
30
30
30
0C
0C
ENDCHAR
STARTCHAR RIGHT
ENCODING 41
SWIDTH 543 0
DWIDTH 12 0
BBX 6 18 2 -2
BITMAP
C0
C0
30
30
30
30
0C
0C
0C
0C
0C
0C
30
30
30
30
C0
C0
ENDCHAR
STARTCHAR ASTERISK
ENCODING 42
SWIDTH 543 0
DWIDTH 12 0
BBX 10 10 0 2
BITMAP
0C00
0C00
CCC0
CCC0
3F00
3F00
CCC0
CCC0
0C00
0C00
ENDCHAR
STARTCHAR PLUS
ENCODING 43
SWIDTH 543 0
DWIDTH 12 0
BBX 10 10 0 2
BITMAP
0C00
0C00
0C00
0C00
FFC0
FFC0
0C00
0C00
0C00
0C00
ENDCHAR
STARTCHAR COMMA
ENCODING 44
SWIDTH 543 0
DWIDTH 12 0
BBX 4 8 4 -4
BITMAP
F0
F0
F0
F0
30
30
C0
C0
ENDCHAR
STARTCHAR HYPHEN-MINUS
ENCODING 45
SWIDTH 543 0
DWIDTH 12 0
BBX 10 2 0 6
BITMAP
FFC0
FFC0
ENDCHAR
STARTCHAR FULL
ENCODING 46
SWIDTH 543 0
DWIDTH 12 0
BBX 4 4 4 0
BITMAP
F0
F0
F0
F0
ENDCHAR
STARTCHAR SOLIDUS
ENCODING 47
SWIDTH 543 0
DWIDTH 12 0
BBX 10 20 0 -4
BITMAP
00C0
00C0
00C0
00C0
0300
0300
0300
0300
0C00
0C00
0C00
0C00
3000
3000
3000
3000
C000
C000
C000
C000
ENDCHAR
STARTCHAR DIGIT
ENCODING 48
SWIDTH 543 0
DWIDTH 12 0
BBX 10 14 0 0
BITMAP
3F00
3F00
C0C0
C0C0
C3C0
C3C0
CCC0
CCC0
F0C0
F0C0
C0C0
C0C0
3F00
3F00
ENDCHAR
STARTCHAR DIGIT
ENCODING 49
SWIDTH 543 0
DWIDTH 12 0
BBX 6 14 2 0
BITMAP
30
30
F0
F0
30
30
30
30
30
30
30
30
FC
FC
ENDCHAR
STARTCHAR DIGIT
ENCODING 50
SWIDTH 543 0
DWIDTH 12 0
BBX 10 14 0 0
BITMAP
3F00
3F00
C0C0
C0C0
00C0
00C0
0300
0300
0C00
0C00
3000
3000
FFC0
FFC0
ENDCHAR
STARTCHAR DIGIT
ENCODING 51
SWIDTH 543 0
DWIDTH 12 0
BBX 10 14 0 0
BITMAP
3F00
3F00
C0C0
C0C0
00C0
00C0
0F00
0F00
00C0
00C0
C0C0
C0C0
3F00
3F00
ENDCHAR
STARTCHAR DIGIT
ENCODING 52
SWIDTH 543 0
DWIDTH 12 0
BBX 10 14 0 0
BITMAP
0300
0300
0F00
0F00
3300
3300
C300
C300
FFC0
FFC0
0300
0300
0FC0
0FC0
ENDCHAR
STARTCHAR DIGIT
ENCODING 53
SWIDTH 543 0
DWIDTH 12 0
BBX 10 14 0 0
BITMAP
FFC0
FFC0
C000
C000
FF00
FF00
00C0
00C0
00C0
00C0
C0C0
C0C0
3F00
3F00
ENDCHAR
STARTCHAR DIGIT
ENCODING 54
SWIDTH 543 0
DWIDTH 12 0
BBX 10 14 0 0
BITMAP
3F00
3F00
C000
C000
FF00
FF00
C0C0
C0C0
C0C0
C0C0
C0C0
C0C0
3F00
3F00
ENDCHAR
STARTCHAR DIGIT
ENCODING 55
SWIDTH 543 0
DWIDTH 12 0
BBX 10 14 0 0
BITMAP
FFC0
FFC0
00C0
00C0
00C0
00C0
0300
0300
0C00
0C00
0C00
0C00
0C00
0C00
ENDCHAR
STARTCHAR DIGIT
ENCODING 56
SWIDTH 543 0
DWIDTH 12 0
BBX 10 14 0 0
BITMAP
3F00
3F00
C0C0
C0C0
C0C0
C0C0
3F00
3F00
C0C0
C0C0
C0C0
C0C0
3F00
3F00
ENDCHAR
STARTCHAR DIGIT
ENCODING 57
SWIDTH 543 0
DWIDTH 12 0
BBX 10 14 0 0
BITMAP
3F00
3F00
C0C0
C0C0
C0C0
C0C0
C0C0
C0C0
3FC0
3FC0
00C0
00C0
3F00
3F00
ENDCHAR
STARTCHAR COLON
ENCODING 58
SWIDTH 543 0
DWIDTH 12 0
BBX 4 12 4 0
BITMAP
F0
F0
F0
F0
00
00
00
00
F0
F0
F0
F0
ENDCHAR
STARTCHAR SEMICOLON
ENCODING 59
SWIDTH 543 0
DWIDTH 12 0
BBX 4 16 4 -4
BITMAP
F0
F0
F0
F0
00
00
00
00
F0
F0
F0
F0
30
30
C0
C0
ENDCHAR
STARTCHAR LESS-THAN
ENCODING 60
SWIDTH 543 0
DWIDTH 12 0
BBX 8 14 2 0
BITMAP
03
03
0C
0C
30
30
C0
C0
30
30
0C
0C
03
03
ENDCHAR
STARTCHAR EQUALS
ENCODING 61
SWIDTH 543 0
DWIDTH 12 0
BBX 10 6 0 4
BITMAP
FFC0
FFC0
0000
0000
FFC0
FFC0
ENDCHAR
STARTCHAR GREATER-THAN
ENCODING 62
SWIDTH 543 0
DWIDTH 12 0
BBX 8 14 2 0
BITMAP
C0
C0
30
30
0C
0C
03
03
0C
0C
30
30
C0
C0
ENDCHAR
STARTCHAR QUESTION
ENCODING 63
SWIDTH 543 0
DWIDTH 12 0
BBX 10 14 0 0
BITMAP
3F00
3F00
C0C0
C0C0
00C0
00C0
0300
0300
0C00
0C00
0000
0000
0C00
0C00
ENDCHAR
STARTCHAR COMMERCIAL
ENCODING 64
SWIDTH 543 0
DWIDTH 12 0
BBX 10 14 0 0
BITMAP
3F00
3F00
C0C0
C0C0
CFC0
CFC0
CCC0
CCC0
CFC0
CFC0
C000
C000
3FC0
3FC0
ENDCHAR
STARTCHAR LATIN
ENCODING 65
SWIDTH 543 0
DWIDTH 12 0
BBX 10 14 0 0
BITMAP
3F00
3F00
C0C0
C0C0
C0C0
C0C0
FFC0
FFC0
C0C0
C0C0
C0C0
C0C0
C0C0
C0C0
ENDCHAR
STARTCHAR LATIN
ENCODING 66
SWIDTH 543 0
DWIDTH 12 0
BBX 10 14 0 0
BITMAP
FF00
FF00
C0C0
C0C0
C0C0
C0C0
FF00
FF00
C0C0
C0C0
C0C0
C0C0
FF00
FF00
ENDCHAR
STARTCHAR LATIN
ENCODING 67
SWIDTH 543 0
DWIDTH 12 0
BBX 10 14 0 0
BITMAP
3F00
3F00
C0C0
C0C0
C000
C000
C000
C000
C000
C000
C0C0
C0C0
3F00
3F00
ENDCHAR
STARTCHAR LATIN
ENCODING 68
SWIDTH 543 0
DWIDTH 12 0
BBX 10 14 0 0
BITMAP
FF00
FF00
C0C0
C0C0
C0C0
C0C0
C0C0
C0C0
C0C0
C0C0
C0C0
C0C0
FF00
FF00
ENDCHAR
STARTCHAR LATIN
ENCODING 69
SWIDTH 543 0
DWIDTH 12 0
BBX 10 14 0 0
BITMAP
FFC0
FFC0
C000
C000
C000
C000
FF00
FF00
C000
C000
C000
C000
FFC0
FFC0
ENDCHAR
STARTCHAR LATIN
ENCODING 70
SWIDTH 543 0
DWIDTH 12 0
BBX 10 14 0 0
BITMAP
FFC0
FFC0
C000
C000
C000
C000
FF00
FF00
C000
C000
C000
C000
C000
C000
ENDCHAR
STARTCHAR LATIN
ENCODING 71
SWIDTH 543 0
DWIDTH 12 0
BBX 10 14 0 0
BITMAP
3F00
3F00
C0C0
C0C0
C000
C000
C3C0
C3C0
C0C0
C0C0
C0C0
C0C0
3F00
3F00
ENDCHAR
STARTCHAR LATIN
ENCODING 72
SWIDTH 543 0
DWIDTH 12 0
BBX 10 14 0 0
BITMAP
C0C0
C0C0
C0C0
C0C0
C0C0
C0C0
FFC0
FFC0
C0C0
C0C0
C0C0
C0C0
C0C0
C0C0
ENDCHAR
STARTCHAR LATIN
ENCODING 73
SWIDTH 543 0
DWIDTH 12 0
BBX 6 14 2 0
BITMAP
FC
FC
30
30
30
30
30
30
30
30
30
30
FC
FC
ENDCHAR
STARTCHAR LATIN
ENCODING 74
SWIDTH 543 0
DWIDTH 12 0
BBX 10 14 0 0
BITMAP
00C0
00C0
00C0
00C0
00C0
00C0
00C0
00C0
C0C0
C0C0
C0C0
C0C0
3F00
3F00
ENDCHAR
STARTCHAR LATIN
ENCODING 75
SWIDTH 543 0
DWIDTH 12 0
BBX 10 14 0 0
BITMAP
C0C0
C0C0
C300
C300
CC00
CC00
F000
F000
CC00
CC00
C300
C300
C0C0
C0C0
ENDCHAR
STARTCHAR LATIN
ENCODING 76
SWIDTH 543 0
DWIDTH 12 0
BBX 10 14 0 0
BITMAP
C000
C000
C000
C000
C000
C000
C000
C000
C000
C000
C000
C000
FFC0
FFC0
ENDCHAR
STARTCHAR LATIN
ENCODING 77
SWIDTH 543 0
DWIDTH 12 0
BBX 10 14 0 0
BITMAP
C0C0
C0C0
F3C0
F3C0
CCC0
CCC0
C0C0
C0C0
C0C0
C0C0
C0C0
C0C0
C0C0
C0C0
ENDCHAR
STARTCHAR LATIN
ENCODING 78
SWIDTH 543 0
DWIDTH 12 0
BBX 10 14 0 0
BITMAP
F0C0
F0C0
F0C0
F0C0
CCC0
CCC0
CCC0
CCC0
CCC0
CCC0
C3C0
C3C0
C3C0
C3C0
ENDCHAR
STARTCHAR LATIN
ENCODING 79
SWIDTH 543 0
DWIDTH 12 0
BBX 10 14 0 0
BITMAP
3F00
3F00
C0C0
C0C0
C0C0
C0C0
C0C0
C0C0
C0C0
C0C0
C0C0
C0C0
3F00
3F00
ENDCHAR
STARTCHAR LATIN
ENCODING 80
SWIDTH 543 0
DWIDTH 12 0
BBX 10 14 0 0
BITMAP
FF00
FF00
C0C0
C0C0
C0C0
C0C0
FF00
FF00
C000
C000
C000
C000
C000
C000
ENDCHAR
STARTCHAR LATIN
ENCODING 81
SWIDTH 543 0
DWIDTH 12 0
BBX 10 16 0 -2
BITMAP
3F00
3F00
C0C0
C0C0
C0C0
C0C0
C0C0
C0C0
C0C0
C0C0
C0C0
C0C0
3F00
3F00
00C0
00C0
ENDCHAR
STARTCHAR LATIN
ENCODING 82
SWIDTH 543 0
DWIDTH 12 0
BBX 10 14 0 0
BITMAP
FF00
FF00
C0C0
C0C0
C0C0
C0C0
FF00
FF00
C0C0
C0C0
C0C0
C0C0
C0C0
C0C0
ENDCHAR
STARTCHAR LATIN
ENCODING 83
SWIDTH 543 0
DWIDTH 12 0
BBX 10 14 0 0
BITMAP
3F00
3F00
C0C0
C0C0
C000
C000
3F00
3F00
00C0
00C0
C0C0
C0C0
3F00
3F00
ENDCHAR
STARTCHAR LATIN
ENCODING 84
SWIDTH 543 0
DWIDTH 12 0
BBX 10 14 0 0
BITMAP
FFC0
FFC0
0C00
0C00
0C00
0C00
0C00
0C00
0C00
0C00
0C00
0C00
0C00
0C00
ENDCHAR
STARTCHAR LATIN
ENCODING 85
SWIDTH 543 0
DWIDTH 12 0
BBX 10 14 0 0
BITMAP
C0C0
C0C0
C0C0
C0C0
C0C0
C0C0
C0C0
C0C0
C0C0
C0C0
C0C0
C0C0
3F00
3F00
ENDCHAR
STARTCHAR LATIN
ENCODING 86
SWIDTH 543 0
DWIDTH 12 0
BBX 10 14 0 0
BITMAP
C0C0
C0C0
C0C0
C0C0
C0C0
C0C0
3300
3300
3300
3300
0C00
0C00
0C00
0C00
ENDCHAR
STARTCHAR LATIN
ENCODING 87
SWIDTH 543 0
DWIDTH 12 0
BBX 10 14 0 0
BITMAP
C0C0
C0C0
C0C0
C0C0
C0C0
C0C0
CCC0
CCC0
CCC0
CCC0
3300
3300
3300
3300
ENDCHAR
STARTCHAR LATIN
ENCODING 88
SWIDTH 543 0
DWIDTH 12 0
BBX 10 14 0 0
BITMAP
C0C0
C0C0
C0C0
C0C0
3300
3300
0C00
0C00
3300
3300
C0C0
C0C0
C0C0
C0C0
ENDCHAR
STARTCHAR LATIN
ENCODING 89
SWIDTH 543 0
DWIDTH 12 0
BBX 10 14 0 0
BITMAP
C0C0
C0C0
C0C0
C0C0
C0C0
C0C0
3300
3300
0C00
0C00
0C00
0C00
0C00
0C00
ENDCHAR
STARTCHAR LATIN
ENCODING 90
SWIDTH 543 0
DWIDTH 12 0
BBX 10 14 0 0
BITMAP
FFC0
FFC0
00C0
00C0
0300
0300
0C00
0C00
3000
3000
C000
C000
FFC0
FFC0
ENDCHAR
STARTCHAR LEFT
ENCODING 91
SWIDTH 543 0
DWIDTH 12 0
BBX 6 18 2 -2
BITMAP
FC
FC
C0
C0
C0
C0
C0
C0
C0
C0
C0
C0
C0
C0
C0
C0
FC
FC
ENDCHAR
STARTCHAR REVERSE
ENCODING 92
SWIDTH 543 0
DWIDTH 12 0
BBX 10 20 0 -4
BITMAP
C000
C000
C000
C000
3000
3000
3000
3000
0C00
0C00
0C00
0C00
0300
0300
0300
0300
00C0
00C0
00C0
00C0
ENDCHAR
STARTCHAR RIGHT
ENCODING 93
SWIDTH 543 0
DWIDTH 12 0
BBX 6 18 2 -2
BITMAP
FC
FC
0C
0C
0C
0C
0C
0C
0C
0C
0C
0C
0C
0C
0C
0C
FC
FC
ENDCHAR
STARTCHAR CIRCUMFLEX
ENCODING 94
SWIDTH 543 0
DWIDTH 12 0
BBX 10 6 0 10
BITMAP
0C00
0C00
3300
3300
C0C0
C0C0
ENDCHAR
STARTCHAR LOW
ENCODING 95
SWIDTH 543 0
DWIDTH 12 0
BBX 12 2 0 0
BITMAP
FFF0
FFF0
ENDCHAR
STARTCHAR GRAVE
ENCODING 96
SWIDTH 543 0
DWIDTH 12 0
BBX 6 6 2 10
BITMAP
C0
C0
30
30
0C
0C
ENDCHAR
STARTCHAR LATIN
ENCODING 97
SWIDTH 543 0
DWIDTH 12 0
BBX 10 10 0 0
BITMAP
3FC0
3FC0
C0C0
C0C0
C0C0
C0C0
C3C0
C3C0
3CC0
3CC0
ENDCHAR
STARTCHAR LATIN
ENCODING 98
SWIDTH 543 0
DWIDTH 12 0
BBX 10 14 0 0
BITMAP
C000
C000
C000
C000
FF00
FF00
C0C0
C0C0
C0C0
C0C0
C0C0
C0C0
FF00
FF00
ENDCHAR
STARTCHAR LATIN
ENCODING 99
SWIDTH 543 0
DWIDTH 12 0
BBX 10 10 0 0
BITMAP
3F00
3F00
C0C0
C0C0
C000
C000
C000
C000
3FC0
3FC0
ENDCHAR
STARTCHAR LATIN
ENCODING 100
SWIDTH 543 0
DWIDTH 12 0
BBX 10 14 0 0
BITMAP
00C0
00C0
00C0
00C0
3FC0
3FC0
C0C0
C0C0
C0C0
C0C0
C0C0
C0C0
3FC0
3FC0
ENDCHAR
STARTCHAR LATIN
ENCODING 101
SWIDTH 543 0
DWIDTH 12 0
BBX 10 10 0 0
BITMAP
3F00
3F00
C0C0
C0C0
FFC0
FFC0
C000
C000
3FC0
3FC0
ENDCHAR
STARTCHAR LATIN
ENCODING 102
SWIDTH 543 0
DWIDTH 12 0
BBX 8 14 0 0
BITMAP
0F
0F
30
30
30
30
FC
FC
30
30
30
30
30
30
ENDCHAR
STARTCHAR LATIN
ENCODING 103
SWIDTH 543 0
DWIDTH 12 0
BBX 10 14 0 -4
BITMAP
3FC0
3FC0
C0C0
C0C0
C0C0
C0C0
C0C0
C0C0
3FC0
3FC0
00C0
00C0
3F00
3F00
ENDCHAR
STARTCHAR LATIN
ENCODING 104
SWIDTH 543 0
DWIDTH 12 0
BBX 10 14 0 0
BITMAP
C000
C000
C000
C000
FF00
FF00
C0C0
C0C0
C0C0
C0C0
C0C0
C0C0
C0C0
C0C0
ENDCHAR
STARTCHAR LATIN
ENCODING 105
SWIDTH 543 0
DWIDTH 12 0
BBX 6 14 2 0
BITMAP
30
30
00
00
F0
F0
30
30
30
30
30
30
3C
3C
ENDCHAR
STARTCHAR LATIN
ENCODING 106
SWIDTH 543 0
DWIDTH 12 0
BBX 6 18 0 -4
BITMAP
0C
0C
00
00
3C
3C
0C
0C
0C
0C
0C
0C
0C
0C
0C
0C
F0
F0
ENDCHAR
STARTCHAR LATIN
ENCODING 107
SWIDTH 543 0
DWIDTH 12 0
BBX 10 14 0 0
BITMAP
C000
C000
C000
C000
C300
C300
CC00
CC00
FC00
FC00
C300
C300
C0C0
C0C0
ENDCHAR
STARTCHAR LATIN
ENCODING 108
SWIDTH 543 0
DWIDTH 12 0
BBX 6 14 2 0
BITMAP
F0
F0
30
30
30
30
30
30
30
30
30
30
3C
3C
ENDCHAR
STARTCHAR LATIN
ENCODING 109
SWIDTH 543 0
DWIDTH 12 0
BBX 10 10 0 0
BITMAP
FF00
FF00
CCC0
CCC0
CCC0
CCC0
CCC0
CCC0
CCC0
CCC0
ENDCHAR
STARTCHAR LATIN
ENCODING 110
SWIDTH 543 0
DWIDTH 12 0
BBX 10 10 0 0
BITMAP
CF00
CF00
F0C0
F0C0
C0C0
C0C0
C0C0
C0C0
C0C0
C0C0
ENDCHAR
STARTCHAR LATIN
ENCODING 111
SWIDTH 543 0
DWIDTH 12 0
BBX 10 10 0 0
BITMAP
3F00
3F00
C0C0
C0C0
C0C0
C0C0
C0C0
C0C0
3F00
3F00
ENDCHAR
STARTCHAR LATIN
ENCODING 112
SWIDTH 543 0
DWIDTH 12 0
BBX 10 14 0 -4
BITMAP
FF00
FF00
C0C0
C0C0
C0C0
C0C0
C0C0
C0C0
FF00
FF00
C000
C000
C000
C000
ENDCHAR
STARTCHAR LATIN
ENCODING 113
SWIDTH 543 0
DWIDTH 12 0
BBX 10 14 0 -4
BITMAP
3FC0
3FC0
C0C0
C0C0
C0C0
C0C0
C0C0
C0C0
3FC0
3FC0
00C0
00C0
00C0
00C0
ENDCHAR
STARTCHAR LATIN
ENCODING 114
SWIDTH 543 0
DWIDTH 12 0
BBX 10 10 0 0
BITMAP
CF00
CF00
F0C0
F0C0
C000
C000
C000
C000
C000
C000
ENDCHAR
STARTCHAR LATIN
ENCODING 115
SWIDTH 543 0
DWIDTH 12 0
BBX 10 10 0 0
BITMAP
3FC0
3FC0
C000
C000
3F00
3F00
00C0
00C0
FF00
FF00
ENDCHAR
STARTCHAR LATIN
ENCODING 116
SWIDTH 543 0
DWIDTH 12 0
BBX 8 14 2 0
BITMAP
30
30
30
30
FF
FF
30
30
30
30
30
30
0F
0F
ENDCHAR
STARTCHAR LATIN
ENCODING 117
SWIDTH 543 0
DWIDTH 12 0
BBX 10 10 0 0
BITMAP
C0C0
C0C0
C0C0
C0C0
C0C0
C0C0
C3C0
C3C0
3CC0
3CC0
ENDCHAR
STARTCHAR LATIN
ENCODING 118
SWIDTH 543 0
DWIDTH 12 0
BBX 10 10 0 0
BITMAP
C0C0
C0C0
C0C0
C0C0
3300
3300
3300
3300
0C00
0C00
ENDCHAR
STARTCHAR LATIN
ENCODING 119
SWIDTH 543 0
DWIDTH 12 0
BBX 10 10 0 0
BITMAP
C0C0
C0C0
CCC0
CCC0
CCC0
CCC0
CCC0
CCC0
3300
3300
ENDCHAR
STARTCHAR LATIN
ENCODING 120
SWIDTH 543 0
DWIDTH 12 0
BBX 10 10 0 0
BITMAP
C0C0
C0C0
3300
3300
0C00
0C00
3300
3300
C0C0
C0C0
ENDCHAR
STARTCHAR LATIN
ENCODING 121
SWIDTH 543 0
DWIDTH 12 0
BBX 10 14 0 -4
BITMAP
C0C0
C0C0
C0C0
C0C0
C0C0
C0C0
C0C0
C0C0
3FC0
3FC0
00C0
00C0
3F00
3F00
ENDCHAR
STARTCHAR LATIN
ENCODING 122
SWIDTH 543 0
DWIDTH 12 0
BBX 10 10 0 0
BITMAP
FFC0
FFC0
0300
0300
0C00
0C00
3000
3000
FFC0
FFC0
ENDCHAR
STARTCHAR LEFT
ENCODING 123
SWIDTH 543 0
DWIDTH 12 0
BBX 10 18 0 -2
BITMAP
03C0
03C0
0C00
0C00
0C00
0C00
0C00
0C00
F000
F000
0C00
0C00
0C00
0C00
0C00
0C00
03C0
03C0
ENDCHAR
STARTCHAR VERTICAL
ENCODING 124
SWIDTH 543 0
DWIDTH 12 0
BBX 2 20 4 -4
BITMAP
C0
C0
C0
C0
C0
C0
C0
C0
C0
C0
C0
C0
C0
C0
C0
C0
C0
C0
C0
C0
ENDCHAR
STARTCHAR RIGHT
ENCODING 125
SWIDTH 543 0
DWIDTH 12 0
BBX 10 18 0 -2
BITMAP
F000
F000
0C00
0C00
0C00
0C00
0C00
0C00
03C0
03C0
0C00
0C00
0C00
0C00
0C00
0C00
F000
F000
ENDCHAR
STARTCHAR TILDE
ENCODING 126
SWIDTH 543 0
DWIDTH 12 0
BBX 10 6 2 4
BITMAP
30C0
30C0
CCC0
CCC0
C300
C300
ENDCHAR
STARTCHAR INVERTED
ENCODING 161
SWIDTH 543 0
DWIDTH 12 0
BBX 2 14 4 0
BITMAP
C0
C0
00
00
C0
C0
C0
C0
C0
C0
C0
C0
C0
C0
ENDCHAR
STARTCHAR CENT
ENCODING 162
SWIDTH 543 0
DWIDTH 12 0
BBX 10 14 0 -2
BITMAP
0C00
0C00
3F00
3F00
CCC0
CCC0
CC00
CC00
CCC0
CCC0
3F00
3F00
0C00
0C00
ENDCHAR
STARTCHAR POUND
ENCODING 163
SWIDTH 543 0
DWIDTH 12 0
BBX 10 16 0 0
BITMAP
0F00
0F00
30C0
30C0
3000
3000
FC00
FC00
3000
3000
3000
3000
30C0
30C0
CF00
CF00
ENDCHAR
STARTCHAR CURRENCY
ENCODING 164
SWIDTH 543 0
DWIDTH 12 0
BBX 10 10 0 2
BITMAP
C0C0
C0C0
3F00
3F00
3300
3300
3F00
3F00
C0C0
C0C0
ENDCHAR
STARTCHAR YEN
ENCODING 165
SWIDTH 543 0
DWIDTH 12 0
BBX 10 16 0 -2
BITMAP
C0C0
C0C0
C0C0
C0C0
3300
3300
FFC0
FFC0
0C00
0C00
FFC0
FFC0
0C00
0C00
0C00
0C00
ENDCHAR
STARTCHAR BROKEN
ENCODING 166
SWIDTH 543 0
DWIDTH 12 0
BBX 2 20 4 -4
BITMAP
C0
C0
C0
C0
C0
C0
C0
C0
00
00
00
00
C0
C0
C0
C0
C0
C0
C0
C0
ENDCHAR
STARTCHAR SECTION
ENCODING 167
SWIDTH 543 0
DWIDTH 12 0
BBX 10 20 0 -4
BITMAP
3F00
3F00
C0C0
C0C0
30C0
30C0
CC00
CC00
C300
C300
30C0
30C0
0CC0
0CC0
C300
C300
C0C0
C0C0
3F00
3F00
ENDCHAR
STARTCHAR DIAERESIS
ENCODING 168
SWIDTH 543 0
DWIDTH 12 0
BBX 6 2 2 12
BITMAP
CC
CC
ENDCHAR
STARTCHAR COPYRIGHT
ENCODING 169
SWIDTH 543 0
DWIDTH 12 0
BBX 10 16 0 -2
BITMAP
FF00
FF00
00C0
00C0
3CC0
3CC0
C0C0
C0C0
C0C0
C0C0
3CC0
3CC0
00C0
00C0
FF00
FF00
ENDCHAR
STARTCHAR FEMININE
ENCODING 170
SWIDTH 543 0
DWIDTH 12 0
BBX 8 12 2 2
BITMAP
3F
3F
C3
C3
CF
CF
33
33
00
00
FF
FF
ENDCHAR
STARTCHAR LEFT-POINTING
ENCODING 171
SWIDTH 543 0
DWIDTH 12 0
BBX 10 8 0 2
BITMAP
30C0
30C0
C300
C300
C300
C300
30C0
30C0
ENDCHAR
STARTCHAR NOT
ENCODING 172
SWIDTH 543 0
DWIDTH 12 0
BBX 10 6 0 2
BITMAP
FFC0
FFC0
00C0
00C0
00C0
00C0
ENDCHAR
STARTCHAR REGISTERED
ENCODING 174
SWIDTH 543 0
DWIDTH 12 0
BBX 10 16 0 -2
BITMAP
FF00
FF00
00C0
00C0
F0C0
F0C0
CCC0
CCC0
F0C0
F0C0
CCC0
CCC0
00C0
00C0
FF00
FF00
ENDCHAR
STARTCHAR MACRON
ENCODING 175
SWIDTH 543 0
DWIDTH 12 0
BBX 8 2 2 14
BITMAP
FF
FF
ENDCHAR
STARTCHAR DEGREE
ENCODING 176
SWIDTH 543 0
DWIDTH 12 0
BBX 8 8 2 10
BITMAP
3C
3C
C3
C3
C3
C3
3C
3C
ENDCHAR
STARTCHAR PLUS-MINUS
ENCODING 177
SWIDTH 543 0
DWIDTH 12 0
BBX 10 14 0 0
BITMAP
0C00
0C00
0C00
0C00
FFC0
FFC0
0C00
0C00
0C00
0C00
0000
0000
FFC0
FFC0
ENDCHAR
STARTCHAR SUPERSCRIPT
ENCODING 178
SWIDTH 543 0
DWIDTH 12 0
BBX 6 10 2 6
BITMAP
F0
F0
0C
0C
30
30
C0
C0
FC
FC
ENDCHAR
STARTCHAR SUPERSCRIPT
ENCODING 179
SWIDTH 543 0
DWIDTH 12 0
BBX 6 10 2 6
BITMAP
F0
F0
0C
0C
30
30
0C
0C
F0
F0
ENDCHAR
STARTCHAR ACUTE
ENCODING 180
SWIDTH 543 0
DWIDTH 12 0
BBX 6 6 2 10
BITMAP
0C
0C
30
30
C0
C0
ENDCHAR
STARTCHAR MICRO
ENCODING 181
SWIDTH 543 0
DWIDTH 12 0
BBX 10 14 0 -4
BITMAP
C300
C300
C300
C300
C300
C300
C300
C300
FCC0
FCC0
C000
C000
C000
C000
ENDCHAR
STARTCHAR PILCROW
ENCODING 182
SWIDTH 543 0
DWIDTH 12 0
BBX 12 18 0 -2
BITMAP
3FF0
3FF0
FCC0
FCC0
FCC0
FCC0
FCC0
FCC0
3FC0
3FC0
0CC0
0CC0
0CC0
0CC0
0CC0
0CC0
0CF0
0CF0
ENDCHAR
STARTCHAR MIDDLE
ENCODING 183
SWIDTH 543 0
DWIDTH 12 0
BBX 4 4 4 4
BITMAP
F0
F0
F0
F0
ENDCHAR
STARTCHAR CEDILLA
ENCODING 184
SWIDTH 543 0
DWIDTH 12 0
BBX 4 6 4 -6
BITMAP
C0
C0
30
30
C0
C0
ENDCHAR
STARTCHAR SUPERSCRIPT
ENCODING 185
SWIDTH 543 0
DWIDTH 12 0
BBX 6 10 2 6
BITMAP
F0
F0
30
30
30
30
30
30
FC
FC
ENDCHAR
STARTCHAR MASCULINE
ENCODING 186
SWIDTH 543 0
DWIDTH 12 0
BBX 8 12 2 2
BITMAP
3C
3C
C3
C3
C3
C3
3C
3C
00
00
FF
FF
ENDCHAR
STARTCHAR RIGHT-POINTING
ENCODING 187
SWIDTH 543 0
DWIDTH 12 0
BBX 10 8 0 2
BITMAP
C300
C300
30C0
30C0
30C0
30C0
C300
C300
ENDCHAR
STARTCHAR VULGAR
ENCODING 188
SWIDTH 543 0
DWIDTH 12 0
BBX 10 14 0 0
BITMAP
F000
F000
30C0
30C0
3300
3300
0CC0
0CC0
33C0
33C0
CFC0
CFC0
00C0
00C0
ENDCHAR
STARTCHAR VULGAR
ENCODING 189
SWIDTH 543 0
DWIDTH 12 0
BBX 10 14 0 0
BITMAP
F000
F000
30C0
30C0
3300
3300
0F00
0F00
30C0
30C0
C300
C300
0FC0
0FC0
ENDCHAR
STARTCHAR VULGAR
ENCODING 190
SWIDTH 543 0
DWIDTH 12 0
BBX 10 16 0 0
BITMAP
C000
C000
3000
3000
F0C0
F0C0
3300
3300
CCC0
CCC0
33C0
33C0
CFC0
CFC0
00C0
00C0
ENDCHAR
STARTCHAR INVERTED
ENCODING 191
SWIDTH 543 0
DWIDTH 12 0
BBX 10 14 0 0
BITMAP
0C00
0C00
0000
0000
0C00
0C00
3000
3000
C000
C000
C0C0
C0C0
3F00
3F00
ENDCHAR
STARTCHAR LATIN
ENCODING 192
SWIDTH 543 0
DWIDTH 12 0
BBX 10 18 0 0
BITMAP
3000
3000
0C00
0C00
3F00
3F00
C0C0
C0C0
C0C0
C0C0
FFC0
FFC0
C0C0
C0C0
C0C0
C0C0
C0C0
C0C0
ENDCHAR
STARTCHAR LATIN
ENCODING 193
SWIDTH 543 0
DWIDTH 12 0
BBX 10 18 0 0
BITMAP
0300
0300
0C00
0C00
3F00
3F00
C0C0
C0C0
C0C0
C0C0
FFC0
FFC0
C0C0
C0C0
C0C0
C0C0
C0C0
C0C0
ENDCHAR
STARTCHAR LATIN
ENCODING 194
SWIDTH 543 0
DWIDTH 12 0
BBX 10 18 0 0
BITMAP
0C00
0C00
3300
3300
3F00
3F00
C0C0
C0C0
C0C0
C0C0
FFC0
FFC0
C0C0
C0C0
C0C0
C0C0
C0C0
C0C0
ENDCHAR
STARTCHAR LATIN
ENCODING 195
SWIDTH 543 0
DWIDTH 12 0
BBX 10 18 0 0
BITMAP
3CC0
3CC0
CF00
CF00
3F00
3F00
C0C0
C0C0
C0C0
C0C0
FFC0
FFC0
C0C0
C0C0
C0C0
C0C0
C0C0
C0C0
ENDCHAR
STARTCHAR LATIN
ENCODING 196
SWIDTH 543 0
DWIDTH 12 0
BBX 10 18 0 0
BITMAP
3300
3300
0000
0000
3F00
3F00
C0C0
C0C0
C0C0
C0C0
FFC0
FFC0
C0C0
C0C0
C0C0
C0C0
C0C0
C0C0
ENDCHAR
STARTCHAR LATIN
ENCODING 197
SWIDTH 543 0
DWIDTH 12 0
BBX 10 18 0 0
BITMAP
0C00
0C00
3300
3300
3F00
3F00
C0C0
C0C0
C0C0
C0C0
FFC0
FFC0
C0C0
C0C0
C0C0
C0C0
C0C0
C0C0
ENDCHAR
STARTCHAR LATIN
ENCODING 198
SWIDTH 543 0
DWIDTH 12 0
BBX 10 14 0 0
BITMAP
3FC0
3FC0
CC00
CC00
CC00
CC00
FF00
FF00
CC00
CC00
CC00
CC00
CFC0
CFC0
ENDCHAR
STARTCHAR LATIN
ENCODING 199
SWIDTH 543 0
DWIDTH 12 0
BBX 10 18 0 -4
BITMAP
3F00
3F00
C0C0
C0C0
C000
C000
C000
C000
C000
C000
C0C0
C0C0
3F00
3F00
0C00
0C00
3000
3000
ENDCHAR
STARTCHAR LATIN
ENCODING 200
SWIDTH 543 0
DWIDTH 12 0
BBX 10 18 0 0
BITMAP
3000
3000
0C00
0C00
FFC0
FFC0
C000
C000
C000
C000
FF00
FF00
C000
C000
C000
C000
FFC0
FFC0
ENDCHAR
STARTCHAR LATIN
ENCODING 201
SWIDTH 543 0
DWIDTH 12 0
BBX 10 18 0 0
BITMAP
0300
0300
0C00
0C00
FFC0
FFC0
C000
C000
C000
C000
FF00
FF00
C000
C000
C000
C000
FFC0
FFC0
ENDCHAR
STARTCHAR LATIN
ENCODING 202
SWIDTH 543 0
DWIDTH 12 0
BBX 10 18 0 0
BITMAP
0C00
0C00
3300
3300
FFC0
FFC0
C000
C000
C000
C000
FF00
FF00
C000
C000
C000
C000
FFC0
FFC0
ENDCHAR
STARTCHAR LATIN
ENCODING 203
SWIDTH 543 0
DWIDTH 12 0
BBX 10 18 0 0
BITMAP
3300
3300
0000
0000
FFC0
FFC0
C000
C000
C000
C000
FF00
FF00
C000
C000
C000
C000
FFC0
FFC0
ENDCHAR
STARTCHAR LATIN
ENCODING 204
SWIDTH 543 0
DWIDTH 12 0
BBX 6 18 2 0
BITMAP
30
30
0C
0C
00
00
FC
FC
30
30
30
30
30
30
30
30
FC
FC
ENDCHAR
STARTCHAR LATIN
ENCODING 205
SWIDTH 543 0
DWIDTH 12 0
BBX 6 18 2 0
BITMAP
30
30
C0
C0
00
00
FC
FC
30
30
30
30
30
30
30
30
FC
FC
ENDCHAR
STARTCHAR LATIN
ENCODING 206
SWIDTH 543 0
DWIDTH 12 0
BBX 6 18 2 0
BITMAP
30
30
CC
CC
00
00
FC
FC
30
30
30
30
30
30
30
30
FC
FC
ENDCHAR
STARTCHAR LATIN
ENCODING 207
SWIDTH 543 0
DWIDTH 12 0
BBX 6 18 2 0
BITMAP
CC
CC
00
00
FC
FC
30
30
30
30
30
30
30
30
30
30
FC
FC
ENDCHAR
STARTCHAR LATIN
ENCODING 208
SWIDTH 543 0
DWIDTH 12 0
BBX 10 14 0 0
BITMAP
3F00
3F00
30C0
30C0
30C0
30C0
FCC0
FCC0
30C0
30C0
30C0
30C0
3F00
3F00
ENDCHAR
STARTCHAR LATIN
ENCODING 209
SWIDTH 543 0
DWIDTH 12 0
BBX 10 18 0 0
BITMAP
3CC0
3CC0
CF00
CF00
C0C0
C0C0
F0C0
F0C0
CCC0
CCC0
C3C0
C3C0
C0C0
C0C0
C0C0
C0C0
C0C0
C0C0
ENDCHAR
STARTCHAR LATIN
ENCODING 210
SWIDTH 543 0
DWIDTH 12 0
BBX 10 18 0 0
BITMAP
3000
3000
0C00
0C00
3F00
3F00
C0C0
C0C0
C0C0
C0C0
C0C0
C0C0
C0C0
C0C0
C0C0
C0C0
3F00
3F00
ENDCHAR
STARTCHAR LATIN
ENCODING 211
SWIDTH 543 0
DWIDTH 12 0
BBX 10 18 0 0
BITMAP
0300
0300
0C00
0C00
3F00
3F00
C0C0
C0C0
C0C0
C0C0
C0C0
C0C0
C0C0
C0C0
C0C0
C0C0
3F00
3F00
ENDCHAR
STARTCHAR LATIN
ENCODING 212
SWIDTH 543 0
DWIDTH 12 0
BBX 10 18 0 0
BITMAP
0C00
0C00
3300
3300
3F00
3F00
C0C0
C0C0
C0C0
C0C0
C0C0
C0C0
C0C0
C0C0
C0C0
C0C0
3F00
3F00
ENDCHAR
STARTCHAR LATIN
ENCODING 213
SWIDTH 543 0
DWIDTH 12 0
BBX 10 18 0 0
BITMAP
3CC0
3CC0
CF00
CF00
3F00
3F00
C0C0
C0C0
C0C0
C0C0
C0C0
C0C0
C0C0
C0C0
C0C0
C0C0
3F00
3F00
ENDCHAR
STARTCHAR LATIN
ENCODING 214
SWIDTH 543 0
DWIDTH 12 0
BBX 10 18 0 0
BITMAP
3300
3300
0000
0000
3F00
3F00
C0C0
C0C0
C0C0
C0C0
C0C0
C0C0
C0C0
C0C0
C0C0
C0C0
3F00
3F00
ENDCHAR
STARTCHAR MULTIPLICATION
ENCODING 215
SWIDTH 543 0
DWIDTH 12 0
BBX 10 10 0 2
BITMAP
C0C0
C0C0
3300
3300
0C00
0C00
3300
3300
C0C0
C0C0
ENDCHAR
STARTCHAR LATIN
ENCODING 216
SWIDTH 543 0
DWIDTH 12 0
BBX 10 18 0 -2
BITMAP
00C0
00C0
3F00
3F00
C3C0
C3C0
CCC0
CCC0
CCC0
CCC0
CCC0
CCC0
F0C0
F0C0
3F00
3F00
C000
C000
ENDCHAR
STARTCHAR LATIN
ENCODING 217
SWIDTH 543 0
DWIDTH 12 0
BBX 10 18 0 0
BITMAP
3000
3000
0C00
0C00
C0C0
C0C0
C0C0
C0C0
C0C0
C0C0
C0C0
C0C0
C0C0
C0C0
C0C0
C0C0
3F00
3F00
ENDCHAR
STARTCHAR LATIN
ENCODING 218
SWIDTH 543 0
DWIDTH 12 0
BBX 10 18 0 0
BITMAP
0300
0300
0C00
0C00
C0C0
C0C0
C0C0
C0C0
C0C0
C0C0
C0C0
C0C0
C0C0
C0C0
C0C0
C0C0
3F00
3F00
ENDCHAR
STARTCHAR LATIN
ENCODING 219
SWIDTH 543 0
DWIDTH 12 0
BBX 10 18 0 0
BITMAP
0C00
0C00
3300
3300
0000
0000
C0C0
C0C0
C0C0
C0C0
C0C0
C0C0
C0C0
C0C0
C0C0
C0C0
3F00
3F00
ENDCHAR
STARTCHAR LATIN
ENCODING 220
SWIDTH 543 0
DWIDTH 12 0
BBX 10 18 0 0
BITMAP
3300
3300
0000
0000
C0C0
C0C0
C0C0
C0C0
C0C0
C0C0
C0C0
C0C0
C0C0
C0C0
C0C0
C0C0
3F00
3F00
ENDCHAR
STARTCHAR LATIN
ENCODING 221
SWIDTH 543 0
DWIDTH 12 0
BBX 10 18 0 0
BITMAP
0300
0300
0C00
0C00
C0C0
C0C0
C0C0
C0C0
C0C0
C0C0
3300
3300
0C00
0C00
0C00
0C00
0C00
0C00
ENDCHAR
STARTCHAR LATIN
ENCODING 222
SWIDTH 543 0
DWIDTH 12 0
BBX 12 18 0 -4
BITMAP
FC00
FC00
3000
3000
3FC0
3FC0
3030
3030
3030
3030
3030
3030
3FC0
3FC0
3000
3000
FC00
FC00
ENDCHAR
STARTCHAR LATIN
ENCODING 223
SWIDTH 543 0
DWIDTH 12 0
BBX 10 16 0 0
BITMAP
3F00
3F00
C0C0
C0C0
C0C0
C0C0
FF00
FF00
C0C0
C0C0
C0C0
C0C0
F0C0
F0C0
CF00
CF00
ENDCHAR
STARTCHAR LATIN
ENCODING 224
SWIDTH 543 0
DWIDTH 12 0
BBX 10 16 0 0
BITMAP
0C00
0C00
0300
0300
0000
0000
3FC0
3FC0
C0C0
C0C0
C0C0
C0C0
C3C0
C3C0
3CC0
3CC0
ENDCHAR
STARTCHAR LATIN
ENCODING 225
SWIDTH 543 0
DWIDTH 12 0
BBX 10 16 0 0
BITMAP
0300
0300
0C00
0C00
0000
0000
3FC0
3FC0
C0C0
C0C0
C0C0
C0C0
C3C0
C3C0
3CC0
3CC0
ENDCHAR
STARTCHAR LATIN
ENCODING 226
SWIDTH 543 0
DWIDTH 12 0
BBX 10 16 0 0
BITMAP
0C00
0C00
3300
3300
0000
0000
3FC0
3FC0
C0C0
C0C0
C0C0
C0C0
C3C0
C3C0
3CC0
3CC0
ENDCHAR
STARTCHAR LATIN
ENCODING 227
SWIDTH 543 0
DWIDTH 12 0
BBX 10 16 0 0
BITMAP
3CC0
3CC0
CF00
CF00
0000
0000
3FC0
3FC0
C0C0
C0C0
C0C0
C0C0
C3C0
C3C0
3CC0
3CC0
ENDCHAR
STARTCHAR LATIN
ENCODING 228
SWIDTH 543 0
DWIDTH 12 0
BBX 10 14 0 0
BITMAP
3300
3300
0000
0000
3FC0
3FC0
C0C0
C0C0
C0C0
C0C0
C3C0
C3C0
3CC0
3CC0
ENDCHAR
STARTCHAR LATIN
ENCODING 229
SWIDTH 543 0
DWIDTH 12 0
BBX 10 18 0 0
BITMAP
0C00
0C00
3300
3300
0C00
0C00
0000
0000
3FC0
3FC0
C0C0
C0C0
C0C0
C0C0
C3C0
C3C0
3CC0
3CC0
ENDCHAR
STARTCHAR LATIN
ENCODING 230
SWIDTH 543 0
DWIDTH 12 0
BBX 10 10 0 0
BITMAP
3F00
3F00
CCC0
CCC0
CFC0
CFC0
CC00
CC00
3FC0
3FC0
ENDCHAR
STARTCHAR LATIN
ENCODING 231
SWIDTH 543 0
DWIDTH 12 0
BBX 10 14 0 -4
BITMAP
3F00
3F00
C0C0
C0C0
C000
C000
C000
C000
3FC0
3FC0
0C00
0C00
3000
3000
ENDCHAR
STARTCHAR LATIN
ENCODING 232
SWIDTH 543 0
DWIDTH 12 0
BBX 10 16 0 0
BITMAP
3000
3000
0C00
0C00
0000
0000
3F00
3F00
C0C0
C0C0
FFC0
FFC0
C000
C000
3FC0
3FC0
ENDCHAR
STARTCHAR LATIN
ENCODING 233
SWIDTH 543 0
DWIDTH 12 0
BBX 10 16 0 0
BITMAP
0300
0300
0C00
0C00
0000
0000
3F00
3F00
C0C0
C0C0
FFC0
FFC0
C000
C000
3FC0
3FC0
ENDCHAR
STARTCHAR LATIN
ENCODING 234
SWIDTH 543 0
DWIDTH 12 0
BBX 10 16 0 0
BITMAP
0C00
0C00
3300
3300
0000
0000
3F00
3F00
C0C0
C0C0
FFC0
FFC0
C000
C000
3FC0
3FC0
ENDCHAR
STARTCHAR LATIN
ENCODING 235
SWIDTH 543 0
DWIDTH 12 0
BBX 10 14 0 0
BITMAP
3300
3300
0000
0000
3F00
3F00
C0C0
C0C0
FFC0
FFC0
C000
C000
3FC0
3FC0
ENDCHAR
STARTCHAR LATIN
ENCODING 236
SWIDTH 543 0
DWIDTH 12 0
BBX 6 16 2 0
BITMAP
C0
C0
30
30
00
00
F0
F0
30
30
30
30
30
30
3C
3C
ENDCHAR
STARTCHAR LATIN
ENCODING 237
SWIDTH 543 0
DWIDTH 12 0
BBX 6 16 2 0
BITMAP
0C
0C
30
30
00
00
F0
F0
30
30
30
30
30
30
3C
3C
ENDCHAR
STARTCHAR LATIN
ENCODING 238
SWIDTH 543 0
DWIDTH 12 0
BBX 6 16 2 0
BITMAP
30
30
CC
CC
00
00
F0
F0
30
30
30
30
30
30
3C
3C
ENDCHAR
STARTCHAR LATIN
ENCODING 239
SWIDTH 543 0
DWIDTH 12 0
BBX 6 14 2 0
BITMAP
CC
CC
00
00
F0
F0
30
30
30
30
30
30
3C
3C
ENDCHAR
STARTCHAR LATIN
ENCODING 240
SWIDTH 543 0
DWIDTH 12 0
BBX 10 18 0 0
BITMAP
3300
3300
0C00
0C00
3300
3300
0300
0300
3FC0
3FC0
C0C0
C0C0
C0C0
C0C0
C0C0
C0C0
3F00
3F00
ENDCHAR
STARTCHAR LATIN
ENCODING 241
SWIDTH 543 0
DWIDTH 12 0
BBX 10 16 0 0
BITMAP
3CC0
3CC0
CF00
CF00
0000
0000
CF00
CF00
F0C0
F0C0
C0C0
C0C0
C0C0
C0C0
C0C0
C0C0
ENDCHAR
STARTCHAR LATIN
ENCODING 242
SWIDTH 543 0
DWIDTH 12 0
BBX 10 16 0 0
BITMAP
3000
3000
0C00
0C00
0000
0000
3F00
3F00
C0C0
C0C0
C0C0
C0C0
C0C0
C0C0
3F00
3F00
ENDCHAR
STARTCHAR LATIN
ENCODING 243
SWIDTH 543 0
DWIDTH 12 0
BBX 10 16 0 0
BITMAP
0300
0300
0C00
0C00
0000
0000
3F00
3F00
C0C0
C0C0
C0C0
C0C0
C0C0
C0C0
3F00
3F00
ENDCHAR
STARTCHAR LATIN
ENCODING 244
SWIDTH 543 0
DWIDTH 12 0
BBX 10 16 0 0
BITMAP
0C00
0C00
3300
3300
0000
0000
3F00
3F00
C0C0
C0C0
C0C0
C0C0
C0C0
C0C0
3F00
3F00
ENDCHAR
STARTCHAR LATIN
ENCODING 245
SWIDTH 543 0
DWIDTH 12 0
BBX 10 16 0 0
BITMAP
3CC0
3CC0
CF00
CF00
0000
0000
3F00
3F00
C0C0
C0C0
C0C0
C0C0
C0C0
C0C0
3F00
3F00
ENDCHAR
STARTCHAR LATIN
ENCODING 246
SWIDTH 543 0
DWIDTH 12 0
BBX 10 14 0 0
BITMAP
3300
3300
0000
0000
3F00
3F00
C0C0
C0C0
C0C0
C0C0
C0C0
C0C0
3F00
3F00
ENDCHAR
STARTCHAR DIVISION
ENCODING 247
SWIDTH 543 0
DWIDTH 12 0
BBX 10 10 0 2
BITMAP
0C00
0C00
0000
0000
FFC0
FFC0
0000
0000
0C00
0C00
ENDCHAR
STARTCHAR LATIN
ENCODING 248
SWIDTH 543 0
DWIDTH 12 0
BBX 10 10 0 0
BITMAP
3FC0
3FC0
C3C0
C3C0
CCC0
CCC0
F0C0
F0C0
FF00
FF00
ENDCHAR
STARTCHAR LATIN
ENCODING 249
SWIDTH 543 0
DWIDTH 12 0
BBX 10 16 0 0
BITMAP
3000
3000
0C00
0C00
0000
0000
C0C0
C0C0
C0C0
C0C0
C0C0
C0C0
C3C0
C3C0
3CC0
3CC0
ENDCHAR
STARTCHAR LATIN
ENCODING 250
SWIDTH 543 0
DWIDTH 12 0
BBX 10 16 0 0
BITMAP
0300
0300
0C00
0C00
0000
0000
C0C0
C0C0
C0C0
C0C0
C0C0
C0C0
C3C0
C3C0
3CC0
3CC0
ENDCHAR
STARTCHAR LATIN
ENCODING 251
SWIDTH 543 0
DWIDTH 12 0
BBX 10 16 0 0
BITMAP
0C00
0C00
3300
3300
0000
0000
C0C0
C0C0
C0C0
C0C0
C0C0
C0C0
C3C0
C3C0
3CC0
3CC0
ENDCHAR
STARTCHAR LATIN
ENCODING 252
SWIDTH 543 0
DWIDTH 12 0
BBX 10 14 0 0
BITMAP
3300
3300
0000
0000
C0C0
C0C0
C0C0
C0C0
C0C0
C0C0
C3C0
C3C0
3CC0
3CC0
ENDCHAR
STARTCHAR LATIN
ENCODING 253
SWIDTH 543 0
DWIDTH 12 0
BBX 10 20 0 -4
BITMAP
0300
0300
0C00
0C00
0000
0000
C0C0
C0C0
C0C0
C0C0
C0C0
C0C0
C0C0
C0C0
3FC0
3FC0
00C0
00C0
3F00
3F00
ENDCHAR
STARTCHAR LATIN
ENCODING 254
SWIDTH 543 0
DWIDTH 12 0
BBX 10 18 0 -4
BITMAP
C000
C000
C000
C000
FF00
FF00
C0C0
C0C0
C0C0
C0C0
C0C0
C0C0
FF00
FF00
C000
C000
C000
C000
ENDCHAR
STARTCHAR LATIN
ENCODING 255
SWIDTH 543 0
DWIDTH 12 0
BBX 10 18 0 -4
BITMAP
3300
3300
0000
0000
C0C0
C0C0
C0C0
C0C0
C0C0
C0C0
C0C0
C0C0
3FC0
3FC0
00C0
00C0
3F00
3F00
ENDCHAR
STARTCHAR LATIN
ENCODING 256
SWIDTH 543 0
DWIDTH 12 0
BBX 10 18 0 0
BITMAP
FFC0
FFC0
0000
0000
3F00
3F00
C0C0
C0C0
C0C0
C0C0
FFC0
FFC0
C0C0
C0C0
C0C0
C0C0
C0C0
C0C0
ENDCHAR
STARTCHAR LATIN
ENCODING 257
SWIDTH 543 0
DWIDTH 12 0
BBX 10 14 0 0
BITMAP
FFC0
FFC0
0000
0000
3FC0
3FC0
C0C0
C0C0
C0C0
C0C0
C3C0
C3C0
3CC0
3CC0
ENDCHAR
STARTCHAR LATIN
ENCODING 258
SWIDTH 543 0
DWIDTH 12 0
BBX 10 18 0 0
BITMAP
C0C0
C0C0
3F00
3F00
0000
0000
3F00
3F00
C0C0
C0C0
C0C0
C0C0
FFC0
FFC0
C0C0
C0C0
C0C0
C0C0
ENDCHAR
STARTCHAR LATIN
ENCODING 259
SWIDTH 543 0
DWIDTH 12 0
BBX 10 16 0 0
BITMAP
C0C0
C0C0
3F00
3F00
0000
0000
3FC0
3FC0
C0C0
C0C0
C0C0
C0C0
C3C0
C3C0
3CC0
3CC0
ENDCHAR
STARTCHAR LATIN
ENCODING 260
SWIDTH 543 0
DWIDTH 12 0
BBX 12 16 0 -2
BITMAP
3F00
3F00
C0C0
C0C0
C0C0
C0C0
FFC0
FFC0
C0C0
C0C0
C0C0
C0C0
C0C0
C0C0
0030
0030
ENDCHAR
STARTCHAR LATIN
ENCODING 261
SWIDTH 543 0
DWIDTH 12 0
BBX 12 12 0 -2
BITMAP
3FC0
3FC0
C0C0
C0C0
C0C0
C0C0
C3C0
C3C0
3CC0
3CC0
0030
0030
ENDCHAR
STARTCHAR LATIN
ENCODING 262
SWIDTH 543 0
DWIDTH 12 0
BBX 10 18 0 0
BITMAP
0300
0300
0C00
0C00
3F00
3F00
C0C0
C0C0
C000
C000
C000
C000
C000
C000
C0C0
C0C0
3F00
3F00
ENDCHAR
STARTCHAR LATIN
ENCODING 263
SWIDTH 543 0
DWIDTH 12 0
BBX 10 16 0 0
BITMAP
0300
0300
0C00
0C00
0000
0000
3F00
3F00
C0C0
C0C0
C000
C000
C000
C000
3FC0
3FC0
ENDCHAR
STARTCHAR LATIN
ENCODING 264
SWIDTH 543 0
DWIDTH 12 0
BBX 10 18 0 0
BITMAP
0C00
0C00
3300
3300
3F00
3F00
C0C0
C0C0
C000
C000
C000
C000
C000
C000
C0C0
C0C0
3F00
3F00
ENDCHAR
STARTCHAR LATIN
ENCODING 265
SWIDTH 543 0
DWIDTH 12 0
BBX 10 16 0 0
BITMAP
0C00
0C00
3300
3300
0000
0000
3F00
3F00
C0C0
C0C0
C000
C000
C000
C000
3FC0
3FC0
ENDCHAR
STARTCHAR LATIN
ENCODING 266
SWIDTH 543 0
DWIDTH 12 0
BBX 10 18 0 0
BITMAP
0C00
0C00
0000
0000
3F00
3F00
C0C0
C0C0
C000
C000
C000
C000
C000
C000
C0C0
C0C0
3F00
3F00
ENDCHAR
STARTCHAR LATIN
ENCODING 267
SWIDTH 543 0
DWIDTH 12 0
BBX 10 14 0 0
BITMAP
0C00
0C00
0000
0000
3F00
3F00
C0C0
C0C0
C000
C000
C000
C000
3FC0
3FC0
ENDCHAR
STARTCHAR LATIN
ENCODING 268
SWIDTH 543 0
DWIDTH 12 0
BBX 10 18 0 0
BITMAP
3300
3300
0C00
0C00
3F00
3F00
C0C0
C0C0
C000
C000
C000
C000
C000
C000
C0C0
C0C0
3F00
3F00
ENDCHAR
STARTCHAR LATIN
ENCODING 269
SWIDTH 543 0
DWIDTH 12 0
BBX 10 16 0 0
BITMAP
3300
3300
0C00
0C00
0000
0000
3F00
3F00
C0C0
C0C0
C000
C000
C000
C000
3FC0
3FC0
ENDCHAR
STARTCHAR LATIN
ENCODING 270
SWIDTH 543 0
DWIDTH 12 0
BBX 10 18 0 0
BITMAP
3300
3300
0C00
0C00
FF00
FF00
C0C0
C0C0
C0C0
C0C0
C0C0
C0C0
C0C0
C0C0
C0C0
C0C0
FF00
FF00
ENDCHAR
STARTCHAR LATIN
ENCODING 271
SWIDTH 543 0
DWIDTH 12 0
BBX 12 16 0 0
BITMAP
0030
0030
0330
0330
03C0
03C0
3F00
3F00
C300
C300
C300
C300
C300
C300
3F00
3F00
ENDCHAR
STARTCHAR LATIN
ENCODING 272
SWIDTH 543 0
DWIDTH 12 0
BBX 12 14 0 0
BITMAP
3FC0
3FC0
3030
3030
3030
3030
FF30
FF30
3030
3030
3030
3030
3FC0
3FC0
ENDCHAR
STARTCHAR LATIN
ENCODING 273
SWIDTH 543 0
DWIDTH 12 0
BBX 12 14 0 0
BITMAP
03F0
03F0
00C0
00C0
3FC0
3FC0
C0C0
C0C0
C0C0
C0C0
C0C0
C0C0
3FC0
3FC0
ENDCHAR
STARTCHAR LATIN
ENCODING 274
SWIDTH 543 0
DWIDTH 12 0
BBX 10 18 0 0
BITMAP
3F00
3F00
0000
0000
FFC0
FFC0
C000
C000
C000
C000
FF00
FF00
C000
C000
C000
C000
FFC0
FFC0
ENDCHAR
STARTCHAR LATIN
ENCODING 275
SWIDTH 543 0
DWIDTH 12 0
BBX 10 14 0 0
BITMAP
FFC0
FFC0
0000
0000
3F00
3F00
C0C0
C0C0
FFC0
FFC0
C000
C000
3FC0
3FC0
ENDCHAR
STARTCHAR LATIN
ENCODING 276
SWIDTH 543 0
DWIDTH 12 0
BBX 10 18 0 0
BITMAP
C0C0
C0C0
3F00
3F00
0000
0000
FFC0
FFC0
C000
C000
FF00
FF00
C000
C000
C000
C000
FFC0
FFC0
ENDCHAR
STARTCHAR LATIN
ENCODING 277
SWIDTH 543 0
DWIDTH 12 0
BBX 10 16 0 0
BITMAP
C0C0
C0C0
3F00
3F00
0000
0000
3F00
3F00
C0C0
C0C0
FFC0
FFC0
C000
C000
3FC0
3FC0
ENDCHAR
STARTCHAR LATIN
ENCODING 278
SWIDTH 543 0
DWIDTH 12 0
BBX 10 18 0 0
BITMAP
0C00
0C00
0000
0000
FFC0
FFC0
C000
C000
C000
C000
FF00
FF00
C000
C000
C000
C000
FFC0
FFC0
ENDCHAR
STARTCHAR LATIN
ENCODING 279
SWIDTH 543 0
DWIDTH 12 0
BBX 10 14 0 0
BITMAP
0C00
0C00
0000
0000
3F00
3F00
C0C0
C0C0
FFC0
FFC0
C000
C000
3FC0
3FC0
ENDCHAR
STARTCHAR LATIN
ENCODING 280
SWIDTH 543 0
DWIDTH 12 0
BBX 12 16 0 -2
BITMAP
FFC0
FFC0
C000
C000
C000
C000
FF00
FF00
C000
C000
C000
C000
FFC0
FFC0
0030
0030
ENDCHAR
STARTCHAR LATIN
ENCODING 281
SWIDTH 543 0
DWIDTH 12 0
BBX 10 14 0 -4
BITMAP
3F00
3F00
C0C0
C0C0
FFC0
FFC0
C000
C000
3FC0
3FC0
0300
0300
00C0
00C0
ENDCHAR
STARTCHAR LATIN
ENCODING 282
SWIDTH 543 0
DWIDTH 12 0
BBX 10 18 0 0
BITMAP
3300
3300
0C00
0C00
FFC0
FFC0
C000
C000
C000
C000
FF00
FF00
C000
C000
C000
C000
FFC0
FFC0
ENDCHAR
STARTCHAR LATIN
ENCODING 283
SWIDTH 543 0
DWIDTH 12 0
BBX 10 16 0 0
BITMAP
3300
3300
0C00
0C00
0000
0000
3F00
3F00
C0C0
C0C0
FFC0
FFC0
C000
C000
3FC0
3FC0
ENDCHAR
STARTCHAR LATIN
ENCODING 284
SWIDTH 543 0
DWIDTH 12 0
BBX 10 18 0 0
BITMAP
0C00
0C00
3300
3300
0000
0000
3F00
3F00
C0C0
C0C0
C000
C000
C3C0
C3C0
C0C0
C0C0
3F00
3F00
ENDCHAR
STARTCHAR LATIN
ENCODING 285
SWIDTH 543 0
DWIDTH 12 0
BBX 10 20 0 -4
BITMAP
0C00
0C00
3300
3300
0000
0000
3FC0
3FC0
C0C0
C0C0
C0C0
C0C0
C0C0
C0C0
3FC0
3FC0
00C0
00C0
3F00
3F00
ENDCHAR
STARTCHAR LATIN
ENCODING 286
SWIDTH 543 0
DWIDTH 12 0
BBX 10 18 0 0
BITMAP
C0C0
C0C0
3F00
3F00
0000
0000
3F00
3F00
C0C0
C0C0
C000
C000
C3C0
C3C0
C0C0
C0C0
3F00
3F00
ENDCHAR
STARTCHAR LATIN
ENCODING 287
SWIDTH 543 0
DWIDTH 12 0
BBX 10 20 0 -4
BITMAP
C0C0
C0C0
3F00
3F00
0000
0000
3FC0
3FC0
C0C0
C0C0
C0C0
C0C0
C0C0
C0C0
3FC0
3FC0
00C0
00C0
3F00
3F00
ENDCHAR
STARTCHAR LATIN
ENCODING 288
SWIDTH 543 0
DWIDTH 12 0
BBX 10 18 0 0
BITMAP
0C00
0C00
0000
0000
3F00
3F00
C0C0
C0C0
C000
C000
C3C0
C3C0
C0C0
C0C0
C0C0
C0C0
3F00
3F00
ENDCHAR
STARTCHAR LATIN
ENCODING 289
SWIDTH 543 0
DWIDTH 12 0
BBX 10 18 0 -4
BITMAP
0C00
0C00
0000
0000
3FC0
3FC0
C0C0
C0C0
C0C0
C0C0
C0C0
C0C0
3FC0
3FC0
00C0
00C0
3F00
3F00
ENDCHAR
STARTCHAR LATIN
ENCODING 290
SWIDTH 543 0
DWIDTH 12 0
BBX 10 18 0 -4
BITMAP
3F00
3F00
C0C0
C0C0
C000
C000
C3C0
C3C0
C0C0
C0C0
C0C0
C0C0
3F00
3F00
0C00
0C00
3000
3000
ENDCHAR
STARTCHAR LATIN
ENCODING 291
SWIDTH 543 0
DWIDTH 12 0
BBX 10 20 0 -4
BITMAP
0300
0300
0C00
0C00
0000
0000
3FC0
3FC0
C0C0
C0C0
C0C0
C0C0
C0C0
C0C0
3FC0
3FC0
00C0
00C0
3F00
3F00
ENDCHAR
STARTCHAR LATIN
ENCODING 292
SWIDTH 543 0
DWIDTH 12 0
BBX 10 18 0 0
BITMAP
0C00
0C00
3300
3300
0000
0000
C0C0
C0C0
C0C0
C0C0
FFC0
FFC0
C0C0
C0C0
C0C0
C0C0
C0C0
C0C0
ENDCHAR
STARTCHAR LATIN
ENCODING 293
SWIDTH 543 0
DWIDTH 12 0
BBX 10 18 0 0
BITMAP
0C00
0C00
3300
3300
C000
C000
C000
C000
FF00
FF00
C0C0
C0C0
C0C0
C0C0
C0C0
C0C0
C0C0
C0C0
ENDCHAR
STARTCHAR LATIN
ENCODING 294
SWIDTH 543 0
DWIDTH 12 0
BBX 10 14 0 0
BITMAP
C0C0
C0C0
FFC0
FFC0
C0C0
C0C0
FFC0
FFC0
C0C0
C0C0
C0C0
C0C0
C0C0
C0C0
ENDCHAR
STARTCHAR LATIN
ENCODING 295
SWIDTH 543 0
DWIDTH 12 0
BBX 10 14 0 0
BITMAP
FC00
FC00
C000
C000
FF00
FF00
C0C0
C0C0
C0C0
C0C0
C0C0
C0C0
C0C0
C0C0
ENDCHAR
STARTCHAR LATIN
ENCODING 296
SWIDTH 543 0
DWIDTH 12 0
BBX 10 18 0 0
BITMAP
3CC0
3CC0
CF00
CF00
0000
0000
3F00
3F00
0C00
0C00
0C00
0C00
0C00
0C00
0C00
0C00
3F00
3F00
ENDCHAR
STARTCHAR LATIN
ENCODING 297
SWIDTH 543 0
DWIDTH 12 0
BBX 10 16 0 0
BITMAP
3CC0
3CC0
CF00
CF00
0000
0000
3C00
3C00
0C00
0C00
0C00
0C00
0C00
0C00
0F00
0F00
ENDCHAR
STARTCHAR LATIN
ENCODING 298
SWIDTH 543 0
DWIDTH 12 0
BBX 6 18 2 0
BITMAP
FC
FC
00
00
FC
FC
30
30
30
30
30
30
30
30
30
30
FC
FC
ENDCHAR
STARTCHAR LATIN
ENCODING 299
SWIDTH 543 0
DWIDTH 12 0
BBX 6 14 2 0
BITMAP
FC
FC
00
00
F0
F0
30
30
30
30
30
30
3C
3C
ENDCHAR
STARTCHAR LATIN
ENCODING 300
SWIDTH 543 0
DWIDTH 12 0
BBX 10 18 0 0
BITMAP
C0C0
C0C0
3F00
3F00
0000
0000
3F00
3F00
0C00
0C00
0C00
0C00
0C00
0C00
0C00
0C00
3F00
3F00
ENDCHAR
STARTCHAR LATIN
ENCODING 301
SWIDTH 543 0
DWIDTH 12 0
BBX 10 16 0 0
BITMAP
C0C0
C0C0
3F00
3F00
0000
0000
3C00
3C00
0C00
0C00
0C00
0C00
0C00
0C00
0F00
0F00
ENDCHAR
STARTCHAR LATIN
ENCODING 302
SWIDTH 543 0
DWIDTH 12 0
BBX 6 18 2 -4
BITMAP
FC
FC
30
30
30
30
30
30
30
30
30
30
FC
FC
C0
C0
30
30
ENDCHAR
STARTCHAR LATIN
ENCODING 303
SWIDTH 543 0
DWIDTH 12 0
BBX 6 18 2 -4
BITMAP
30
30
00
00
F0
F0
30
30
30
30
30
30
3C
3C
C0
C0
30
30
ENDCHAR
STARTCHAR LATIN
ENCODING 304
SWIDTH 543 0
DWIDTH 12 0
BBX 6 18 2 0
BITMAP
30
30
00
00
FC
FC
30
30
30
30
30
30
30
30
30
30
FC
FC
ENDCHAR
STARTCHAR LATIN
ENCODING 305
SWIDTH 543 0
DWIDTH 12 0
BBX 6 10 2 0
BITMAP
F0
F0
30
30
30
30
30
30
3C
3C
ENDCHAR
STARTCHAR LATIN
ENCODING 306
SWIDTH 543 0
DWIDTH 12 0
BBX 12 14 0 0
BITMAP
FC30
FC30
3030
3030
3030
3030
3030
3030
3030
3030
3330
3330
FCC0
FCC0
ENDCHAR
STARTCHAR LATIN
ENCODING 307
SWIDTH 543 0
DWIDTH 12 0
BBX 10 18 0 -4
BITMAP
30C0
30C0
0000
0000
F3C0
F3C0
30C0
30C0
30C0
30C0
30C0
30C0
3CC0
3CC0
00C0
00C0
0F00
0F00
ENDCHAR
STARTCHAR LATIN
ENCODING 308
SWIDTH 543 0
DWIDTH 12 0
BBX 10 18 0 0
BITMAP
0C00
0C00
3300
3300
0000
0000
00C0
00C0
00C0
00C0
00C0
00C0
C0C0
C0C0
C0C0
C0C0
3F00
3F00
ENDCHAR
STARTCHAR LATIN
ENCODING 309
SWIDTH 543 0
DWIDTH 12 0
BBX 8 20 0 -4
BITMAP
0C
0C
33
33
00
00
3C
3C
0C
0C
0C
0C
0C
0C
0C
0C
0C
0C
F0
F0
ENDCHAR
STARTCHAR LATIN
ENCODING 310
SWIDTH 543 0
DWIDTH 12 0
BBX 10 18 0 -4
BITMAP
C0C0
C0C0
C300
C300
CC00
CC00
F000
F000
CC00
CC00
C300
C300
C0C0
C0C0
0C00
0C00
3000
3000
ENDCHAR
STARTCHAR LATIN
ENCODING 311
SWIDTH 543 0
DWIDTH 12 0
BBX 10 18 0 -4
BITMAP
C000
C000
C000
C000
C300
C300
CC00
CC00
FC00
FC00
C300
C300
C0C0
C0C0
0C00
0C00
3000
3000
ENDCHAR
STARTCHAR LATIN
ENCODING 312
SWIDTH 543 0
DWIDTH 12 0
BBX 8 10 0 0
BITMAP
C3
C3
CC
CC
F0
F0
CC
CC
C3
C3
ENDCHAR
STARTCHAR LATIN
ENCODING 313
SWIDTH 543 0
DWIDTH 12 0
BBX 10 18 0 0
BITMAP
0300
0300
0C00
0C00
C000
C000
C000
C000
C000
C000
C000
C000
C000
C000
C000
C000
FFC0
FFC0
ENDCHAR
STARTCHAR LATIN
ENCODING 314
SWIDTH 543 0
DWIDTH 12 0
BBX 8 18 2 0
BITMAP
03
03
0C
0C
F0
F0
30
30
30
30
30
30
30
30
30
30
3C
3C
ENDCHAR
STARTCHAR LATIN
ENCODING 315
SWIDTH 543 0
DWIDTH 12 0
BBX 10 18 0 -4
BITMAP
C000
C000
C000
C000
C000
C000
C000
C000
C000
C000
C000
C000
FFC0
FFC0
0C00
0C00
3000
3000
ENDCHAR
STARTCHAR LATIN
ENCODING 316
SWIDTH 543 0
DWIDTH 12 0
BBX 6 18 2 -4
BITMAP
F0
F0
30
30
30
30
30
30
30
30
30
30
3C
3C
0C
0C
30
30
ENDCHAR
STARTCHAR LATIN
ENCODING 317
SWIDTH 543 0
DWIDTH 12 0
BBX 10 16 0 0
BITMAP
0F00
0F00
C300
C300
C000
C000
C000
C000
C000
C000
C000
C000
C000
C000
FFC0
FFC0
ENDCHAR
STARTCHAR LATIN
ENCODING 318
SWIDTH 543 0
DWIDTH 12 0
BBX 8 18 2 0
BITMAP
0F
0F
03
03
F0
F0
30
30
30
30
30
30
30
30
30
30
3C
3C
ENDCHAR
STARTCHAR LATIN
ENCODING 319
SWIDTH 543 0
DWIDTH 12 0
BBX 10 14 0 0
BITMAP
C000
C000
C000
C000
C000
C000
CC00
CC00
C000
C000
C000
C000
FFC0
FFC0
ENDCHAR
STARTCHAR LATIN
ENCODING 320
SWIDTH 543 0
DWIDTH 12 0
BBX 8 14 2 0
BITMAP
F0
F0
30
30
30
30
33
33
30
30
30
30
3C
3C
ENDCHAR
STARTCHAR LATIN
ENCODING 321
SWIDTH 543 0
DWIDTH 12 0
BBX 10 14 0 0
BITMAP
C000
C000
C000
C000
CC00
CC00
F000
F000
C000
C000
C000
C000
FFC0
FFC0
ENDCHAR
STARTCHAR LATIN
ENCODING 322
SWIDTH 543 0
DWIDTH 12 0
BBX 6 14 2 0
BITMAP
F0
F0
30
30
3C
3C
30
30
F0
F0
30
30
3C
3C
ENDCHAR
STARTCHAR LATIN
ENCODING 323
SWIDTH 543 0
DWIDTH 12 0
BBX 10 18 0 0
BITMAP
0300
0300
0C00
0C00
F0C0
F0C0
F0C0
F0C0
CCC0
CCC0
CCC0
CCC0
CCC0
CCC0
C3C0
C3C0
C3C0
C3C0
ENDCHAR
STARTCHAR LATIN
ENCODING 324
SWIDTH 543 0
DWIDTH 12 0
BBX 10 16 0 0
BITMAP
0300
0300
0C00
0C00
0000
0000
CF00
CF00
F0C0
F0C0
C0C0
C0C0
C0C0
C0C0
C0C0
C0C0
ENDCHAR
STARTCHAR LATIN
ENCODING 325
SWIDTH 543 0
DWIDTH 12 0
BBX 10 18 0 -4
BITMAP
F0C0
F0C0
F0C0
F0C0
CCC0
CCC0
CCC0
CCC0
CCC0
CCC0
C3C0
C3C0
CFC0
CFC0
0C00
0C00
3000
3000
ENDCHAR
STARTCHAR LATIN
ENCODING 326
SWIDTH 543 0
DWIDTH 12 0
BBX 10 14 0 -4
BITMAP
CF00
CF00
F0C0
F0C0
C0C0
C0C0
C0C0
C0C0
CCC0
CCC0
0C00
0C00
3000
3000
ENDCHAR
STARTCHAR LATIN
ENCODING 327
SWIDTH 543 0
DWIDTH 12 0
BBX 10 18 0 0
BITMAP
3300
3300
0C00
0C00
F0C0
F0C0
F0C0
F0C0
CCC0
CCC0
CCC0
CCC0
CCC0
CCC0
C3C0
C3C0
C3C0
C3C0
ENDCHAR
STARTCHAR LATIN
ENCODING 328
SWIDTH 543 0
DWIDTH 12 0
BBX 10 16 0 0
BITMAP
3300
3300
0C00
0C00
0000
0000
CF00
CF00
F0C0
F0C0
C0C0
C0C0
C0C0
C0C0
C0C0
C0C0
ENDCHAR
STARTCHAR LATIN
ENCODING 329
SWIDTH 543 0
DWIDTH 12 0
BBX 10 16 0 0
BITMAP
C000
C000
C000
C000
0000
0000
CF00
CF00
F0C0
F0C0
C0C0
C0C0
C0C0
C0C0
C0C0
C0C0
ENDCHAR
STARTCHAR LATIN
ENCODING 330
SWIDTH 543 0
DWIDTH 12 0
BBX 10 18 0 -4
BITMAP
F0C0
F0C0
F0C0
F0C0
CCC0
CCC0
CCC0
CCC0
CCC0
CCC0
C3C0
C3C0
C3C0
C3C0
00C0
00C0
0F00
0F00
ENDCHAR
STARTCHAR LATIN
ENCODING 331
SWIDTH 543 0
DWIDTH 12 0
BBX 10 14 0 -4
BITMAP
CF00
CF00
F0C0
F0C0
C0C0
C0C0
C0C0
C0C0
C0C0
C0C0
00C0
00C0
0F00
0F00
ENDCHAR
STARTCHAR LATIN
ENCODING 332
SWIDTH 543 0
DWIDTH 12 0
BBX 10 18 0 0
BITMAP
3F00
3F00
0000
0000
3F00
3F00
C0C0
C0C0
C0C0
C0C0
C0C0
C0C0
C0C0
C0C0
C0C0
C0C0
3F00
3F00
ENDCHAR
STARTCHAR LATIN
ENCODING 333
SWIDTH 543 0
DWIDTH 12 0
BBX 10 14 0 0
BITMAP
FFC0
FFC0
0000
0000
3F00
3F00
C0C0
C0C0
C0C0
C0C0
C0C0
C0C0
3F00
3F00
ENDCHAR
STARTCHAR LATIN
ENCODING 334
SWIDTH 543 0
DWIDTH 12 0
BBX 10 18 0 0
BITMAP
C0C0
C0C0
3F00
3F00
0000
0000
3F00
3F00
C0C0
C0C0
C0C0
C0C0
C0C0
C0C0
C0C0
C0C0
3F00
3F00
ENDCHAR
STARTCHAR LATIN
ENCODING 335
SWIDTH 543 0
DWIDTH 12 0
BBX 10 16 0 0
BITMAP
C0C0
C0C0
3F00
3F00
0000
0000
3F00
3F00
C0C0
C0C0
C0C0
C0C0
C0C0
C0C0
3F00
3F00
ENDCHAR
STARTCHAR LATIN
ENCODING 336
SWIDTH 543 0
DWIDTH 12 0
BBX 10 18 0 0
BITMAP
0CC0
0CC0
3300
3300
3F00
3F00
C0C0
C0C0
C0C0
C0C0
C0C0
C0C0
C0C0
C0C0
C0C0
C0C0
3F00
3F00
ENDCHAR
STARTCHAR LATIN
ENCODING 337
SWIDTH 543 0
DWIDTH 12 0
BBX 10 16 0 0
BITMAP
0CC0
0CC0
3300
3300
0000
0000
3F00
3F00
C0C0
C0C0
C0C0
C0C0
C0C0
C0C0
3F00
3F00
ENDCHAR
STARTCHAR LATIN
ENCODING 338
SWIDTH 543 0
DWIDTH 12 0
BBX 10 14 0 0
BITMAP
33C0
33C0
CC00
CC00
CC00
CC00
CF00
CF00
CC00
CC00
CC00
CC00
33C0
33C0
ENDCHAR
STARTCHAR LATIN
ENCODING 339
SWIDTH 543 0
DWIDTH 12 0
BBX 10 10 0 0
BITMAP
3300
3300
CCC0
CCC0
CFC0
CFC0
CC00
CC00
33C0
33C0
ENDCHAR
STARTCHAR LATIN
ENCODING 340
SWIDTH 543 0
DWIDTH 12 0
BBX 10 18 0 0
BITMAP
0300
0300
0C00
0C00
FF00
FF00
C0C0
C0C0
C0C0
C0C0
FF00
FF00
C0C0
C0C0
C0C0
C0C0
C0C0
C0C0
ENDCHAR
STARTCHAR LATIN
ENCODING 341
SWIDTH 543 0
DWIDTH 12 0
BBX 10 16 0 0
BITMAP
0300
0300
0C00
0C00
0000
0000
CF00
CF00
F0C0
F0C0
C000
C000
C000
C000
C000
C000
ENDCHAR
STARTCHAR LATIN
ENCODING 342
SWIDTH 543 0
DWIDTH 12 0
BBX 10 18 0 -4
BITMAP
FF00
FF00
C0C0
C0C0
C0C0
C0C0
FF00
FF00
C0C0
C0C0
C0C0
C0C0
CCC0
CCC0
0C00
0C00
3000
3000
ENDCHAR
STARTCHAR LATIN
ENCODING 343
SWIDTH 543 0
DWIDTH 12 0
BBX 10 14 0 -4
BITMAP
CF00
CF00
F0C0
F0C0
C000
C000
C000
C000
CC00
CC00
0C00
0C00
3000
3000
ENDCHAR
STARTCHAR LATIN
ENCODING 344
SWIDTH 543 0
DWIDTH 12 0
BBX 10 18 0 0
BITMAP
3300
3300
0C00
0C00
FF00
FF00
C0C0
C0C0
C0C0
C0C0
FF00
FF00
C0C0
C0C0
C0C0
C0C0
C0C0
C0C0
ENDCHAR
STARTCHAR LATIN
ENCODING 345
SWIDTH 543 0
DWIDTH 12 0
BBX 10 16 0 0
BITMAP
3300
3300
0C00
0C00
0000
0000
CF00
CF00
F0C0
F0C0
C000
C000
C000
C000
C000
C000
ENDCHAR
STARTCHAR LATIN
ENCODING 346
SWIDTH 543 0
DWIDTH 12 0
BBX 10 18 0 0
BITMAP
0300
0300
0C00
0C00
3F00
3F00
C0C0
C0C0
C000
C000
3F00
3F00
00C0
00C0
C0C0
C0C0
3F00
3F00
ENDCHAR
STARTCHAR LATIN
ENCODING 347
SWIDTH 543 0
DWIDTH 12 0
BBX 10 16 0 0
BITMAP
0300
0300
0C00
0C00
0000
0000
3FC0
3FC0
C000
C000
3F00
3F00
00C0
00C0
FF00
FF00
ENDCHAR
STARTCHAR LATIN
ENCODING 348
SWIDTH 543 0
DWIDTH 12 0
BBX 10 18 0 0
BITMAP
0C00
0C00
3300
3300
3F00
3F00
C0C0
C0C0
C000
C000
3F00
3F00
00C0
00C0
C0C0
C0C0
3F00
3F00
ENDCHAR
STARTCHAR LATIN
ENCODING 349
SWIDTH 543 0
DWIDTH 12 0
BBX 10 16 0 0
BITMAP
0C00
0C00
3300
3300
0000
0000
3FC0
3FC0
C000
C000
3F00
3F00
00C0
00C0
FF00
FF00
ENDCHAR
STARTCHAR LATIN
ENCODING 350
SWIDTH 543 0
DWIDTH 12 0
BBX 10 18 0 -4
BITMAP
3F00
3F00
C0C0
C0C0
C000
C000
3F00
3F00
00C0
00C0
C0C0
C0C0
3F00
3F00
0C00
0C00
0C00
0C00
ENDCHAR
STARTCHAR LATIN
ENCODING 351
SWIDTH 543 0
DWIDTH 12 0
BBX 10 14 0 -4
BITMAP
3FC0
3FC0
C000
C000
3F00
3F00
00C0
00C0
FF00
FF00
0C00
0C00
0C00
0C00
ENDCHAR
STARTCHAR LATIN
ENCODING 352
SWIDTH 543 0
DWIDTH 12 0
BBX 10 18 0 0
BITMAP
3300
3300
0C00
0C00
3F00
3F00
C0C0
C0C0
C000
C000
3F00
3F00
00C0
00C0
C0C0
C0C0
3F00
3F00
ENDCHAR
STARTCHAR LATIN
ENCODING 353
SWIDTH 543 0
DWIDTH 12 0
BBX 10 16 0 0
BITMAP
3300
3300
0C00
0C00
0000
0000
3FC0
3FC0
C000
C000
3F00
3F00
00C0
00C0
FF00
FF00
ENDCHAR
STARTCHAR LATIN
ENCODING 354
SWIDTH 543 0
DWIDTH 12 0
BBX 10 18 0 -4
BITMAP
FFC0
FFC0
0C00
0C00
0C00
0C00
0C00
0C00
0C00
0C00
0C00
0C00
0C00
0C00
0C00
0C00
3000
3000
ENDCHAR
STARTCHAR LATIN
ENCODING 355
SWIDTH 543 0
DWIDTH 12 0
BBX 8 18 2 -4
BITMAP
30
30
30
30
FC
FC
30
30
30
30
30
30
0F
0F
0C
0C
0C
0C
ENDCHAR
STARTCHAR LATIN
ENCODING 356
SWIDTH 543 0
DWIDTH 12 0
BBX 10 18 0 0
BITMAP
3300
3300
0C00
0C00
0000
0000
FFC0
FFC0
0C00
0C00
0C00
0C00
0C00
0C00
0C00
0C00
0C00
0C00
ENDCHAR
STARTCHAR LATIN
ENCODING 357
SWIDTH 543 0
DWIDTH 12 0
BBX 10 18 2 0
BITMAP
03C0
03C0
00C0
00C0
3000
3000
3000
3000
FC00
FC00
3000
3000
3000
3000
3000
3000
0F00
0F00
ENDCHAR
STARTCHAR LATIN
ENCODING 358
SWIDTH 543 0
DWIDTH 12 0
BBX 10 14 0 0
BITMAP
FFC0
FFC0
0C00
0C00
0C00
0C00
3F00
3F00
0C00
0C00
0C00
0C00
0C00
0C00
ENDCHAR
STARTCHAR LATIN
ENCODING 359
SWIDTH 543 0
DWIDTH 12 0
BBX 8 14 2 0
BITMAP
30
30
30
30
FC
FC
30
30
FC
FC
30
30
0F
0F
ENDCHAR
STARTCHAR LATIN
ENCODING 360
SWIDTH 543 0
DWIDTH 12 0
BBX 10 18 0 0
BITMAP
3CC0
3CC0
CF00
CF00
0000
0000
C0C0
C0C0
C0C0
C0C0
C0C0
C0C0
C0C0
C0C0
C0C0
C0C0
3F00
3F00
ENDCHAR
STARTCHAR LATIN
ENCODING 361
SWIDTH 543 0
DWIDTH 12 0
BBX 10 16 0 0
BITMAP
3CC0
3CC0
CF00
CF00
0000
0000
C0C0
C0C0
C0C0
C0C0
C0C0
C0C0
C3C0
C3C0
3CC0
3CC0
ENDCHAR
STARTCHAR LATIN
ENCODING 362
SWIDTH 543 0
DWIDTH 12 0
BBX 10 18 0 0
BITMAP
3F00
3F00
0000
0000
C0C0
C0C0
C0C0
C0C0
C0C0
C0C0
C0C0
C0C0
C0C0
C0C0
C0C0
C0C0
3F00
3F00
ENDCHAR
STARTCHAR LATIN
ENCODING 363
SWIDTH 543 0
DWIDTH 12 0
BBX 10 14 0 0
BITMAP
3F00
3F00
0000
0000
C0C0
C0C0
C0C0
C0C0
C0C0
C0C0
C3C0
C3C0
3CC0
3CC0
ENDCHAR
STARTCHAR LATIN
ENCODING 364
SWIDTH 543 0
DWIDTH 12 0
BBX 10 18 0 0
BITMAP
C0C0
C0C0
3F00
3F00
0000
0000
C0C0
C0C0
C0C0
C0C0
C0C0
C0C0
C0C0
C0C0
C0C0
C0C0
3F00
3F00
ENDCHAR
STARTCHAR LATIN
ENCODING 365
SWIDTH 543 0
DWIDTH 12 0
BBX 10 16 0 0
BITMAP
C0C0
C0C0
3F00
3F00
0000
0000
C0C0
C0C0
C0C0
C0C0
C0C0
C0C0
C3C0
C3C0
3CC0
3CC0
ENDCHAR
STARTCHAR LATIN
ENCODING 366
SWIDTH 543 0
DWIDTH 12 0
BBX 10 16 0 0
BITMAP
0C00
0C00
3300
3300
0C00
0C00
C0C0
C0C0
C0C0
C0C0
C0C0
C0C0
C0C0
C0C0
3F00
3F00
ENDCHAR
STARTCHAR LATIN
ENCODING 367
SWIDTH 543 0
DWIDTH 12 0
BBX 10 16 0 0
BITMAP
0C00
0C00
3300
3300
0C00
0C00
C0C0
C0C0
C0C0
C0C0
C0C0
C0C0
C3C0
C3C0
3CC0
3CC0
ENDCHAR
STARTCHAR LATIN
ENCODING 368
SWIDTH 543 0
DWIDTH 12 0
BBX 10 18 0 0
BITMAP
0CC0
0CC0
3300
3300
0000
0000
C0C0
C0C0
C0C0
C0C0
C0C0
C0C0
C0C0
C0C0
C0C0
C0C0
3F00
3F00
ENDCHAR
STARTCHAR LATIN
ENCODING 369
SWIDTH 543 0
DWIDTH 12 0
BBX 10 16 0 0
BITMAP
0CC0
0CC0
3300
3300
0000
0000
C0C0
C0C0
C0C0
C0C0
C0C0
C0C0
C3C0
C3C0
3CC0
3CC0
ENDCHAR
STARTCHAR LATIN
ENCODING 370
SWIDTH 543 0
DWIDTH 12 0
BBX 10 18 0 -4
BITMAP
C0C0
C0C0
C0C0
C0C0
C0C0
C0C0
C0C0
C0C0
C0C0
C0C0
C0C0
C0C0
3F00
3F00
0C00
0C00
0300
0300
ENDCHAR
STARTCHAR LATIN
ENCODING 371
SWIDTH 543 0
DWIDTH 12 0
BBX 10 14 0 -4
BITMAP
C0C0
C0C0
C0C0
C0C0
C0C0
C0C0
C3C0
C3C0
3CC0
3CC0
0C00
0C00
0300
0300
ENDCHAR
STARTCHAR LATIN
ENCODING 372
SWIDTH 543 0
DWIDTH 12 0
BBX 10 18 0 0
BITMAP
0C00
0C00
3300
3300
0000
0000
C0C0
C0C0
C0C0
C0C0
C0C0
C0C0
CCC0
CCC0
F3C0
F3C0
C0C0
C0C0
ENDCHAR
STARTCHAR LATIN
ENCODING 373
SWIDTH 543 0
DWIDTH 12 0
BBX 10 16 0 0
BITMAP
0C00
0C00
3300
3300
0000
0000
C0C0
C0C0
CCC0
CCC0
CCC0
CCC0
CCC0
CCC0
3300
3300
ENDCHAR
STARTCHAR LATIN
ENCODING 374
SWIDTH 543 0
DWIDTH 12 0
BBX 10 18 0 0
BITMAP
0C00
0C00
3300
3300
0000
0000
C0C0
C0C0
C0C0
C0C0
C0C0
C0C0
3300
3300
0C00
0C00
0C00
0C00
ENDCHAR
STARTCHAR LATIN
ENCODING 375
SWIDTH 543 0
DWIDTH 12 0
BBX 10 20 0 -4
BITMAP
0C00
0C00
3300
3300
0000
0000
C0C0
C0C0
C0C0
C0C0
C0C0
C0C0
C0C0
C0C0
3FC0
3FC0
00C0
00C0
3F00
3F00
ENDCHAR
STARTCHAR LATIN
ENCODING 376
SWIDTH 543 0
DWIDTH 12 0
BBX 10 18 0 0
BITMAP
3300
3300
0000
0000
C0C0
C0C0
C0C0
C0C0
C0C0
C0C0
3300
3300
0C00
0C00
0C00
0C00
0C00
0C00
ENDCHAR
STARTCHAR LATIN
ENCODING 377
SWIDTH 543 0
DWIDTH 12 0
BBX 10 18 0 0
BITMAP
0300
0300
0C00
0C00
FFC0
FFC0
00C0
00C0
0300
0300
0C00
0C00
3000
3000
C000
C000
FFC0
FFC0
ENDCHAR
STARTCHAR LATIN
ENCODING 378
SWIDTH 543 0
DWIDTH 12 0
BBX 10 16 0 0
BITMAP
0300
0300
0C00
0C00
0000
0000
FFC0
FFC0
0300
0300
0C00
0C00
3000
3000
FFC0
FFC0
ENDCHAR
STARTCHAR LATIN
ENCODING 379
SWIDTH 543 0
DWIDTH 12 0
BBX 10 18 0 0
BITMAP
0C00
0C00
0000
0000
FFC0
FFC0
00C0
00C0
0300
0300
0C00
0C00
3000
3000
C000
C000
FFC0
FFC0
ENDCHAR
STARTCHAR LATIN
ENCODING 380
SWIDTH 543 0
DWIDTH 12 0
BBX 10 14 0 0
BITMAP
0C00
0C00
0000
0000
FFC0
FFC0
0300
0300
0C00
0C00
3000
3000
FFC0
FFC0
ENDCHAR
STARTCHAR LATIN
ENCODING 381
SWIDTH 543 0
DWIDTH 12 0
BBX 10 18 0 0
BITMAP
3300
3300
0C00
0C00
FFC0
FFC0
00C0
00C0
0300
0300
0C00
0C00
3000
3000
C000
C000
FFC0
FFC0
ENDCHAR
STARTCHAR LATIN
ENCODING 382
SWIDTH 543 0
DWIDTH 12 0
BBX 10 16 0 0
BITMAP
3300
3300
0C00
0C00
0000
0000
FFC0
FFC0
0300
0300
0C00
0C00
3000
3000
FFC0
FFC0
ENDCHAR
STARTCHAR LATIN
ENCODING 383
SWIDTH 543 0
DWIDTH 12 0
BBX 8 14 2 0
BITMAP
0F
0F
30
30
F0
F0
30
30
30
30
30
30
30
30
ENDCHAR
STARTCHAR LATIN
ENCODING 384
SWIDTH 543 0
DWIDTH 12 0
BBX 12 14 0 0
BITMAP
FF00
FF00
3000
3000
3FC0
3FC0
3030
3030
3030
3030
3030
3030
3FC0
3FC0
ENDCHAR
STARTCHAR LATIN
ENCODING 385
SWIDTH 543 0
DWIDTH 12 0
BBX 12 14 0 0
BITMAP
FFC0
FFC0
3030
3030
3030
3030
3FC0
3FC0
3030
3030
3030
3030
3FC0
3FC0
ENDCHAR
STARTCHAR LATIN
ENCODING 386
SWIDTH 543 0
DWIDTH 12 0
BBX 12 16 0 0
BITMAP
FFC0
FFC0
C0C0
C0C0
C000
C000
FFC0
FFC0
C030
C030
C030
C030
C030
C030
FFC0
FFC0
ENDCHAR
STARTCHAR LATIN
ENCODING 387
SWIDTH 543 0
DWIDTH 12 0
BBX 10 16 0 0
BITMAP
FF00
FF00
C300
C300
C000
C000
FF00
FF00
C0C0
C0C0
C0C0
C0C0
C0C0
C0C0
FF00
FF00
ENDCHAR
STARTCHAR LATIN
ENCODING 388
SWIDTH 543 0
DWIDTH 12 0
BBX 12 16 0 0
BITMAP
3000
3000
F000
F000
F000
F000
3FC0
3FC0
3030
3030
3030
3030
3030
3030
3FC0
3FC0
ENDCHAR
STARTCHAR LATIN
ENCODING 389
SWIDTH 543 0
DWIDTH 12 0
BBX 10 16 0 0
BITMAP
3000
3000
F000
F000
F000
F000
3F00
3F00
30C0
30C0
30C0
30C0
30C0
30C0
3F00
3F00
ENDCHAR
STARTCHAR LATIN
ENCODING 390
SWIDTH 543 0
DWIDTH 12 0
BBX 10 14 0 0
BITMAP
3F00
3F00
C0C0
C0C0
00C0
00C0
00C0
00C0
00C0
00C0
C0C0
C0C0
3F00
3F00
ENDCHAR
STARTCHAR LATIN
ENCODING 391
SWIDTH 543 0
DWIDTH 12 0
BBX 12 14 0 0
BITMAP
3F30
3F30
C0C0
C0C0
C000
C000
C000
C000
C000
C000
C0C0
C0C0
3F00
3F00
ENDCHAR
STARTCHAR LATIN
ENCODING 392
SWIDTH 543 0
DWIDTH 12 0
BBX 12 14 0 0
BITMAP
00F0
00F0
0300
0300
3F00
3F00
C0C0
C0C0
C000
C000
C000
C000
3FC0
3FC0
ENDCHAR
STARTCHAR LATIN
ENCODING 393
SWIDTH 543 0
DWIDTH 12 0
BBX 12 14 0 0
BITMAP
3FC0
3FC0
3030
3030
3030
3030
FF30
FF30
3030
3030
3030
3030
3FC0
3FC0
ENDCHAR
STARTCHAR LATIN
ENCODING 394
SWIDTH 543 0
DWIDTH 12 0
BBX 12 14 0 0
BITMAP
3FC0
3FC0
CC30
CC30
0C30
0C30
0C30
0C30
0C30
0C30
0C30
0C30
0FC0
0FC0
ENDCHAR
STARTCHAR LATIN
ENCODING 395
SWIDTH 543 0
DWIDTH 12 0
BBX 12 16 0 0
BITMAP
3FF0
3FF0
3030
3030
0030
0030
3FF0
3FF0
C030
C030
C030
C030
C030
C030
3FF0
3FF0
ENDCHAR
STARTCHAR LATIN
ENCODING 396
SWIDTH 543 0
DWIDTH 12 0
BBX 10 16 0 0
BITMAP
3FC0
3FC0
30C0
30C0
00C0
00C0
3FC0
3FC0
C0C0
C0C0
C0C0
C0C0
C0C0
C0C0
3FC0
3FC0
ENDCHAR
STARTCHAR LATIN
ENCODING 397
SWIDTH 543 0
DWIDTH 12 0
BBX 10 16 0 0
BITMAP
3F00
3F00
C0C0
C0C0
C0C0
C0C0
C0C0
C0C0
3F00
3F00
0C00
0C00
0300
0300
FFC0
FFC0
ENDCHAR
STARTCHAR LATIN
ENCODING 398
SWIDTH 543 0
DWIDTH 12 0
BBX 10 14 0 0
BITMAP
FFC0
FFC0
C0C0
C0C0
C0C0
C0C0
3FC0
3FC0
00C0
00C0
00C0
00C0
FFC0
FFC0
ENDCHAR
STARTCHAR LATIN
ENCODING 399
SWIDTH 543 0
DWIDTH 12 0
BBX 10 14 0 0
BITMAP
3F00
3F00
C0C0
C0C0
00C0
00C0
FFC0
FFC0
C0C0
C0C0
C0C0
C0C0
3F00
3F00
ENDCHAR
STARTCHAR LATIN
ENCODING 400
SWIDTH 543 0
DWIDTH 12 0
BBX 10 14 0 0
BITMAP
3F00
3F00
C0C0
C0C0
C000
C000
3F00
3F00
C000
C000
C0C0
C0C0
3F00
3F00
ENDCHAR
STARTCHAR LATIN
ENCODING 401
SWIDTH 543 0
DWIDTH 12 0
BBX 12 18 0 -4
BITMAP
3FF0
3FF0
3000
3000
3000
3000
3FC0
3FC0
3000
3000
3000
3000
3000
3000
3000
3000
C000
C000
ENDCHAR
STARTCHAR LATIN
ENCODING 402
SWIDTH 543 0
DWIDTH 12 0
BBX 10 20 0 -2
BITMAP
03C0
03C0
0C00
0C00
0C00
0C00
0C00
0C00
3F00
3F00
0C00
0C00
0C00
0C00
0C00
0C00
0C00
0C00
F000
F000
ENDCHAR
STARTCHAR LATIN
ENCODING 403
SWIDTH 543 0
DWIDTH 12 0
BBX 12 14 0 0
BITMAP
3CC0
3CC0
C330
C330
C000
C000
C3C0
C3C0
C0C0
C0C0
C0C0
C0C0
3F00
3F00
ENDCHAR
STARTCHAR LATIN
ENCODING 404
SWIDTH 543 0
DWIDTH 12 0
BBX 10 18 0 -4
BITMAP
C0C0
C0C0
C0C0
C0C0
C0C0
C0C0
3300
3300
3300
3300
0C00
0C00
3300
3300
3300
3300
0C00
0C00
ENDCHAR
STARTCHAR LATIN
ENCODING 405
SWIDTH 543 0
DWIDTH 12 0
BBX 10 14 0 0
BITMAP
C000
C000
C000
C000
C000
C000
F0C0
F0C0
CCC0
CCC0
CCC0
CCC0
C300
C300
ENDCHAR
STARTCHAR LATIN
ENCODING 406
SWIDTH 543 0
DWIDTH 12 0
BBX 6 14 2 0
BITMAP
C0
C0
C0
C0
C0
C0
C0
C0
C0
C0
CC
CC
30
30
ENDCHAR
STARTCHAR LATIN
ENCODING 407
SWIDTH 543 0
DWIDTH 12 0
BBX 6 14 2 0
BITMAP
FC
FC
30
30
30
30
FC
FC
30
30
30
30
FC
FC
ENDCHAR
STARTCHAR LATIN
ENCODING 408
SWIDTH 543 0
DWIDTH 12 0
BBX 12 14 0 0
BITMAP
C0C0
C0C0
C330
C330
CC00
CC00
F000
F000
CC00
CC00
C300
C300
C0C0
C0C0
ENDCHAR
STARTCHAR LATIN
ENCODING 409
SWIDTH 543 0
DWIDTH 12 0
BBX 10 16 0 0
BITMAP
3C00
3C00
C000
C000
C000
C000
C300
C300
CC00
CC00
FC00
FC00
C300
C300
C0C0
C0C0
ENDCHAR
STARTCHAR LATIN
ENCODING 410
SWIDTH 543 0
DWIDTH 12 0
BBX 6 14 2 0
BITMAP
F0
F0
30
30
30
30
FC
FC
30
30
30
30
3C
3C
ENDCHAR
STARTCHAR LATIN
ENCODING 411
SWIDTH 543 0
DWIDTH 12 0
BBX 10 16 0 0
BITMAP
3000
3000
3000
3000
FC00
FC00
0C00
0C00
3300
3300
3300
3300
C0C0
C0C0
C0C0
C0C0
ENDCHAR
STARTCHAR LATIN
ENCODING 412
SWIDTH 543 0
DWIDTH 12 0
BBX 10 10 0 0
BITMAP
CCC0
CCC0
CCC0
CCC0
CCC0
CCC0
CCC0
CCC0
3FC0
3FC0
ENDCHAR
STARTCHAR LATIN
ENCODING 413
SWIDTH 543 0
DWIDTH 12 0
BBX 12 16 0 -2
BITMAP
3C30
3C30
3C30
3C30
3330
3330
3330
3330
3330
3330
30F0
30F0
30F0
30F0
C000
C000
ENDCHAR
STARTCHAR LATIN
ENCODING 414
SWIDTH 543 0
DWIDTH 12 0
BBX 10 14 0 -4
BITMAP
CF00
CF00
F0C0
F0C0
C0C0
C0C0
C0C0
C0C0
C0C0
C0C0
00C0
00C0
0300
0300
ENDCHAR
STARTCHAR LATIN
ENCODING 415
SWIDTH 543 0
DWIDTH 12 0
BBX 10 10 0 2
BITMAP
3F00
3F00
C0C0
C0C0
FFC0
FFC0
C0C0
C0C0
3F00
3F00
ENDCHAR
STARTCHAR LATIN
ENCODING 416
SWIDTH 543 0
DWIDTH 12 0
BBX 12 18 0 0
BITMAP
0030
0030
0030
0030
3F30
3F30
C0C0
C0C0
C0C0
C0C0
C0C0
C0C0
C0C0
C0C0
C0C0
C0C0
3F00
3F00
ENDCHAR
STARTCHAR LATIN
ENCODING 417
SWIDTH 543 0
DWIDTH 12 0
BBX 10 14 0 0
BITMAP
00C0
00C0
00C0
00C0
3F00
3F00
C0C0
C0C0
C0C0
C0C0
C0C0
C0C0
3F00
3F00
ENDCHAR
STARTCHAR LATIN
ENCODING 418
SWIDTH 543 0
DWIDTH 12 0
BBX 12 14 0 0
BITMAP
3CC0
3CC0
C330
C330
C330
C330
C330
C330
C330
C330
C330
C330
3C30
3C30
ENDCHAR
STARTCHAR LATIN
ENCODING 419
SWIDTH 543 0
DWIDTH 12 0
BBX 12 10 0 0
BITMAP
3CC0
3CC0
C330
C330
C330
C330
C330
C330
3C30
3C30
ENDCHAR
STARTCHAR LATIN
ENCODING 420
SWIDTH 543 0
DWIDTH 12 0
BBX 12 14 0 0
BITMAP
3FC0
3FC0
CC30
CC30
0C30
0C30
0FC0
0FC0
0C00
0C00
0C00
0C00
0C00
0C00
ENDCHAR
STARTCHAR LATIN
ENCODING 421
SWIDTH 543 0
DWIDTH 12 0
BBX 12 18 0 -4
BITMAP
00C0
00C0
0330
0330
FF00
FF00
C0C0
C0C0
C0C0
C0C0
C0C0
C0C0
FF00
FF00
C000
C000
C000
C000
ENDCHAR
STARTCHAR LATIN
ENCODING 422
SWIDTH 543 0
DWIDTH 12 0
BBX 10 18 0 -2
BITMAP
C000
C000
C000
C000
FF00
FF00
C0C0
C0C0
C0C0
C0C0
FF00
FF00
CC00
CC00
C300
C300
00C0
00C0
ENDCHAR
STARTCHAR LATIN
ENCODING 423
SWIDTH 543 0
DWIDTH 12 0
BBX 10 14 0 0
BITMAP
3F00
3F00
C0C0
C0C0
00C0
00C0
3F00
3F00
C000
C000
C0C0
C0C0
3F00
3F00
ENDCHAR
STARTCHAR LATIN
ENCODING 424
SWIDTH 543 0
DWIDTH 12 0
BBX 10 10 0 0
BITMAP
FF00
FF00
00C0
00C0
3F00
3F00
C000
C000
3FC0
3FC0
ENDCHAR
STARTCHAR LATIN
ENCODING 425
SWIDTH 543 0
DWIDTH 12 0
BBX 10 14 0 0
BITMAP
FFC0
FFC0
C000
C000
3000
3000
0C00
0C00
3000
3000
C000
C000
FFC0
FFC0
ENDCHAR
STARTCHAR LATIN
ENCODING 426
SWIDTH 543 0
DWIDTH 12 0
BBX 10 18 0 -2
BITMAP
3000
3000
CC00
CC00
3C00
3C00
0C00
0C00
0C00
0C00
0C00
0C00
0C00
0C00
0C00
0C00
03C0
03C0
ENDCHAR
STARTCHAR LATIN
ENCODING 427
SWIDTH 543 0
DWIDTH 12 0
BBX 10 18 0 -4
BITMAP
3000
3000
3000
3000
FF00
FF00
3000
3000
3000
3000
3000
3000
0F00
0F00
00C0
00C0
0F00
0F00
ENDCHAR
STARTCHAR LATIN
ENCODING 428
SWIDTH 543 0
DWIDTH 12 0
BBX 10 14 0 0
BITMAP
FFC0
FFC0
0CC0
0CC0
0C00
0C00
0C00
0C00
0C00
0C00
0C00
0C00
0C00
0C00
ENDCHAR
STARTCHAR LATIN
ENCODING 429
SWIDTH 543 0
DWIDTH 12 0
BBX 8 16 2 0
BITMAP
0F
0F
30
30
30
30
FF
FF
30
30
30
30
30
30
0F
0F
ENDCHAR
STARTCHAR LATIN
ENCODING 430
SWIDTH 543 0
DWIDTH 12 0
BBX 10 14 0 0
BITMAP
FFC0
FFC0
CCC0
CCC0
0C00
0C00
0C00
0C00
0C00
0C00
0C00
0C00
0C00
0C00
ENDCHAR
STARTCHAR LATIN
ENCODING 431
SWIDTH 543 0
DWIDTH 12 0
BBX 12 18 0 0
BITMAP
0030
0030
0030
0030
C0C0
C0C0
C0C0
C0C0
C0C0
C0C0
C0C0
C0C0
C0C0
C0C0
C0C0
C0C0
3F00
3F00
ENDCHAR
STARTCHAR LATIN
ENCODING 432
SWIDTH 543 0
DWIDTH 12 0
BBX 12 14 0 0
BITMAP
0030
0030
0030
0030
C0C0
C0C0
C0C0
C0C0
C0C0
C0C0
C3C0
C3C0
3CC0
3CC0
ENDCHAR
STARTCHAR LATIN
ENCODING 433
SWIDTH 543 0
DWIDTH 12 0
BBX 10 14 0 0
BITMAP
F3C0
F3C0
3300
3300
C0C0
C0C0
C0C0
C0C0
C0C0
C0C0
C0C0
C0C0
3F00
3F00
ENDCHAR
STARTCHAR LATIN
ENCODING 434
SWIDTH 543 0
DWIDTH 12 0
BBX 10 14 0 0
BITMAP
C300
C300
C0C0
C0C0
C0C0
C0C0
C0C0
C0C0
C0C0
C0C0
C0C0
C0C0
3F00
3F00
ENDCHAR
STARTCHAR LATIN
ENCODING 435
SWIDTH 543 0
DWIDTH 12 0
BBX 12 16 0 0
BITMAP
0030
0030
C0C0
C0C0
C0C0
C0C0
C0C0
C0C0
3300
3300
0C00
0C00
0C00
0C00
0C00
0C00
ENDCHAR
STARTCHAR LATIN
ENCODING 436
SWIDTH 543 0
DWIDTH 12 0
BBX 12 16 0 -4
BITMAP
0030
0030
C0C0
C0C0
C0C0
C0C0
C0C0
C0C0
C0C0
C0C0
3FC0
3FC0
00C0
00C0
3F00
3F00
ENDCHAR
STARTCHAR LATIN
ENCODING 437
SWIDTH 543 0
DWIDTH 12 0
BBX 10 14 0 0
BITMAP
FFC0
FFC0
00C0
00C0
0300
0300
FFC0
FFC0
3000
3000
C000
C000
FFC0
FFC0
ENDCHAR
STARTCHAR LATIN
ENCODING 438
SWIDTH 543 0
DWIDTH 12 0
BBX 10 10 0 0
BITMAP
FFC0
FFC0
0300
0300
FFC0
FFC0
3000
3000
FFC0
FFC0
ENDCHAR
STARTCHAR LATIN
ENCODING 439
SWIDTH 543 0
DWIDTH 12 0
BBX 10 14 0 0
BITMAP
FFC0
FFC0
0300
0300
0C00
0C00
0300
0300
00C0
00C0
C0C0
C0C0
3F00
3F00
ENDCHAR
STARTCHAR LATIN
ENCODING 440
SWIDTH 543 0
DWIDTH 12 0
BBX 10 14 0 0
BITMAP
FFC0
FFC0
3000
3000
0C00
0C00
3000
3000
C000
C000
C0C0
C0C0
3F00
3F00
ENDCHAR
STARTCHAR LATIN
ENCODING 441
SWIDTH 543 0
DWIDTH 12 0
BBX 10 14 0 -4
BITMAP
FFC0
FFC0
3000
3000
0C00
0C00
3000
3000
C000
C000
C0C0
C0C0
3F00
3F00
ENDCHAR
STARTCHAR LATIN
ENCODING 442
SWIDTH 543 0
DWIDTH 12 0
BBX 12 16 0 -6
BITMAP
FFC0
FFC0
0300
0300
0C00
0C00
0300
0300
00C0
00C0
3F00
3F00
C030
C030
3FC0
3FC0
ENDCHAR
STARTCHAR LATIN
ENCODING 443
SWIDTH 543 0
DWIDTH 12 0
BBX 10 14 0 0
BITMAP
3F00
3F00
C0C0
C0C0
00C0
00C0
FFC0
FFC0
0C00
0C00
3000
3000
FFC0
FFC0
ENDCHAR
STARTCHAR LATIN
ENCODING 444
SWIDTH 543 0
DWIDTH 12 0
BBX 10 14 0 0
BITMAP
FFC0
FFC0
3000
3000
3F00
3F00
00C0
00C0
00C0
00C0
C0C0
C0C0
3F00
3F00
ENDCHAR
STARTCHAR LATIN
ENCODING 445
SWIDTH 543 0
DWIDTH 12 0
BBX 10 12 0 0
BITMAP
FFC0
FFC0
3000
3000
3F00
3F00
00C0
00C0
C0C0
C0C0
3F00
3F00
ENDCHAR
STARTCHAR LATIN
ENCODING 446
SWIDTH 543 0
DWIDTH 12 0
BBX 10 14 0 2
BITMAP
0C00
0C00
3F00
3F00
0C00
0C00
0300
0300
00C0
00C0
C0C0
C0C0
3F00
3F00
ENDCHAR
STARTCHAR LATIN
ENCODING 447
SWIDTH 543 0
DWIDTH 12 0
BBX 8 14 0 0
BITMAP
CC
CC
F3
F3
C3
C3
CC
CC
F0
F0
C0
C0
C0
C0
ENDCHAR
STARTCHAR LATIN
ENCODING 448
SWIDTH 543 0
DWIDTH 12 0
BBX 2 20 4 -4
BITMAP
C0
C0
C0
C0
C0
C0
C0
C0
C0
C0
C0
C0
C0
C0
C0
C0
C0
C0
C0
C0
ENDCHAR
STARTCHAR LATIN
ENCODING 449
SWIDTH 543 0
DWIDTH 12 0
BBX 6 20 0 -4
BITMAP
CC
CC
CC
CC
CC
CC
CC
CC
CC
CC
CC
CC
CC
CC
CC
CC
CC
CC
CC
CC
ENDCHAR
STARTCHAR LATIN
ENCODING 450
SWIDTH 543 0
DWIDTH 12 0
BBX 10 20 0 -4
BITMAP
0C00
0C00
0C00
0C00
0C00
0C00
FFC0
FFC0
0C00
0C00
0C00
0C00
FFC0
FFC0
0C00
0C00
0C00
0C00
0C00
0C00
ENDCHAR
STARTCHAR LATIN
ENCODING 451
SWIDTH 543 0
DWIDTH 12 0
BBX 2 14 4 0
BITMAP
C0
C0
C0
C0
C0
C0
C0
C0
C0
C0
00
00
C0
C0
ENDCHAR
STARTCHAR LATIN
ENCODING 452
SWIDTH 543 0
DWIDTH 12 0
BBX 12 18 0 0
BITMAP
0330
0330
00C0
00C0
F000
F000
CFF0
CFF0
CC30
CC30
CCC0
CCC0
CCC0
CCC0
CF00
CF00
F3F0
F3F0
ENDCHAR
STARTCHAR LATIN
ENCODING 453
SWIDTH 543 0
DWIDTH 12 0
BBX 12 16 0 0
BITMAP
0330
0330
F0C0
F0C0
CC00
CC00
CFF0
CFF0
CC30
CC30
CCC0
CCC0
CF00
CF00
F3F0
F3F0
ENDCHAR
STARTCHAR LATIN
ENCODING 454
SWIDTH 543 0
DWIDTH 12 0
BBX 12 18 0 0
BITMAP
0C00
0C00
0F30
0F30
0CC0
0CC0
0C00
0C00
3FF0
3FF0
CC30
CC30
CCC0
CCC0
CF00
CF00
3FF0
3FF0
ENDCHAR
STARTCHAR LATIN
ENCODING 455
SWIDTH 543 0
DWIDTH 12 0
BBX 10 14 0 0
BITMAP
C0C0
C0C0
C0C0
C0C0
C0C0
C0C0
C0C0
C0C0
C0C0
C0C0
CCC0
CCC0
F300
F300
ENDCHAR
STARTCHAR LATIN
ENCODING 456
SWIDTH 543 0
DWIDTH 12 0
BBX 10 18 0 -4
BITMAP
C0C0
C0C0
C000
C000
C3C0
C3C0
C0C0
C0C0
C0C0
C0C0
C0C0
C0C0
FCC0
FCC0
00C0
00C0
0F00
0F00
ENDCHAR
STARTCHAR LATIN
ENCODING 457
SWIDTH 543 0
DWIDTH 12 0
BBX 10 18 0 -4
BITMAP
F0C0
F0C0
3000
3000
33C0
33C0
30C0
30C0
30C0
30C0
30C0
30C0
3CC0
3CC0
00C0
00C0
0F00
0F00
ENDCHAR
STARTCHAR LATIN
ENCODING 458
SWIDTH 543 0
DWIDTH 12 0
BBX 10 14 0 0
BITMAP
CCC0
CCC0
CCC0
CCC0
FCC0
FCC0
FCC0
FCC0
FCC0
FCC0
CCC0
CCC0
CF00
CF00
ENDCHAR
STARTCHAR LATIN
ENCODING 459
SWIDTH 543 0
DWIDTH 12 0
BBX 10 18 0 -4
BITMAP
CCC0
CCC0
CC00
CC00
FFC0
FFC0
FCC0
FCC0
FCC0
FCC0
CCC0
CCC0
CCC0
CCC0
00C0
00C0
0F00
0F00
ENDCHAR
STARTCHAR LATIN
ENCODING 460
SWIDTH 543 0
DWIDTH 12 0
BBX 10 18 0 -4
BITMAP
00C0
00C0
0000
0000
F3C0
F3C0
CCC0
CCC0
CCC0
CCC0
CCC0
CCC0
CCC0
CCC0
00C0
00C0
0F00
0F00
ENDCHAR
STARTCHAR LATIN
ENCODING 461
SWIDTH 543 0
DWIDTH 12 0
BBX 10 18 0 0
BITMAP
3300
3300
0C00
0C00
3F00
3F00
C0C0
C0C0
C0C0
C0C0
FFC0
FFC0
C0C0
C0C0
C0C0
C0C0
C0C0
C0C0
ENDCHAR
STARTCHAR LATIN
ENCODING 462
SWIDTH 543 0
DWIDTH 12 0
BBX 10 16 0 0
BITMAP
3300
3300
0C00
0C00
0000
0000
3FC0
3FC0
C0C0
C0C0
C0C0
C0C0
C3C0
C3C0
3CC0
3CC0
ENDCHAR
STARTCHAR LATIN
ENCODING 463
SWIDTH 543 0
DWIDTH 12 0
BBX 6 18 2 0
BITMAP
CC
CC
30
30
00
00
FC
FC
30
30
30
30
30
30
30
30
FC
FC
ENDCHAR
STARTCHAR LATIN
ENCODING 464
SWIDTH 543 0
DWIDTH 12 0
BBX 6 16 2 0
BITMAP
CC
CC
30
30
00
00
F0
F0
30
30
30
30
30
30
3C
3C
ENDCHAR
STARTCHAR LATIN
ENCODING 465
SWIDTH 543 0
DWIDTH 12 0
BBX 10 18 0 0
BITMAP
3300
3300
0C00
0C00
3F00
3F00
C0C0
C0C0
C0C0
C0C0
C0C0
C0C0
C0C0
C0C0
C0C0
C0C0
3F00
3F00
ENDCHAR
STARTCHAR LATIN
ENCODING 466
SWIDTH 543 0
DWIDTH 12 0
BBX 10 16 0 0
BITMAP
3300
3300
0C00
0C00
0000
0000
3F00
3F00
C0C0
C0C0
C0C0
C0C0
C0C0
C0C0
3F00
3F00
ENDCHAR
STARTCHAR LATIN
ENCODING 467
SWIDTH 543 0
DWIDTH 12 0
BBX 10 18 0 0
BITMAP
3300
3300
0C00
0C00
C0C0
C0C0
C0C0
C0C0
C0C0
C0C0
C0C0
C0C0
C0C0
C0C0
C0C0
C0C0
3F00
3F00
ENDCHAR
STARTCHAR LATIN
ENCODING 468
SWIDTH 543 0
DWIDTH 12 0
BBX 10 16 0 0
BITMAP
3300
3300
0C00
0C00
0000
0000
C0C0
C0C0
C0C0
C0C0
C0C0
C0C0
C3C0
C3C0
3CC0
3CC0
ENDCHAR
STARTCHAR LATIN
ENCODING 469
SWIDTH 543 0
DWIDTH 12 0
BBX 10 18 0 0
BITMAP
3F00
3F00
0000
0000
3300
3300
C0C0
C0C0
C0C0
C0C0
C0C0
C0C0
C0C0
C0C0
C0C0
C0C0
3F00
3F00
ENDCHAR
STARTCHAR LATIN
ENCODING 470
SWIDTH 543 0
DWIDTH 12 0
BBX 10 18 0 0
BITMAP
3F00
3F00
0000
0000
3300
3300
0000
0000
C0C0
C0C0
C0C0
C0C0
C0C0
C0C0
C3C0
C3C0
3CC0
3CC0
ENDCHAR
STARTCHAR LATIN
ENCODING 471
SWIDTH 543 0
DWIDTH 12 0
BBX 10 18 0 0
BITMAP
0300
0300
0C00
0C00
F3C0
F3C0
C0C0
C0C0
C0C0
C0C0
C0C0
C0C0
C0C0
C0C0
C0C0
C0C0
3F00
3F00
ENDCHAR
STARTCHAR LATIN
ENCODING 472
SWIDTH 543 0
DWIDTH 12 0
BBX 10 18 0 0
BITMAP
0300
0300
0C00
0C00
3300
3300
0000
0000
C0C0
C0C0
C0C0
C0C0
C0C0
C0C0
C3C0
C3C0
3CC0
3CC0
ENDCHAR
STARTCHAR LATIN
ENCODING 473
SWIDTH 543 0
DWIDTH 12 0
BBX 10 18 0 0
BITMAP
3300
3300
0C00
0C00
F3C0
F3C0
C0C0
C0C0
C0C0
C0C0
C0C0
C0C0
C0C0
C0C0
C0C0
C0C0
3F00
3F00
ENDCHAR
STARTCHAR LATIN
ENCODING 474
SWIDTH 543 0
DWIDTH 12 0
BBX 10 18 0 0
BITMAP
3300
3300
0C00
0C00
3300
3300
0000
0000
C0C0
C0C0
C0C0
C0C0
C0C0
C0C0
C3C0
C3C0
3CC0
3CC0
ENDCHAR
STARTCHAR LATIN
ENCODING 475
SWIDTH 543 0
DWIDTH 12 0
BBX 10 18 0 0
BITMAP
3000
3000
0C00
0C00
F3C0
F3C0
C0C0
C0C0
C0C0
C0C0
C0C0
C0C0
C0C0
C0C0
C0C0
C0C0
3F00
3F00
ENDCHAR
STARTCHAR LATIN
ENCODING 476
SWIDTH 543 0
DWIDTH 12 0
BBX 10 18 0 0
BITMAP
3000
3000
0C00
0C00
3300
3300
0000
0000
C0C0
C0C0
C0C0
C0C0
C0C0
C0C0
C3C0
C3C0
3CC0
3CC0
ENDCHAR
STARTCHAR LATIN
ENCODING 477
SWIDTH 543 0
DWIDTH 12 0
BBX 10 10 0 0
BITMAP
FF00
FF00
00C0
00C0
FFC0
FFC0
C0C0
C0C0
3F00
3F00
ENDCHAR
STARTCHAR LATIN
ENCODING 478
SWIDTH 543 0
DWIDTH 12 0
BBX 10 18 0 0
BITMAP
3F00
3F00
0000
0000
3300
3300
0000
0000
3F00
3F00
C0C0
C0C0
FFC0
FFC0
C0C0
C0C0
C0C0
C0C0
ENDCHAR
STARTCHAR LATIN
ENCODING 479
SWIDTH 543 0
DWIDTH 12 0
BBX 10 18 0 0
BITMAP
3F00
3F00
0000
0000
3300
3300
0000
0000
3FC0
3FC0
C0C0
C0C0
C0C0
C0C0
C3C0
C3C0
3CC0
3CC0
ENDCHAR
STARTCHAR LATIN
ENCODING 480
SWIDTH 543 0
DWIDTH 12 0
BBX 10 18 0 0
BITMAP
3F00
3F00
0000
0000
0C00
0C00
0000
0000
3F00
3F00
C0C0
C0C0
FFC0
FFC0
C0C0
C0C0
C0C0
C0C0
ENDCHAR
STARTCHAR LATIN
ENCODING 481
SWIDTH 543 0
DWIDTH 12 0
BBX 10 18 0 0
BITMAP
3F00
3F00
0000
0000
0C00
0C00
0000
0000
3FC0
3FC0
C0C0
C0C0
C0C0
C0C0
C3C0
C3C0
3CC0
3CC0
ENDCHAR
STARTCHAR LATIN
ENCODING 482
SWIDTH 543 0
DWIDTH 12 0
BBX 10 18 0 0
BITMAP
3F00
3F00
0000
0000
3FC0
3FC0
CC00
CC00
CC00
CC00
FF00
FF00
CC00
CC00
CC00
CC00
CFC0
CFC0
ENDCHAR
STARTCHAR LATIN
ENCODING 483
SWIDTH 543 0
DWIDTH 12 0
BBX 10 14 0 0
BITMAP
3F00
3F00
0000
0000
3F00
3F00
CCC0
CCC0
CFC0
CFC0
CC00
CC00
3FC0
3FC0
ENDCHAR
STARTCHAR LATIN
ENCODING 484
SWIDTH 543 0
DWIDTH 12 0
BBX 10 14 0 0
BITMAP
3F00
3F00
C0C0
C0C0
C000
C000
C3C0
C3C0
C3C0
C3C0
C0C0
C0C0
3F00
3F00
ENDCHAR
STARTCHAR LATIN
ENCODING 485
SWIDTH 543 0
DWIDTH 12 0
BBX 10 14 0 -4
BITMAP
3FC0
3FC0
C0C0
C0C0
C0C0
C0C0
C0C0
C0C0
3FC0
3FC0
FFC0
FFC0
3F00
3F00
ENDCHAR
STARTCHAR LATIN
ENCODING 486
SWIDTH 543 0
DWIDTH 12 0
BBX 10 18 0 0
BITMAP
3300
3300
0C00
0C00
0000
0000
3F00
3F00
C0C0
C0C0
C000
C000
C3C0
C3C0
C0C0
C0C0
3F00
3F00
ENDCHAR
STARTCHAR LATIN
ENCODING 487
SWIDTH 543 0
DWIDTH 12 0
BBX 10 22 0 -4
BITMAP
3300
3300
0C00
0C00
0000
0000
0000
0000
3FC0
3FC0
C0C0
C0C0
C0C0
C0C0
C0C0
C0C0
3FC0
3FC0
00C0
00C0
3F00
3F00
ENDCHAR
STARTCHAR LATIN
ENCODING 488
SWIDTH 543 0
DWIDTH 12 0
BBX 10 14 0 0
BITMAP
C0C0
C0C0
C300
C300
CC00
CC00
F000
F000
CC00
CC00
C300
C300
C0C0
C0C0
ENDCHAR
STARTCHAR LATIN
ENCODING 489
SWIDTH 543 0
DWIDTH 12 0
BBX 10 14 0 0
BITMAP
C000
C000
C000
C000
C300
C300
CC00
CC00
FC00
FC00
C300
C300
C0C0
C0C0
ENDCHAR
STARTCHAR LATIN
ENCODING 490
SWIDTH 543 0
DWIDTH 12 0
BBX 10 18 0 -4
BITMAP
3F00
3F00
C0C0
C0C0
C0C0
C0C0
C0C0
C0C0
C0C0
C0C0
C0C0
C0C0
3F00
3F00
3000
3000
0F00
0F00
ENDCHAR
STARTCHAR LATIN
ENCODING 491
SWIDTH 543 0
DWIDTH 12 0
BBX 10 14 0 -4
BITMAP
3F00
3F00
C0C0
C0C0
C0C0
C0C0
C0C0
C0C0
3F00
3F00
3000
3000
0F00
0F00
ENDCHAR
STARTCHAR LATIN
ENCODING 492
SWIDTH 543 0
DWIDTH 12 0
BBX 10 22 0 -4
BITMAP
3300
3300
0C00
0C00
0000
0000
3F00
3F00
C0C0
C0C0
C0C0
C0C0
C0C0
C0C0
C0C0
C0C0
3F00
3F00
3000
3000
0F00
0F00
ENDCHAR
STARTCHAR LATIN
ENCODING 493
SWIDTH 543 0
DWIDTH 12 0
BBX 10 20 0 -4
BITMAP
3300
3300
0C00
0C00
0000
0000
3F00
3F00
C0C0
C0C0
C0C0
C0C0
C0C0
C0C0
3F00
3F00
3000
3000
0F00
0F00
ENDCHAR
STARTCHAR LATIN
ENCODING 494
SWIDTH 543 0
DWIDTH 12 0
BBX 10 18 0 0
BITMAP
3300
3300
0C00
0C00
0000
0000
FFC0
FFC0
0300
0300
0C00
0C00
0300
0300
C0C0
C0C0
3F00
3F00
ENDCHAR
STARTCHAR LATIN
ENCODING 495
SWIDTH 543 0
DWIDTH 12 0
BBX 10 18 0 -4
BITMAP
3300
3300
0C00
0C00
0000
0000
FFC0
FFC0
0300
0300
0C00
0C00
0300
0300
C0C0
C0C0
3F00
3F00
ENDCHAR
STARTCHAR LATIN
ENCODING 496
SWIDTH 543 0
DWIDTH 12 0
BBX 8 20 0 -4
BITMAP
33
33
0C
0C
00
00
3C
3C
0C
0C
0C
0C
0C
0C
0C
0C
0C
0C
F0
F0
ENDCHAR
STARTCHAR LATIN
ENCODING 497
SWIDTH 543 0
DWIDTH 12 0
BBX 12 14 0 0
BITMAP
F3F0
F3F0
CC30
CC30
CCC0
CCC0
CCC0
CCC0
CCC0
CCC0
CF00
CF00
F3F0
F3F0
ENDCHAR
STARTCHAR LATIN
ENCODING 498
SWIDTH 543 0
DWIDTH 12 0
BBX 12 14 0 0
BITMAP
F000
F000
CC00
CC00
CFF0
CFF0
CC30
CC30
CCC0
CCC0
CF00
CF00
F3F0
F3F0
ENDCHAR
STARTCHAR LATIN
ENCODING 499
SWIDTH 543 0
DWIDTH 12 0
BBX 12 14 0 0
BITMAP
0C00
0C00
0C00
0C00
3FF0
3FF0
CC30
CC30
CCC0
CCC0
CF00
CF00
3FF0
3FF0
ENDCHAR
STARTCHAR LATIN
ENCODING 500
SWIDTH 543 0
DWIDTH 12 0
BBX 10 18 0 0
BITMAP
3300
3300
0C00
0C00
0000
0000
3F00
3F00
C0C0
C0C0
C000
C000
C3C0
C3C0
C0C0
C0C0
3F00
3F00
ENDCHAR
STARTCHAR LATIN
ENCODING 501
SWIDTH 543 0
DWIDTH 12 0
BBX 10 20 0 -4
BITMAP
3300
3300
0C00
0C00
0000
0000
3FC0
3FC0
C0C0
C0C0
C0C0
C0C0
C0C0
C0C0
3FC0
3FC0
00C0
00C0
3F00
3F00
ENDCHAR
STARTCHAR LATIN
ENCODING 502
SWIDTH 543 0
DWIDTH 12 0
BBX 10 14 0 0
BITMAP
CC00
CC00
CC00
CC00
CCC0
CCC0
FCC0
FCC0
CCC0
CCC0
CCC0
CCC0
C300
C300
ENDCHAR
STARTCHAR LATIN
ENCODING 503
SWIDTH 543 0
DWIDTH 12 0
BBX 10 14 0 0
BITMAP
CF00
CF00
F0C0
F0C0
C0C0
C0C0
C300
C300
CC00
CC00
F000
F000
C000
C000
ENDCHAR
STARTCHAR LATIN
ENCODING 504
SWIDTH 543 0
DWIDTH 12 0
BBX 10 18 0 0
BITMAP
3000
3000
0C00
0C00
F0C0
F0C0
F0C0
F0C0
CCC0
CCC0
CCC0
CCC0
CCC0
CCC0
C3C0
C3C0
C3C0
C3C0
ENDCHAR
STARTCHAR LATIN
ENCODING 505
SWIDTH 543 0
DWIDTH 12 0
BBX 10 16 0 0
BITMAP
3000
3000
0C00
0C00
0000
0000
CF00
CF00
F0C0
F0C0
C0C0
C0C0
C0C0
C0C0
C0C0
C0C0
ENDCHAR
STARTCHAR LATIN
ENCODING 506
SWIDTH 543 0
DWIDTH 12 0
BBX 10 18 0 0
BITMAP
0300
0300
0C00
0C00
3300
3300
0C00
0C00
3F00
3F00
C0C0
C0C0
FFC0
FFC0
C0C0
C0C0
C0C0
C0C0
ENDCHAR
STARTCHAR LATIN
ENCODING 507
SWIDTH 543 0
DWIDTH 12 0
BBX 10 18 0 0
BITMAP
0300
0300
0C00
0C00
3300
3300
0C00
0C00
3FC0
3FC0
C0C0
C0C0
C0C0
C0C0
C3C0
C3C0
3CC0
3CC0
ENDCHAR
STARTCHAR LATIN
ENCODING 508
SWIDTH 543 0
DWIDTH 12 0
BBX 10 18 0 0
BITMAP
0300
0300
0C00
0C00
3FC0
3FC0
CC00
CC00
CC00
CC00
FF00
FF00
CC00
CC00
CC00
CC00
CFC0
CFC0
ENDCHAR
STARTCHAR LATIN
ENCODING 509
SWIDTH 543 0
DWIDTH 12 0
BBX 10 16 0 0
BITMAP
0300
0300
0C00
0C00
0000
0000
3F00
3F00
CCC0
CCC0
CFC0
CFC0
CC00
CC00
3FC0
3FC0
ENDCHAR
STARTCHAR LATIN
ENCODING 510
SWIDTH 543 0
DWIDTH 12 0
BBX 10 20 0 -2
BITMAP
0300
0300
0CC0
0CC0
3F00
3F00
C3C0
C3C0
CCC0
CCC0
CCC0
CCC0
CCC0
CCC0
F0C0
F0C0
3F00
3F00
C000
C000
ENDCHAR
STARTCHAR LATIN
ENCODING 511
SWIDTH 543 0
DWIDTH 12 0
BBX 10 16 0 0
BITMAP
0300
0300
0C00
0C00
0000
0000
3FC0
3FC0
C3C0
C3C0
CCC0
CCC0
F0C0
F0C0
FF00
FF00
ENDCHAR
STARTCHAR LATIN
ENCODING 512
SWIDTH 543 0
DWIDTH 12 0
BBX 10 18 0 0
BITMAP
CC00
CC00
3300
3300
0000
0000
3F00
3F00
C0C0
C0C0
C0C0
C0C0
FFC0
FFC0
C0C0
C0C0
C0C0
C0C0
ENDCHAR
STARTCHAR LATIN
ENCODING 513
SWIDTH 543 0
DWIDTH 12 0
BBX 10 16 0 0
BITMAP
CC00
CC00
3300
3300
0000
0000
3FC0
3FC0
C0C0
C0C0
C0C0
C0C0
C3C0
C3C0
3CC0
3CC0
ENDCHAR
STARTCHAR LATIN
ENCODING 514
SWIDTH 543 0
DWIDTH 12 0
BBX 10 18 0 0
BITMAP
3F00
3F00
C0C0
C0C0
3F00
3F00
C0C0
C0C0
C0C0
C0C0
FFC0
FFC0
C0C0
C0C0
C0C0
C0C0
C0C0
C0C0
ENDCHAR
STARTCHAR LATIN
ENCODING 515
SWIDTH 543 0
DWIDTH 12 0
BBX 10 16 0 0
BITMAP
3F00
3F00
C0C0
C0C0
0000
0000
3FC0
3FC0
C0C0
C0C0
C0C0
C0C0
C3C0
C3C0
3CC0
3CC0
ENDCHAR
STARTCHAR LATIN
ENCODING 516
SWIDTH 543 0
DWIDTH 12 0
BBX 10 18 0 0
BITMAP
CC00
CC00
3300
3300
FFC0
FFC0
C000
C000
C000
C000
FF00
FF00
C000
C000
C000
C000
FFC0
FFC0
ENDCHAR
STARTCHAR LATIN
ENCODING 517
SWIDTH 543 0
DWIDTH 12 0
BBX 10 16 0 0
BITMAP
CC00
CC00
3300
3300
0000
0000
3F00
3F00
C0C0
C0C0
FFC0
FFC0
C000
C000
3FC0
3FC0
ENDCHAR
STARTCHAR LATIN
ENCODING 518
SWIDTH 543 0
DWIDTH 12 0
BBX 10 18 0 0
BITMAP
3F00
3F00
C0C0
C0C0
FFC0
FFC0
C000
C000
C000
C000
FF00
FF00
C000
C000
C000
C000
FFC0
FFC0
ENDCHAR
STARTCHAR LATIN
ENCODING 519
SWIDTH 543 0
DWIDTH 12 0
BBX 10 16 0 0
BITMAP
3F00
3F00
C0C0
C0C0
0000
0000
3F00
3F00
C0C0
C0C0
FFC0
FFC0
C000
C000
3FC0
3FC0
ENDCHAR
STARTCHAR LATIN
ENCODING 520
SWIDTH 543 0
DWIDTH 12 0
BBX 8 18 0 0
BITMAP
CC
CC
33
33
00
00
3F
3F
0C
0C
0C
0C
0C
0C
0C
0C
3F
3F
ENDCHAR
STARTCHAR LATIN
ENCODING 521
SWIDTH 543 0
DWIDTH 12 0
BBX 8 16 0 0
BITMAP
CC
CC
33
33
00
00
3C
3C
0C
0C
0C
0C
0C
0C
0F
0F
ENDCHAR
STARTCHAR LATIN
ENCODING 522
SWIDTH 543 0
DWIDTH 12 0
BBX 10 18 0 0
BITMAP
3F00
3F00
C0C0
C0C0
0000
0000
3F00
3F00
0C00
0C00
0C00
0C00
0C00
0C00
0C00
0C00
3F00
3F00
ENDCHAR
STARTCHAR LATIN
ENCODING 523
SWIDTH 543 0
DWIDTH 12 0
BBX 10 16 0 0
BITMAP
3F00
3F00
C0C0
C0C0
0000
0000
3C00
3C00
0C00
0C00
0C00
0C00
0C00
0C00
0F00
0F00
ENDCHAR
STARTCHAR LATIN
ENCODING 524
SWIDTH 543 0
DWIDTH 12 0
BBX 10 18 0 0
BITMAP
CC00
CC00
3300
3300
0000
0000
3F00
3F00
C0C0
C0C0
C0C0
C0C0
C0C0
C0C0
C0C0
C0C0
3F00
3F00
ENDCHAR
STARTCHAR LATIN
ENCODING 525
SWIDTH 543 0
DWIDTH 12 0
BBX 10 16 0 0
BITMAP
CC00
CC00
3300
3300
0000
0000
3F00
3F00
C0C0
C0C0
C0C0
C0C0
C0C0
C0C0
3F00
3F00
ENDCHAR
STARTCHAR LATIN
ENCODING 526
SWIDTH 543 0
DWIDTH 12 0
BBX 10 18 0 0
BITMAP
3F00
3F00
C0C0
C0C0
3F00
3F00
C0C0
C0C0
C0C0
C0C0
C0C0
C0C0
C0C0
C0C0
C0C0
C0C0
3F00
3F00
ENDCHAR
STARTCHAR LATIN
ENCODING 527
SWIDTH 543 0
DWIDTH 12 0
BBX 10 16 0 0
BITMAP
3F00
3F00
C0C0
C0C0
0000
0000
3F00
3F00
C0C0
C0C0
C0C0
C0C0
C0C0
C0C0
3F00
3F00
ENDCHAR
STARTCHAR LATIN
ENCODING 528
SWIDTH 543 0
DWIDTH 12 0
BBX 10 18 0 0
BITMAP
CC00
CC00
3300
3300
0000
0000
FF00
FF00
C0C0
C0C0
C0C0
C0C0
FF00
FF00
C0C0
C0C0
C0C0
C0C0
ENDCHAR
STARTCHAR LATIN
ENCODING 529
SWIDTH 543 0
DWIDTH 12 0
BBX 10 16 0 0
BITMAP
CC00
CC00
3300
3300
0000
0000
CF00
CF00
F0C0
F0C0
C000
C000
C000
C000
C000
C000
ENDCHAR
STARTCHAR LATIN
ENCODING 530
SWIDTH 543 0
DWIDTH 12 0
BBX 10 18 0 0
BITMAP
3F00
3F00
C0C0
C0C0
0000
0000
FF00
FF00
C0C0
C0C0
C0C0
C0C0
FF00
FF00
C0C0
C0C0
C0C0
C0C0
ENDCHAR
STARTCHAR LATIN
ENCODING 531
SWIDTH 543 0
DWIDTH 12 0
BBX 10 16 0 0
BITMAP
3F00
3F00
C0C0
C0C0
0000
0000
CF00
CF00
F0C0
F0C0
C000
C000
C000
C000
C000
C000
ENDCHAR
STARTCHAR LATIN
ENCODING 532
SWIDTH 543 0
DWIDTH 12 0
BBX 10 18 0 0
BITMAP
CC00
CC00
3300
3300
0000
0000
C0C0
C0C0
C0C0
C0C0
C0C0
C0C0
C0C0
C0C0
C0C0
C0C0
3F00
3F00
ENDCHAR
STARTCHAR LATIN
ENCODING 533
SWIDTH 543 0
DWIDTH 12 0
BBX 10 16 0 0
BITMAP
CC00
CC00
3300
3300
0000
0000
C0C0
C0C0
C0C0
C0C0
C0C0
C0C0
C3C0
C3C0
3CC0
3CC0
ENDCHAR
STARTCHAR LATIN
ENCODING 534
SWIDTH 543 0
DWIDTH 12 0
BBX 10 18 0 0
BITMAP
3F00
3F00
C0C0
C0C0
0000
0000
C0C0
C0C0
C0C0
C0C0
C0C0
C0C0
C0C0
C0C0
C0C0
C0C0
3F00
3F00
ENDCHAR
STARTCHAR LATIN
ENCODING 535
SWIDTH 543 0
DWIDTH 12 0
BBX 10 16 0 0
BITMAP
3F00
3F00
C0C0
C0C0
0000
0000
C0C0
C0C0
C0C0
C0C0
C0C0
C0C0
C3C0
C3C0
3CC0
3CC0
ENDCHAR
STARTCHAR LATIN
ENCODING 536
SWIDTH 543 0
DWIDTH 12 0
BBX 10 18 0 -4
BITMAP
3F00
3F00
C0C0
C0C0
C000
C000
3F00
3F00
00C0
00C0
C0C0
C0C0
3F00
3F00
0C00
0C00
3000
3000
ENDCHAR
STARTCHAR LATIN
ENCODING 537
SWIDTH 543 0
DWIDTH 12 0
BBX 10 14 0 -4
BITMAP
3FC0
3FC0
C000
C000
3F00
3F00
00C0
00C0
FF00
FF00
0C00
0C00
3000
3000
ENDCHAR
STARTCHAR LATIN
ENCODING 538
SWIDTH 543 0
DWIDTH 12 0
BBX 10 18 0 -4
BITMAP
FFC0
FFC0
0C00
0C00
0C00
0C00
0C00
0C00
0C00
0C00
0C00
0C00
0C00
0C00
0C00
0C00
3000
3000
ENDCHAR
STARTCHAR LATIN
ENCODING 539
SWIDTH 543 0
DWIDTH 12 0
BBX 8 18 2 -4
BITMAP
30
30
30
30
FF
FF
30
30
30
30
30
30
0F
0F
30
30
C0
C0
ENDCHAR
STARTCHAR LATIN
ENCODING 540
SWIDTH 543 0
DWIDTH 12 0
BBX 10 16 0 -2
BITMAP
3F00
3F00
C0C0
C0C0
00C0
00C0
0F00
0F00
F0C0
F0C0
00C0
00C0
0F00
0F00
F000
F000
ENDCHAR
STARTCHAR LATIN
ENCODING 541
SWIDTH 543 0
DWIDTH 12 0
BBX 10 12 0 0
BITMAP
3F00
3F00
C0C0
C0C0
0F00
0F00
F0C0
F0C0
0300
0300
FC00
FC00
ENDCHAR
STARTCHAR LATIN
ENCODING 542
SWIDTH 543 0
DWIDTH 12 0
BBX 10 18 0 0
BITMAP
3300
3300
0C00
0C00
C0C0
C0C0
C0C0
C0C0
C0C0
C0C0
FFC0
FFC0
C0C0
C0C0
C0C0
C0C0
C0C0
C0C0
ENDCHAR
STARTCHAR LATIN
ENCODING 543
SWIDTH 543 0
DWIDTH 12 0
BBX 10 18 0 0
BITMAP
3300
3300
0C00
0C00
C000
C000
C000
C000
FF00
FF00
C0C0
C0C0
C0C0
C0C0
C0C0
C0C0
C0C0
C0C0
ENDCHAR
STARTCHAR LATIN
ENCODING 544
SWIDTH 543 0
DWIDTH 12 0
BBX 10 18 0 -4
BITMAP
C000
C000
CF00
CF00
F0C0
F0C0
C0C0
C0C0
C0C0
C0C0
C0C0
C0C0
C0C0
C0C0
00C0
00C0
00C0
00C0
ENDCHAR
STARTCHAR LATIN
ENCODING 545
SWIDTH 543 0
DWIDTH 12 0
BBX 12 16 0 -2
BITMAP
0300
0300
0300
0300
3F00
3F00
C300
C300
C300
C300
C3C0
C3C0
3F30
3F30
0CC0
0CC0
ENDCHAR
STARTCHAR LATIN
ENCODING 546
SWIDTH 543 0
DWIDTH 12 0
BBX 10 16 0 0
BITMAP
0F00
0F00
00C0
00C0
30C0
30C0
C0C0
C0C0
3F00
3F00
C0C0
C0C0
C0C0
C0C0
3F00
3F00
ENDCHAR
STARTCHAR LATIN
ENCODING 547
SWIDTH 543 0
DWIDTH 12 0
BBX 10 14 0 0
BITMAP
3300
3300
C0C0
C0C0
C0C0
C0C0
3F00
3F00
C0C0
C0C0
C0C0
C0C0
3F00
3F00
ENDCHAR
STARTCHAR LATIN
ENCODING 548
SWIDTH 543 0
DWIDTH 12 0
BBX 12 16 0 -2
BITMAP
FFC0
FFC0
00C0
00C0
0300
0300
0C00
0C00
3000
3000
C000
C000
FFC0
FFC0
0030
0030
ENDCHAR
STARTCHAR LATIN
ENCODING 549
SWIDTH 543 0
DWIDTH 12 0
BBX 12 12 0 -2
BITMAP
FFC0
FFC0
0300
0300
0C00
0C00
3000
3000
FFC0
FFC0
0030
0030
ENDCHAR
STARTCHAR LATIN
ENCODING 550
SWIDTH 543 0
DWIDTH 12 0
BBX 10 18 0 0
BITMAP
0C00
0C00
0000
0000
3F00
3F00
C0C0
C0C0
C0C0
C0C0
FFC0
FFC0
C0C0
C0C0
C0C0
C0C0
C0C0
C0C0
ENDCHAR
STARTCHAR LATIN
ENCODING 551
SWIDTH 543 0
DWIDTH 12 0
BBX 10 14 0 0
BITMAP
0C00
0C00
0000
0000
3FC0
3FC0
C0C0
C0C0
C0C0
C0C0
C3C0
C3C0
3CC0
3CC0
ENDCHAR
STARTCHAR LATIN
ENCODING 552
SWIDTH 543 0
DWIDTH 12 0
BBX 10 18 0 -4
BITMAP
FFC0
FFC0
C000
C000
C000
C000
FF00
FF00
C000
C000
C000
C000
FFC0
FFC0
0C00
0C00
3000
3000
ENDCHAR
STARTCHAR LATIN
ENCODING 553
SWIDTH 543 0
DWIDTH 12 0
BBX 10 14 0 -4
BITMAP
3F00
3F00
C0C0
C0C0
FFC0
FFC0
C000
C000
3F00
3F00
0C00
0C00
3000
3000
ENDCHAR
STARTCHAR LATIN
ENCODING 554
SWIDTH 543 0
DWIDTH 12 0
BBX 10 18 0 0
BITMAP
3F00
3F00
0000
0000
3300
3300
3F00
3F00
C0C0
C0C0
C0C0
C0C0
C0C0
C0C0
C0C0
C0C0
3F00
3F00
ENDCHAR
STARTCHAR LATIN
ENCODING 555
SWIDTH 543 0
DWIDTH 12 0
BBX 10 18 0 0
BITMAP
3F00
3F00
0000
0000
3300
3300
0000
0000
3F00
3F00
C0C0
C0C0
C0C0
C0C0
C0C0
C0C0
3F00
3F00
ENDCHAR
STARTCHAR LATIN
ENCODING 556
SWIDTH 543 0
DWIDTH 12 0
BBX 10 18 0 0
BITMAP
3F00
3F00
3CC0
3CC0
CF00
CF00
3F00
3F00
C0C0
C0C0
C0C0
C0C0
C0C0
C0C0
C0C0
C0C0
3F00
3F00
ENDCHAR
STARTCHAR LATIN
ENCODING 557
SWIDTH 543 0
DWIDTH 12 0
BBX 10 18 0 0
BITMAP
3F00
3F00
0000
0000
3CC0
3CC0
CF00
CF00
3F00
3F00
C0C0
C0C0
C0C0
C0C0
C0C0
C0C0
3F00
3F00
ENDCHAR
STARTCHAR LATIN
ENCODING 558
SWIDTH 543 0
DWIDTH 12 0
BBX 10 18 0 0
BITMAP
0C00
0C00
0000
0000
3F00
3F00
C0C0
C0C0
C0C0
C0C0
C0C0
C0C0
C0C0
C0C0
C0C0
C0C0
3F00
3F00
ENDCHAR
STARTCHAR LATIN
ENCODING 559
SWIDTH 543 0
DWIDTH 12 0
BBX 10 14 0 0
BITMAP
0C00
0C00
0000
0000
3F00
3F00
C0C0
C0C0
C0C0
C0C0
C0C0
C0C0
3F00
3F00
ENDCHAR
STARTCHAR LATIN
ENCODING 560
SWIDTH 543 0
DWIDTH 12 0
BBX 10 18 0 0
BITMAP
3F00
3F00
0000
0000
0C00
0C00
3F00
3F00
C0C0
C0C0
C0C0
C0C0
C0C0
C0C0
C0C0
C0C0
3F00
3F00
ENDCHAR
STARTCHAR LATIN
ENCODING 561
SWIDTH 543 0
DWIDTH 12 0
BBX 10 18 0 0
BITMAP
3F00
3F00
0000
0000
0C00
0C00
0000
0000
3F00
3F00
C0C0
C0C0
C0C0
C0C0
C0C0
C0C0
3F00
3F00
ENDCHAR
STARTCHAR LATIN
ENCODING 562
SWIDTH 543 0
DWIDTH 12 0
BBX 10 18 0 0
BITMAP
3F00
3F00
0000
0000
C0C0
C0C0
C0C0
C0C0
C0C0
C0C0
3300
3300
0C00
0C00
0C00
0C00
0C00
0C00
ENDCHAR
STARTCHAR LATIN
ENCODING 563
SWIDTH 543 0
DWIDTH 12 0
BBX 10 18 0 -4
BITMAP
3F00
3F00
0000
0000
C0C0
C0C0
C0C0
C0C0
C0C0
C0C0
C0C0
C0C0
3FC0
3FC0
00C0
00C0
3F00
3F00
ENDCHAR
STARTCHAR LATIN
ENCODING 564
SWIDTH 543 0
DWIDTH 12 0
BBX 8 14 2 0
BITMAP
F0
F0
30
30
30
30
30
30
3C
3C
F3
F3
3C
3C
ENDCHAR
STARTCHAR LATIN
ENCODING 565
SWIDTH 543 0
DWIDTH 12 0
BBX 12 12 0 -2
BITMAP
CF00
CF00
F0C0
F0C0
C0C0
C0C0
C3C0
C3C0
CF30
CF30
00C0
00C0
ENDCHAR
STARTCHAR LATIN
ENCODING 566
SWIDTH 543 0
DWIDTH 12 0
BBX 10 14 2 0
BITMAP
F000
F000
3000
3000
FF00
FF00
3000
3000
3300
3300
3CC0
3CC0
3F00
3F00
ENDCHAR
STARTCHAR LATIN
ENCODING 567
SWIDTH 543 0
DWIDTH 12 0
BBX 6 14 0 -4
BITMAP
3C
3C
0C
0C
0C
0C
0C
0C
0C
0C
0C
0C
F0
F0
ENDCHAR
STARTCHAR LATIN
ENCODING 568
SWIDTH 543 0
DWIDTH 12 0
BBX 10 14 0 0
BITMAP
0C00
0C00
0C00
0C00
3F00
3F00
CCC0
CCC0
CCC0
CCC0
CCC0
CCC0
3F00
3F00
ENDCHAR
STARTCHAR LATIN
ENCODING 569
SWIDTH 543 0
DWIDTH 12 0
BBX 10 14 0 -4
BITMAP
3F00
3F00
CCC0
CCC0
CCC0
CCC0
CCC0
CCC0
3F00
3F00
0C00
0C00
0C00
0C00
ENDCHAR
STARTCHAR LATIN
ENCODING 570
SWIDTH 543 0
DWIDTH 12 0
BBX 10 16 0 0
BITMAP
0300
0300
3F00
3F00
CCC0
CCC0
CCC0
CCC0
FFC0
FFC0
F0C0
F0C0
F0C0
F0C0
C0C0
C0C0
ENDCHAR
STARTCHAR LATIN
ENCODING 571
SWIDTH 543 0
DWIDTH 12 0
BBX 10 20 0 -2
BITMAP
00C0
00C0
00C0
00C0
3F00
3F00
C3C0
C3C0
CC00
CC00
CC00
CC00
F000
F000
F0C0
F0C0
FF00
FF00
C000
C000
ENDCHAR
STARTCHAR LATIN
ENCODING 572
SWIDTH 543 0
DWIDTH 12 0
BBX 10 20 0 -4
BITMAP
00C0
00C0
00C0
00C0
0300
0300
3F00
3F00
CCC0
CCC0
CC00
CC00
F000
F000
3FC0
3FC0
C000
C000
C000
C000
ENDCHAR
STARTCHAR LATIN
ENCODING 573
SWIDTH 543 0
DWIDTH 12 0
BBX 12 14 0 0
BITMAP
3000
3000
3000
3000
3000
3000
FF00
FF00
3000
3000
3000
3000
3FF0
3FF0
ENDCHAR
STARTCHAR LATIN
ENCODING 574
SWIDTH 543 0
DWIDTH 12 0
BBX 10 16 0 0
BITMAP
00C0
00C0
FFC0
FFC0
0F00
0F00
0F00
0F00
3C00
3C00
3C00
3C00
CC00
CC00
CC00
CC00
ENDCHAR
STARTCHAR LATIN
ENCODING 575
SWIDTH 543 0
DWIDTH 12 0
BBX 12 14 0 -4
BITMAP
3FC0
3FC0
C000
C000
3F00
3F00
00C0
00C0
FF00
FF00
3C30
3C30
03C0
03C0
ENDCHAR
STARTCHAR LATIN
ENCODING 576
SWIDTH 543 0
DWIDTH 12 0
BBX 10 14 0 -4
BITMAP
FFC0
FFC0
0300
0300
0C00
0C00
3000
3000
FFC0
FFC0
3000
3000
0F00
0F00
ENDCHAR
STARTCHAR LATIN
ENCODING 577
SWIDTH 543 0
DWIDTH 12 0
BBX 10 14 0 2
BITMAP
3F00
3F00
C0C0
C0C0
00C0
00C0
0300
0300
0C00
0C00
0C00
0C00
0C00
0C00
ENDCHAR
STARTCHAR LATIN
ENCODING 578
SWIDTH 543 0
DWIDTH 12 0
BBX 10 12 0 2
BITMAP
3F00
3F00
C0C0
C0C0
00C0
00C0
0300
0300
0C00
0C00
0C00
0C00
ENDCHAR
STARTCHAR LATIN
ENCODING 579
SWIDTH 543 0
DWIDTH 12 0
BBX 12 14 0 0
BITMAP
3FC0
3FC0
3030
3030
3030
3030
3FC0
3FC0
FF30
FF30
3030
3030
3FC0
3FC0
ENDCHAR
STARTCHAR LATIN
ENCODING 580
SWIDTH 543 0
DWIDTH 12 0
BBX 10 14 0 0
BITMAP
C0C0
C0C0
C0C0
C0C0
C0C0
C0C0
FFC0
FFC0
C0C0
C0C0
C0C0
C0C0
3F00
3F00
ENDCHAR
STARTCHAR LATIN
ENCODING 581
SWIDTH 543 0
DWIDTH 12 0
BBX 10 14 0 0
BITMAP
0C00
0C00
0C00
0C00
3300
3300
3300
3300
C0C0
C0C0
C0C0
C0C0
C0C0
C0C0
ENDCHAR
STARTCHAR LATIN
ENCODING 582
SWIDTH 543 0
DWIDTH 12 0
BBX 10 20 0 -4
BITMAP
00C0
00C0
FFC0
FFC0
C300
C300
C300
C300
FF00
FF00
CC00
CC00
F000
F000
FFC0
FFC0
C000
C000
C000
C000
ENDCHAR
STARTCHAR LATIN
ENCODING 583
SWIDTH 543 0
DWIDTH 12 0
BBX 10 20 0 -4
BITMAP
00C0
00C0
00C0
00C0
0300
0300
3F00
3F00
CCC0
CCC0
FFC0
FFC0
F000
F000
3F00
3F00
C000
C000
C000
C000
ENDCHAR
STARTCHAR LATIN
ENCODING 584
SWIDTH 543 0
DWIDTH 12 0
BBX 12 14 0 0
BITMAP
00C0
00C0
00C0
00C0
00C0
00C0
03F0
03F0
00C0
00C0
C0C0
C0C0
3F00
3F00
ENDCHAR
STARTCHAR LATIN
ENCODING 585
SWIDTH 543 0
DWIDTH 12 0
BBX 8 18 0 -4
BITMAP
0C
0C
00
00
3C
3C
0C
0C
3F
3F
0C
0C
0C
0C
0C
0C
F0
F0
ENDCHAR
STARTCHAR LATIN
ENCODING 586
SWIDTH 543 0
DWIDTH 12 0
BBX 12 16 0 -2
BITMAP
3FC0
3FC0
C0C0
C0C0
C0C0
C0C0
C0C0
C0C0
C0C0
C0C0
3FC0
3FC0
00C0
00C0
0030
0030
ENDCHAR
STARTCHAR LATIN
ENCODING 587
SWIDTH 543 0
DWIDTH 12 0
BBX 12 14 0 -4
BITMAP
3FC0
3FC0
C0C0
C0C0
C0C0
C0C0
C0C0
C0C0
3FC0
3FC0
00C0
00C0
0030
0030
ENDCHAR
STARTCHAR LATIN
ENCODING 588
SWIDTH 543 0
DWIDTH 12 0
BBX 12 14 0 0
BITMAP
3FC0
3FC0
3030
3030
3030
3030
FFC0
FFC0
3030
3030
3030
3030
3030
3030
ENDCHAR
STARTCHAR LATIN
ENCODING 589
SWIDTH 543 0
DWIDTH 12 0
BBX 12 10 0 0
BITMAP
33C0
33C0
3C30
3C30
FC00
FC00
3000
3000
3000
3000
ENDCHAR
STARTCHAR LATIN
ENCODING 590
SWIDTH 543 0
DWIDTH 12 0
BBX 10 14 0 0
BITMAP
C0C0
C0C0
C0C0
C0C0
FFC0
FFC0
3300
3300
0C00
0C00
0C00
0C00
0C00
0C00
ENDCHAR
STARTCHAR LATIN
ENCODING 591
SWIDTH 543 0
DWIDTH 12 0
BBX 10 14 0 -4
BITMAP
C0C0
C0C0
C0C0
C0C0
FFC0
FFC0
C0C0
C0C0
3FC0
3FC0
00C0
00C0
3F00
3F00
ENDCHAR
STARTCHAR LATIN
ENCODING 592
SWIDTH 543 0
DWIDTH 12 0
BBX 10 10 0 0
BITMAP
CF00
CF00
F0C0
F0C0
C0C0
C0C0
C0C0
C0C0
FF00
FF00
ENDCHAR
STARTCHAR LATIN
ENCODING 593
SWIDTH 543 0
DWIDTH 12 0
BBX 10 10 0 0
BITMAP
3CC0
3CC0
C3C0
C3C0
C0C0
C0C0
C3C0
C3C0
3CC0
3CC0
ENDCHAR
STARTCHAR LATIN
ENCODING 594
SWIDTH 543 0
DWIDTH 12 0
BBX 10 10 0 0
BITMAP
CF00
CF00
F0C0
F0C0
C0C0
C0C0
F0C0
F0C0
CF00
CF00
ENDCHAR
STARTCHAR LATIN
ENCODING 595
SWIDTH 543 0
DWIDTH 12 0
BBX 10 16 0 0
BITMAP
3C00
3C00
C000
C000
C000
C000
FF00
FF00
C0C0
C0C0
C0C0
C0C0
C0C0
C0C0
FF00
FF00
ENDCHAR
STARTCHAR LATIN
ENCODING 596
SWIDTH 543 0
DWIDTH 12 0
BBX 10 10 0 0
BITMAP
3F00
3F00
C0C0
C0C0
00C0
00C0
C0C0
C0C0
3F00
3F00
ENDCHAR
STARTCHAR LATIN
ENCODING 597
SWIDTH 543 0
DWIDTH 12 0
BBX 10 10 0 0
BITMAP
3F00
3F00
C0C0
C0C0
C300
C300
CCC0
CCC0
3F00
3F00
ENDCHAR
STARTCHAR LATIN
ENCODING 598
SWIDTH 543 0
DWIDTH 12 0
BBX 12 18 0 -4
BITMAP
00C0
00C0
00C0
00C0
3FC0
3FC0
C0C0
C0C0
C0C0
C0C0
C0C0
C0C0
3FC0
3FC0
00C0
00C0
0030
0030
ENDCHAR
STARTCHAR LATIN
ENCODING 599
SWIDTH 543 0
DWIDTH 12 0
BBX 12 16 0 0
BITMAP
0030
0030
00C0
00C0
00C0
00C0
3FC0
3FC0
C0C0
C0C0
C0C0
C0C0
C0C0
C0C0
3FC0
3FC0
ENDCHAR
STARTCHAR LATIN
ENCODING 600
SWIDTH 543 0
DWIDTH 12 0
BBX 10 10 0 0
BITMAP
3F00
3F00
C0C0
C0C0
FFC0
FFC0
00C0
00C0
FF00
FF00
ENDCHAR
STARTCHAR LATIN
ENCODING 601
SWIDTH 543 0
DWIDTH 12 0
BBX 10 10 0 0
BITMAP
FF00
FF00
00C0
00C0
FFC0
FFC0
C0C0
C0C0
3F00
3F00
ENDCHAR
STARTCHAR LATIN
ENCODING 602
SWIDTH 543 0
DWIDTH 12 0
BBX 12 10 0 0
BITMAP
FF30
FF30
00C0
00C0
FFC0
FFC0
C0C0
C0C0
3F00
3F00
ENDCHAR
STARTCHAR LATIN
ENCODING 603
SWIDTH 543 0
DWIDTH 12 0
BBX 10 14 0 0
BITMAP
3F00
3F00
C0C0
C0C0
C000
C000
3C00
3C00
C000
C000
C0C0
C0C0
3F00
3F00
ENDCHAR
STARTCHAR LATIN
ENCODING 604
SWIDTH 543 0
DWIDTH 12 0
BBX 10 14 0 0
BITMAP
3F00
3F00
C0C0
C0C0
00C0
00C0
0F00
0F00
00C0
00C0
C0C0
C0C0
3F00
3F00
ENDCHAR
STARTCHAR LATIN
ENCODING 605
SWIDTH 543 0
DWIDTH 12 0
BBX 12 14 0 0
BITMAP
3F30
3F30
C0C0
C0C0
00C0
00C0
0F00
0F00
00C0
00C0
C0C0
C0C0
3F00
3F00
ENDCHAR
STARTCHAR LATIN
ENCODING 606
SWIDTH 543 0
DWIDTH 12 0
BBX 10 14 0 0
BITMAP
3F00
3F00
C0C0
C0C0
C0C0
C0C0
CF00
CF00
C0C0
C0C0
C0C0
C0C0
3F00
3F00
ENDCHAR
STARTCHAR LATIN
ENCODING 607
SWIDTH 543 0
DWIDTH 12 0
BBX 8 14 0 -4
BITMAP
3C
3C
0C
0C
0C
0C
3F
3F
0C
0C
0C
0C
F0
F0
ENDCHAR
STARTCHAR LATIN
ENCODING 608
SWIDTH 543 0
DWIDTH 12 0
BBX 12 16 0 -4
BITMAP
0030
0030
3FC0
3FC0
C0C0
C0C0
C0C0
C0C0
C0C0
C0C0
3FC0
3FC0
00C0
00C0
3F00
3F00
ENDCHAR
STARTCHAR LATIN
ENCODING 609
SWIDTH 543 0
DWIDTH 12 0
BBX 10 14 0 -4
BITMAP
3FC0
3FC0
C0C0
C0C0
C0C0
C0C0
C0C0
C0C0
3FC0
3FC0
00C0
00C0
3F00
3F00
ENDCHAR
STARTCHAR LATIN
ENCODING 610
SWIDTH 543 0
DWIDTH 12 0
BBX 10 10 0 0
BITMAP
3FC0
3FC0
C000
C000
C3C0
C3C0
C0C0
C0C0
3FC0
3FC0
ENDCHAR
STARTCHAR LATIN
ENCODING 611
SWIDTH 543 0
DWIDTH 12 0
BBX 10 14 0 -4
BITMAP
C0C0
C0C0
C0C0
C0C0
3300
3300
3300
3300
0C00
0C00
3300
3300
0C00
0C00
ENDCHAR
STARTCHAR LATIN
ENCODING 612
SWIDTH 543 0
DWIDTH 12 0
BBX 10 12 0 -2
BITMAP
C0C0
C0C0
3300
3300
3300
3300
0C00
0C00
3300
3300
0C00
0C00
ENDCHAR
STARTCHAR LATIN
ENCODING 613
SWIDTH 543 0
DWIDTH 12 0
BBX 10 14 0 0
BITMAP
C0C0
C0C0
C0C0
C0C0
C0C0
C0C0
C0C0
C0C0
3FC0
3FC0
00C0
00C0
00C0
00C0
ENDCHAR
STARTCHAR LATIN
ENCODING 614
SWIDTH 543 0
DWIDTH 12 0
BBX 10 16 0 0
BITMAP
3C00
3C00
C000
C000
C000
C000
FF00
FF00
C0C0
C0C0
C0C0
C0C0
C0C0
C0C0
C0C0
C0C0
ENDCHAR
STARTCHAR LATIN
ENCODING 615
SWIDTH 543 0
DWIDTH 12 0
BBX 10 20 0 -4
BITMAP
3C00
3C00
C000
C000
C000
C000
FF00
FF00
C0C0
C0C0
C0C0
C0C0
C0C0
C0C0
C0C0
C0C0
00C0
00C0
0300
0300
ENDCHAR
STARTCHAR LATIN
ENCODING 616
SWIDTH 543 0
DWIDTH 12 0
BBX 6 14 2 0
BITMAP
30
30
00
00
F0
F0
30
30
FC
FC
30
30
3C
3C
ENDCHAR
STARTCHAR LATIN
ENCODING 617
SWIDTH 543 0
DWIDTH 12 0
BBX 4 10 4 0
BITMAP
C0
C0
C0
C0
C0
C0
C0
C0
30
30
ENDCHAR
STARTCHAR LATIN
ENCODING 618
SWIDTH 543 0
DWIDTH 12 0
BBX 6 10 2 0
BITMAP
FC
FC
30
30
30
30
30
30
FC
FC
ENDCHAR
STARTCHAR LATIN
ENCODING 619
SWIDTH 543 0
DWIDTH 12 0
BBX 10 14 0 0
BITMAP
3C00
3C00
0C00
0C00
0C00
0C00
3CC0
3CC0
CF00
CF00
0C00
0C00
0F00
0F00
ENDCHAR
STARTCHAR LATIN
ENCODING 620
SWIDTH 543 0
DWIDTH 12 0
BBX 8 14 0 0
BITMAP
3C
3C
0C
0C
3C
3C
CC
CC
3F
3F
0C
0C
0F
0F
ENDCHAR
STARTCHAR LATIN
ENCODING 621
SWIDTH 543 0
DWIDTH 12 0
BBX 6 14 2 0
BITMAP
F0
F0
30
30
30
30
30
30
30
30
30
30
0C
0C
ENDCHAR
STARTCHAR LATIN
ENCODING 622
SWIDTH 543 0
DWIDTH 12 0
BBX 10 16 0 -2
BITMAP
C000
C000
FFC0
FFC0
C0C0
C0C0
C300
C300
CF00
CF00
C0C0
C0C0
30C0
30C0
0F00
0F00
ENDCHAR
STARTCHAR LATIN
ENCODING 623
SWIDTH 543 0
DWIDTH 12 0
BBX 10 10 0 0
BITMAP
CCC0
CCC0
CCC0
CCC0
CCC0
CCC0
CCC0
CCC0
3FC0
3FC0
ENDCHAR
STARTCHAR LATIN
ENCODING 624
SWIDTH 543 0
DWIDTH 12 0
BBX 10 14 0 -4
BITMAP
CCC0
CCC0
CCC0
CCC0
CCC0
CCC0
CCC0
CCC0
3FC0
3FC0
00C0
00C0
00C0
00C0
ENDCHAR
STARTCHAR LATIN
ENCODING 625
SWIDTH 543 0
DWIDTH 12 0
BBX 10 14 0 -4
BITMAP
FF00
FF00
CCC0
CCC0
CCC0
CCC0
CCC0
CCC0
CCC0
CCC0
00C0
00C0
0300
0300
ENDCHAR
STARTCHAR LATIN
ENCODING 626
SWIDTH 543 0
DWIDTH 12 0
BBX 10 14 0 -4
BITMAP
3300
3300
3CC0
3CC0
30C0
30C0
30C0
30C0
30C0
30C0
3000
3000
C000
C000
ENDCHAR
STARTCHAR LATIN
ENCODING 627
SWIDTH 543 0
DWIDTH 12 0
BBX 10 14 0 -4
BITMAP
CC00
CC00
F300
F300
C300
C300
C300
C300
C300
C300
0300
0300
00C0
00C0
ENDCHAR
STARTCHAR LATIN
ENCODING 628
SWIDTH 543 0
DWIDTH 12 0
BBX 10 10 0 0
BITMAP
F0C0
F0C0
F0C0
F0C0
CCC0
CCC0
C3C0
C3C0
C3C0
C3C0
ENDCHAR
STARTCHAR LATIN
ENCODING 629
SWIDTH 543 0
DWIDTH 12 0
BBX 10 10 0 0
BITMAP
3F00
3F00
C0C0
C0C0
FFC0
FFC0
C0C0
C0C0
3F00
3F00
ENDCHAR
STARTCHAR LATIN
ENCODING 630
SWIDTH 543 0
DWIDTH 12 0
BBX 10 10 0 0
BITMAP
3FC0
3FC0
CC00
CC00
CFC0
CFC0
CC00
CC00
3FC0
3FC0
ENDCHAR
STARTCHAR LATIN
ENCODING 631
SWIDTH 543 0
DWIDTH 12 0
BBX 10 10 0 0
BITMAP
3F00
3F00
C0C0
C0C0
CCC0
CCC0
CCC0
CCC0
F3C0
F3C0
ENDCHAR
STARTCHAR LATIN
ENCODING 632
SWIDTH 543 0
DWIDTH 12 0
BBX 10 18 0 -4
BITMAP
0C00
0C00
0C00
0C00
3F00
3F00
CCC0
CCC0
CCC0
CCC0
CCC0
CCC0
3F00
3F00
0C00
0C00
0C00
0C00
ENDCHAR
STARTCHAR LATIN
ENCODING 633
SWIDTH 543 0
DWIDTH 12 0
BBX 10 10 0 0
BITMAP
00C0
00C0
00C0
00C0
00C0
00C0
C3C0
C3C0
3CC0
3CC0
ENDCHAR
STARTCHAR LATIN
ENCODING 634
SWIDTH 543 0
DWIDTH 12 0
BBX 10 14 0 0
BITMAP
00C0
00C0
00C0
00C0
00C0
00C0
00C0
00C0
00C0
00C0
C3C0
C3C0
3CC0
3CC0
ENDCHAR
STARTCHAR LATIN
ENCODING 635
SWIDTH 543 0
DWIDTH 12 0
BBX 12 12 0 -2
BITMAP
00C0
00C0
00C0
00C0
00C0
00C0
C3C0
C3C0
3CC0
3CC0
0030
0030
ENDCHAR
STARTCHAR LATIN
ENCODING 636
SWIDTH 543 0
DWIDTH 12 0
BBX 10 14 0 0
BITMAP
CF00
CF00
F0C0
F0C0
C000
C000
C000
C000
C000
C000
C000
C000
C000
C000
ENDCHAR
STARTCHAR LATIN
ENCODING 637
SWIDTH 543 0
DWIDTH 12 0
BBX 10 16 0 -2
BITMAP
CF00
CF00
F0C0
F0C0
C000
C000
C000
C000
C000
C000
C000
C000
C000
C000
3000
3000
ENDCHAR
STARTCHAR LATIN
ENCODING 638
SWIDTH 543 0
DWIDTH 12 0
BBX 8 10 0 0
BITMAP
3C
3C
C3
C3
C0
C0
C0
C0
C0
C0
ENDCHAR
STARTCHAR LATIN
ENCODING 639
SWIDTH 543 0
DWIDTH 12 0
BBX 8 10 0 0
BITMAP
3C
3C
C3
C3
03
03
03
03
03
03
ENDCHAR
STARTCHAR LATIN
ENCODING 640
SWIDTH 543 0
DWIDTH 12 0
BBX 10 10 0 0
BITMAP
FF00
FF00
C0C0
C0C0
FF00
FF00
C300
C300
C0C0
C0C0
ENDCHAR
STARTCHAR LATIN
ENCODING 641
SWIDTH 543 0
DWIDTH 12 0
BBX 10 10 0 0
BITMAP
C0C0
C0C0
C300
C300
FF00
FF00
C0C0
C0C0
FF00
FF00
ENDCHAR
STARTCHAR LATIN
ENCODING 642
SWIDTH 543 0
DWIDTH 12 0
BBX 10 14 0 -4
BITMAP
3FC0
3FC0
C000
C000
3F00
3F00
00C0
00C0
FF00
FF00
C000
C000
3000
3000
ENDCHAR
STARTCHAR LATIN
ENCODING 643
SWIDTH 543 0
DWIDTH 12 0
BBX 10 18 0 -2
BITMAP
03C0
03C0
0C00
0C00
0C00
0C00
0C00
0C00
0C00
0C00
0C00
0C00
0C00
0C00
0C00
0C00
F000
F000
ENDCHAR
STARTCHAR LATIN
ENCODING 644
SWIDTH 543 0
DWIDTH 12 0
BBX 10 18 0 -2
BITMAP
03C0
03C0
0C00
0C00
0C00
0C00
0C00
0C00
0C00
0C00
3F00
3F00
0C00
0C00
0C00
0C00
F000
F000
ENDCHAR
STARTCHAR LATIN
ENCODING 645
SWIDTH 543 0
DWIDTH 12 0
BBX 10 14 0 -2
BITMAP
F000
F000
0C00
0C00
0C00
0C00
0C00
0C00
0C00
0C00
0C00
0C00
03C0
03C0
ENDCHAR
STARTCHAR LATIN
ENCODING 646
SWIDTH 543 0
DWIDTH 12 0
BBX 12 18 0 -2
BITMAP
03C0
03C0
0C00
0C00
0C00
0C00
0C00
0C00
0C00
0C00
0C00
0C00
3C00
3C00
CF30
CF30
30C0
30C0
ENDCHAR
STARTCHAR LATIN
ENCODING 647
SWIDTH 543 0
DWIDTH 12 0
BBX 8 14 0 0
BITMAP
F0
F0
0C
0C
0C
0C
0C
0C
FF
FF
0C
0C
0C
0C
ENDCHAR
STARTCHAR LATIN
ENCODING 648
SWIDTH 543 0
DWIDTH 12 0
BBX 8 16 0 -2
BITMAP
30
30
30
30
FF
FF
30
30
30
30
30
30
30
30
0F
0F
ENDCHAR
STARTCHAR LATIN
ENCODING 649
SWIDTH 543 0
DWIDTH 12 0
BBX 10 10 0 0
BITMAP
C0C0
C0C0
FFC0
FFC0
C0C0
C0C0
C3C0
C3C0
3CC0
3CC0
ENDCHAR
STARTCHAR LATIN
ENCODING 650
SWIDTH 543 0
DWIDTH 12 0
BBX 10 10 0 0
BITMAP
C0C0
C0C0
3300
3300
C0C0
C0C0
C0C0
C0C0
3F00
3F00
ENDCHAR
STARTCHAR LATIN
ENCODING 651
SWIDTH 543 0
DWIDTH 12 0
BBX 10 10 0 0
BITMAP
CF00
CF00
C0C0
C0C0
C0C0
C0C0
C0C0
C0C0
3F00
3F00
ENDCHAR
STARTCHAR LATIN
ENCODING 652
SWIDTH 543 0
DWIDTH 12 0
BBX 10 10 0 0
BITMAP
0C00
0C00
3300
3300
3300
3300
C0C0
C0C0
C0C0
C0C0
ENDCHAR
STARTCHAR LATIN
ENCODING 653
SWIDTH 543 0
DWIDTH 12 0
BBX 10 10 0 0
BITMAP
3300
3300
CCC0
CCC0
CCC0
CCC0
CCC0
CCC0
C0C0
C0C0
ENDCHAR
STARTCHAR LATIN
ENCODING 654
SWIDTH 543 0
DWIDTH 12 0
BBX 10 14 0 -4
BITMAP
3F00
3F00
C000
C000
FF00
FF00
C0C0
C0C0
C0C0
C0C0
C0C0
C0C0
C0C0
C0C0
ENDCHAR
STARTCHAR LATIN
ENCODING 655
SWIDTH 543 0
DWIDTH 12 0
BBX 10 10 0 0
BITMAP
C0C0
C0C0
3300
3300
0C00
0C00
0C00
0C00
0C00
0C00
ENDCHAR
STARTCHAR LATIN
ENCODING 656
SWIDTH 543 0
DWIDTH 12 0
BBX 10 14 0 -4
BITMAP
FFC0
FFC0
0300
0300
0C00
0C00
3000
3000
FFC0
FFC0
00C0
00C0
0300
0300
ENDCHAR
STARTCHAR LATIN
ENCODING 657
SWIDTH 543 0
DWIDTH 12 0
BBX 10 12 0 -2
BITMAP
FFC0
FFC0
0300
0300
0F00
0F00
3CC0
3CC0
FFC0
FFC0
0C00
0C00
ENDCHAR
STARTCHAR LATIN
ENCODING 658
SWIDTH 543 0
DWIDTH 12 0
BBX 10 14 0 -4
BITMAP
FFC0
FFC0
0300
0300
0C00
0C00
0300
0300
00C0
00C0
C0C0
C0C0
3F00
3F00
ENDCHAR
STARTCHAR LATIN
ENCODING 659
SWIDTH 543 0
DWIDTH 12 0
BBX 10 14 0 -4
BITMAP
FFC0
FFC0
0300
0300
0C00
0C00
0300
0300
3CC0
3CC0
C3C0
C3C0
3FC0
3FC0
ENDCHAR
STARTCHAR LATIN
ENCODING 660
SWIDTH 543 0
DWIDTH 12 0
BBX 10 14 0 2
BITMAP
3F00
3F00
C0C0
C0C0
00C0
00C0
0300
0300
0C00
0C00
0C00
0C00
0C00
0C00
ENDCHAR
STARTCHAR LATIN
ENCODING 661
SWIDTH 543 0
DWIDTH 12 0
BBX 10 14 0 2
BITMAP
3F00
3F00
C0C0
C0C0
C000
C000
3000
3000
0C00
0C00
0C00
0C00
0C00
0C00
ENDCHAR
STARTCHAR LATIN
ENCODING 662
SWIDTH 543 0
DWIDTH 12 0
BBX 10 14 0 2
BITMAP
0C00
0C00
0C00
0C00
0C00
0C00
0300
0300
00C0
00C0
C0C0
C0C0
3F00
3F00
ENDCHAR
STARTCHAR LATIN
ENCODING 663
SWIDTH 543 0
DWIDTH 12 0
BBX 10 14 0 -4
BITMAP
3F00
3F00
C0C0
C0C0
C000
C000
C000
C000
C000
C000
C0C0
C0C0
3F00
3F00
ENDCHAR
STARTCHAR LATIN
ENCODING 664
SWIDTH 543 0
DWIDTH 12 0
BBX 10 10 0 0
BITMAP
3F00
3F00
C0C0
C0C0
CCC0
CCC0
C0C0
C0C0
3F00
3F00
ENDCHAR
STARTCHAR LATIN
ENCODING 665
SWIDTH 543 0
DWIDTH 12 0
BBX 10 10 0 0
BITMAP
FF00
FF00
C0C0
C0C0
FF00
FF00
C0C0
C0C0
FF00
FF00
ENDCHAR
STARTCHAR LATIN
ENCODING 666
SWIDTH 543 0
DWIDTH 12 0
BBX 10 10 0 0
BITMAP
3F00
3F00
C0C0
C0C0
3CC0
3CC0
C0C0
C0C0
3F00
3F00
ENDCHAR
STARTCHAR LATIN
ENCODING 667
SWIDTH 543 0
DWIDTH 12 0
BBX 12 14 0 0
BITMAP
0030
0030
00C0
00C0
3FC0
3FC0
C000
C000
C3C0
C3C0
C0C0
C0C0
3FC0
3FC0
ENDCHAR
STARTCHAR LATIN
ENCODING 668
SWIDTH 543 0
DWIDTH 12 0
BBX 10 10 0 0
BITMAP
C0C0
C0C0
C0C0
C0C0
FFC0
FFC0
C0C0
C0C0
C0C0
C0C0
ENDCHAR
STARTCHAR LATIN
ENCODING 669
SWIDTH 543 0
DWIDTH 12 0
BBX 8 18 0 -4
BITMAP
0C
0C
00
00
3C
3C
0C
0C
0C
0C
0C
0C
3F
3F
CC
CC
30
30
ENDCHAR
STARTCHAR LATIN
ENCODING 670
SWIDTH 543 0
DWIDTH 12 0
BBX 10 14 0 0
BITMAP
C0C0
C0C0
30C0
30C0
0FC0
0FC0
0CC0
0CC0
30C0
30C0
00C0
00C0
00C0
00C0
ENDCHAR
STARTCHAR LATIN
ENCODING 671
SWIDTH 543 0
DWIDTH 12 0
BBX 8 10 0 0
BITMAP
C0
C0
C0
C0
C0
C0
C0
C0
FF
FF
ENDCHAR
STARTCHAR LATIN
ENCODING 672
SWIDTH 543 0
DWIDTH 12 0
BBX 12 18 0 -4
BITMAP
0030
0030
00C0
00C0
3FC0
3FC0
C0C0
C0C0
C0C0
C0C0
C0C0
C0C0
3FC0
3FC0
00C0
00C0
00C0
00C0
ENDCHAR
STARTCHAR LATIN
ENCODING 673
SWIDTH 543 0
DWIDTH 12 0
BBX 10 14 0 2
BITMAP
3F00
3F00
C0C0
C0C0
00C0
00C0
0300
0300
0C00
0C00
3F00
3F00
0C00
0C00
ENDCHAR
STARTCHAR LATIN
ENCODING 674
SWIDTH 543 0
DWIDTH 12 0
BBX 10 14 0 2
BITMAP
3F00
3F00
C0C0
C0C0
C000
C000
3000
3000
0C00
0C00
3F00
3F00
0C00
0C00
ENDCHAR
STARTCHAR LATIN
ENCODING 675
SWIDTH 543 0
DWIDTH 12 0
BBX 12 14 0 0
BITMAP
0C00
0C00
0C00
0C00
3FF0
3FF0
CC30
CC30
CCC0
CCC0
CF00
CF00
3FF0
3FF0
ENDCHAR
STARTCHAR LATIN
ENCODING 676
SWIDTH 543 0
DWIDTH 12 0
BBX 12 16 0 -2
BITMAP
0C00
0C00
0C00
0C00
3FF0
3FF0
CC30
CC30
CCC0
CCC0
CC30
CC30
3F30
3F30
00C0
00C0
ENDCHAR
STARTCHAR LATIN
ENCODING 677
SWIDTH 543 0
DWIDTH 12 0
BBX 12 16 0 -2
BITMAP
0C00
0C00
0C00
0C00
3FF0
3FF0
CC30
CC30
CCC0
CCC0
CF30
CF30
3FF0
3FF0
0300
0300
ENDCHAR
STARTCHAR LATIN
ENCODING 678
SWIDTH 543 0
DWIDTH 12 0
BBX 12 14 0 0
BITMAP
3000
3000
3000
3000
FFF0
FFF0
3C00
3C00
33C0
33C0
3030
3030
0FC0
0FC0
ENDCHAR
STARTCHAR LATIN
ENCODING 679
SWIDTH 543 0
DWIDTH 12 0
BBX 10 18 0 -4
BITMAP
30C0
30C0
3300
3300
FF00
FF00
3300
3300
3300
3300
3300
3300
0F00
0F00
0300
0300
0C00
0C00
ENDCHAR
STARTCHAR LATIN
ENCODING 680
SWIDTH 543 0
DWIDTH 12 0
BBX 12 16 0 -2
BITMAP
3000
3000
3000
3000
FCF0
FCF0
3300
3300
33C0
33C0
3330
3330
0FF0
0FF0
0300
0300
ENDCHAR
STARTCHAR LATIN
ENCODING 681
SWIDTH 543 0
DWIDTH 12 0
BBX 12 18 0 -4
BITMAP
0C00
0C00
3000
3000
3000
3000
FFC0
FFC0
3330
3330
3330
3330
3330
3330
00C0
00C0
0300
0300
ENDCHAR
STARTCHAR LATIN
ENCODING 682
SWIDTH 543 0
DWIDTH 12 0
BBX 10 14 0 0
BITMAP
C000
C000
C000
C000
CFC0
CFC0
F000
F000
CF00
CF00
C0C0
C0C0
FF00
FF00
ENDCHAR
STARTCHAR LATIN
ENCODING 683
SWIDTH 543 0
DWIDTH 12 0
BBX 10 14 0 0
BITMAP
C000
C000
C000
C000
FFC0
FFC0
C300
C300
CC00
CC00
F000
F000
FFC0
FFC0
ENDCHAR
STARTCHAR LATIN
ENCODING 684
SWIDTH 543 0
DWIDTH 12 0
BBX 10 12 0 0
BITMAP
CCC0
CCC0
CCC0
CCC0
3300
3300
CCC0
CCC0
CCC0
CCC0
3300
3300
ENDCHAR
STARTCHAR LATIN
ENCODING 685
SWIDTH 543 0
DWIDTH 12 0
BBX 10 10 0 0
BITMAP
FFC0
FFC0
C0C0
C0C0
0000
0000
FFC0
FFC0
C0C0
C0C0
ENDCHAR
STARTCHAR LATIN
ENCODING 686
SWIDTH 543 0
DWIDTH 12 0
BBX 10 14 0 -4
BITMAP
C0C0
C0C0
30C0
30C0
30C0
30C0
30C0
30C0
0FC0
0FC0
00C0
00C0
00C0
00C0
ENDCHAR
STARTCHAR LATIN
ENCODING 687
SWIDTH 543 0
DWIDTH 12 0
BBX 12 14 0 -4
BITMAP
C0C0
C0C0
30C0
30C0
30C0
30C0
30C0
30C0
0FC0
0FC0
00C0
00C0
0030
0030
ENDCHAR
STARTCHAR MODIFIER
ENCODING 688
SWIDTH 543 0
DWIDTH 12 0
BBX 6 8 0 6
BITMAP
C0
C0
F0
F0
CC
CC
CC
CC
ENDCHAR
STARTCHAR MODIFIER
ENCODING 689
SWIDTH 543 0
DWIDTH 12 0
BBX 6 10 0 6
BITMAP
3C
3C
C0
C0
F0
F0
CC
CC
CC
CC
ENDCHAR
STARTCHAR MODIFIER
ENCODING 690
SWIDTH 543 0
DWIDTH 12 0
BBX 6 12 0 4
BITMAP
0C
0C
00
00
0C
0C
0C
0C
CC
CC
30
30
ENDCHAR
STARTCHAR MODIFIER
ENCODING 691
SWIDTH 543 0
DWIDTH 12 0
BBX 8 8 0 6
BITMAP
CC
CC
F3
F3
C0
C0
C0
C0
ENDCHAR
STARTCHAR MODIFIER
ENCODING 692
SWIDTH 543 0
DWIDTH 12 0
BBX 8 8 0 6
BITMAP
03
03
03
03
CF
CF
33
33
ENDCHAR
STARTCHAR MODIFIER
ENCODING 693
SWIDTH 543 0
DWIDTH 12 0
BBX 10 10 0 4
BITMAP
0300
0300
0300
0300
CF00
CF00
3300
3300
00C0
00C0
ENDCHAR
STARTCHAR MODIFIER
ENCODING 694
SWIDTH 543 0
DWIDTH 12 0
BBX 6 10 0 6
BITMAP
CC
CC
CC
CC
F0
F0
CC
CC
F0
F0
ENDCHAR
STARTCHAR MODIFIER
ENCODING 695
SWIDTH 543 0
DWIDTH 12 0
BBX 10 8 0 6
BITMAP
CCC0
CCC0
CCC0
CCC0
3300
3300
3300
3300
ENDCHAR
STARTCHAR MODIFIER
ENCODING 696
SWIDTH 543 0
DWIDTH 12 0
BBX 6 10 0 6
BITMAP
CC
CC
CC
CC
3C
3C
0C
0C
F0
F0
ENDCHAR
STARTCHAR MODIFIER
ENCODING 697
SWIDTH 543 0
DWIDTH 12 0
BBX 2 4 2 10
BITMAP
C0
C0
C0
C0
ENDCHAR
STARTCHAR MODIFIER
ENCODING 698
SWIDTH 543 0
DWIDTH 12 0
BBX 6 4 0 10
BITMAP
CC
CC
CC
CC
ENDCHAR
STARTCHAR MODIFIER
ENCODING 699
SWIDTH 543 0
DWIDTH 12 0
BBX 4 6 2 10
BITMAP
30
30
C0
C0
F0
F0
ENDCHAR
STARTCHAR MODIFIER
ENCODING 700
SWIDTH 543 0
DWIDTH 12 0
BBX 4 6 2 10
BITMAP
F0
F0
30
30
C0
C0
ENDCHAR
STARTCHAR MODIFIER
ENCODING 701
SWIDTH 543 0
DWIDTH 12 0
BBX 4 6 2 10
BITMAP
F0
F0
C0
C0
30
30
ENDCHAR
STARTCHAR MODIFIER
ENCODING 706
SWIDTH 543 0
DWIDTH 12 0
BBX 12 10 0 2
BITMAP
00F0
00F0
0F00
0F00
F000
F000
0F00
0F00
00F0
00F0
ENDCHAR
STARTCHAR MODIFIER
ENCODING 707
SWIDTH 543 0
DWIDTH 12 0
BBX 12 10 0 2
BITMAP
F000
F000
0F00
0F00
00F0
00F0
0F00
0F00
F000
F000
ENDCHAR
STARTCHAR MODIFIER
ENCODING 708
SWIDTH 543 0
DWIDTH 12 0
BBX 10 12 0 2
BITMAP
C0C0
C0C0
C0C0
C0C0
3300
3300
3300
3300
0C00
0C00
0C00
0C00
ENDCHAR
STARTCHAR MODIFIER
ENCODING 709
SWIDTH 543 0
DWIDTH 12 0
BBX 10 12 0 2
BITMAP
0C00
0C00
0C00
0C00
3300
3300
3300
3300
C0C0
C0C0
C0C0
C0C0
ENDCHAR
STARTCHAR MODIFIER
ENCODING 710
SWIDTH 543 0
DWIDTH 12 0
BBX 10 6 0 10
BITMAP
0C00
0C00
3300
3300
C0C0
C0C0
ENDCHAR
STARTCHAR CARON
ENCODING 711
SWIDTH 543 0
DWIDTH 12 0
BBX 10 6 0 10
BITMAP
C0C0
C0C0
3300
3300
0C00
0C00
ENDCHAR
STARTCHAR MODIFIER
ENCODING 712
SWIDTH 543 0
DWIDTH 12 0
BBX 2 4 4 10
BITMAP
C0
C0
C0
C0
ENDCHAR
STARTCHAR MODIFIER
ENCODING 713
SWIDTH 543 0
DWIDTH 12 0
BBX 4 2 2 12
BITMAP
F0
F0
ENDCHAR
STARTCHAR MODIFIER
ENCODING 714
SWIDTH 543 0
DWIDTH 12 0
BBX 4 4 4 10
BITMAP
30
30
C0
C0
ENDCHAR
STARTCHAR MODIFIER
ENCODING 715
SWIDTH 543 0
DWIDTH 12 0
BBX 4 4 4 10
BITMAP
C0
C0
30
30
ENDCHAR
STARTCHAR MODIFIER
ENCODING 720
SWIDTH 543 0
DWIDTH 12 0
BBX 6 12 2 0
BITMAP
FC
FC
30
30
00
00
00
00
30
30
FC
FC
ENDCHAR
STARTCHAR MODIFIER
ENCODING 721
SWIDTH 543 0
DWIDTH 12 0
BBX 6 4 2 4
BITMAP
FC
FC
30
30
ENDCHAR
STARTCHAR BREVE
ENCODING 728
SWIDTH 543 0
DWIDTH 12 0
BBX 10 4 2 14
BITMAP
C0C0
C0C0
3F00
3F00
ENDCHAR
STARTCHAR DOT
ENCODING 729
SWIDTH 543 0
DWIDTH 12 0
BBX 4 4 4 14
BITMAP
F0
F0
F0
F0
ENDCHAR
STARTCHAR RING
ENCODING 730
SWIDTH 543 0
DWIDTH 12 0
BBX 6 6 2 12
BITMAP
30
30
CC
CC
30
30
ENDCHAR
STARTCHAR OGONEK
ENCODING 731
SWIDTH 543 0
DWIDTH 12 0
BBX 4 6 4 -4
BITMAP
30
30
C0
C0
30
30
ENDCHAR
STARTCHAR SMALL
ENCODING 732
SWIDTH 543 0
DWIDTH 12 0
BBX 10 4 0 14
BITMAP
3CC0
3CC0
CF00
CF00
ENDCHAR
STARTCHAR DOUBLE
ENCODING 733
SWIDTH 543 0
DWIDTH 12 0
BBX 12 4 0 14
BITMAP
3030
3030
C0C0
C0C0
ENDCHAR
STARTCHAR MODIFIER
ENCODING 734
SWIDTH 543 0
DWIDTH 12 0
BBX 6 4 2 8
BITMAP
F0
F0
CC
CC
ENDCHAR
STARTCHAR MODIFIER
ENCODING 736
SWIDTH 543 0
DWIDTH 12 0
BBX 10 10 0 2
BITMAP
C0C0
C0C0
3300
3300
0C00
0C00
3300
3300
0C00
0C00
ENDCHAR
STARTCHAR MODIFIER
ENCODING 740
SWIDTH 543 0
DWIDTH 12 0
BBX 6 10 2 6
BITMAP
3C
3C
C0
C0
C0
C0
30
30
30
30
ENDCHAR
STARTCHAR MODIFIER
ENCODING 750
SWIDTH 543 0
DWIDTH 12 0
BBX 10 8 0 6
BITMAP
F3C0
F3C0
F3C0
F3C0
30C0
30C0
C300
C300
ENDCHAR
STARTCHAR COMBINING
ENCODING 768
SWIDTH 543 0
DWIDTH 12 0
BBX 4 4 2 14
BITMAP
C0
C0
30
30
ENDCHAR
STARTCHAR COMBINING
ENCODING 769
SWIDTH 543 0
DWIDTH 12 0
BBX 4 4 2 14
BITMAP
30
30
C0
C0
ENDCHAR
STARTCHAR COMBINING
ENCODING 770
SWIDTH 543 0
DWIDTH 12 0
BBX 8 4 0 14
BITMAP
3C
3C
C3
C3
ENDCHAR
STARTCHAR COMBINING
ENCODING 771
SWIDTH 543 0
DWIDTH 12 0
BBX 10 4 0 14
BITMAP
3CC0
3CC0
CF00
CF00
ENDCHAR
STARTCHAR COMBINING
ENCODING 772
SWIDTH 543 0
DWIDTH 12 0
BBX 6 2 2 16
BITMAP
FC
FC
ENDCHAR
STARTCHAR COMBINING
ENCODING 773
SWIDTH 543 0
DWIDTH 12 0
BBX 10 2 0 16
BITMAP
FFC0
FFC0
ENDCHAR
STARTCHAR COMBINING
ENCODING 774
SWIDTH 543 0
DWIDTH 12 0
BBX 8 4 2 14
BITMAP
C3
C3
3C
3C
ENDCHAR
STARTCHAR COMBINING
ENCODING 775
SWIDTH 543 0
DWIDTH 12 0
BBX 2 2 4 16
BITMAP
C0
C0
ENDCHAR
STARTCHAR COMBINING
ENCODING 776
SWIDTH 543 0
DWIDTH 12 0
BBX 6 2 2 16
BITMAP
CC
CC
ENDCHAR
STARTCHAR COMBINING
ENCODING 777
SWIDTH 543 0
DWIDTH 12 0
BBX 6 6 2 14
BITMAP
F0
F0
0C
0C
30
30
ENDCHAR
STARTCHAR COMBINING
ENCODING 778
SWIDTH 543 0
DWIDTH 12 0
BBX 6 6 2 14
BITMAP
30
30
CC
CC
30
30
ENDCHAR
STARTCHAR COMBINING
ENCODING 779
SWIDTH 543 0
DWIDTH 12 0
BBX 10 4 0 14
BITMAP
30C0
30C0
C300
C300
ENDCHAR
STARTCHAR COMBINING
ENCODING 780
SWIDTH 543 0
DWIDTH 12 0
BBX 6 4 2 14
BITMAP
CC
CC
30
30
ENDCHAR
STARTCHAR COMBINING
ENCODING 781
SWIDTH 543 0
DWIDTH 12 0
BBX 2 4 4 14
BITMAP
C0
C0
C0
C0
ENDCHAR
STARTCHAR COMBINING
ENCODING 782
SWIDTH 543 0
DWIDTH 12 0
BBX 6 4 2 14
BITMAP
CC
CC
CC
CC
ENDCHAR
STARTCHAR COMBINING
ENCODING 784
SWIDTH 543 0
DWIDTH 12 0
BBX 10 6 0 12
BITMAP
0C00
0C00
C0C0
C0C0
3F00
3F00
ENDCHAR
STARTCHAR COMBINING
ENCODING 785
SWIDTH 543 0
DWIDTH 12 0
BBX 10 4 0 14
BITMAP
3F00
3F00
C0C0
C0C0
ENDCHAR
STARTCHAR COMBINING
ENCODING 786
SWIDTH 543 0
DWIDTH 12 0
BBX 4 6 2 12
BITMAP
30
30
C0
C0
F0
F0
ENDCHAR
STARTCHAR COMBINING
ENCODING 787
SWIDTH 543 0
DWIDTH 12 0
BBX 4 6 2 12
BITMAP
F0
F0
30
30
C0
C0
ENDCHAR
STARTCHAR COMBINING
ENCODING 788
SWIDTH 543 0
DWIDTH 12 0
BBX 4 6 2 12
BITMAP
F0
F0
C0
C0
30
30
ENDCHAR
STARTCHAR COMBINING
ENCODING 789
SWIDTH 543 0
DWIDTH 12 0
BBX 4 6 2 12
BITMAP
F0
F0
30
30
C0
C0
ENDCHAR
STARTCHAR COMBINING
ENCODING 794
SWIDTH 543 0
DWIDTH 12 0
BBX 8 6 2 12
BITMAP
FF
FF
03
03
03
03
ENDCHAR
STARTCHAR COMBINING
ENCODING 796
SWIDTH 543 0
DWIDTH 12 0
BBX 4 6 2 -6
BITMAP
30
30
C0
C0
30
30
ENDCHAR
STARTCHAR COMBINING
ENCODING 799
SWIDTH 543 0
DWIDTH 12 0
BBX 6 6 2 -6
BITMAP
30
30
FC
FC
30
30
ENDCHAR
STARTCHAR COMBINING
ENCODING 800
SWIDTH 543 0
DWIDTH 12 0
BBX 6 2 2 -4
BITMAP
FC
FC
ENDCHAR
STARTCHAR COMBINING
ENCODING 804
SWIDTH 543 0
DWIDTH 12 0
BBX 6 2 2 -4
BITMAP
CC
CC
ENDCHAR
STARTCHAR COMBINING
ENCODING 805
SWIDTH 543 0
DWIDTH 12 0
BBX 6 6 2 -6
BITMAP
30
30
CC
CC
30
30
ENDCHAR
STARTCHAR COMBINING
ENCODING 810
SWIDTH 543 0
DWIDTH 12 0
BBX 6 4 2 -4
BITMAP
FC
FC
CC
CC
ENDCHAR
STARTCHAR COMBINING
ENCODING 812
SWIDTH 543 0
DWIDTH 12 0
BBX 6 4 2 -4
BITMAP
CC
CC
30
30
ENDCHAR
STARTCHAR COMBINING
ENCODING 816
SWIDTH 543 0
DWIDTH 12 0
BBX 8 4 2 -6
BITMAP
33
33
CC
CC
ENDCHAR
STARTCHAR COMBINING
ENCODING 825
SWIDTH 543 0
DWIDTH 12 0
BBX 4 6 4 -6
BITMAP
C0
C0
30
30
C0
C0
ENDCHAR
STARTCHAR COMBINING
ENCODING 826
SWIDTH 543 0
DWIDTH 12 0
BBX 6 4 2 -6
BITMAP
CC
CC
FC
FC
ENDCHAR
STARTCHAR COMBINING
ENCODING 827
SWIDTH 543 0
DWIDTH 12 0
BBX 6 6 2 -6
BITMAP
FC
FC
CC
CC
FC
FC
ENDCHAR
STARTCHAR COMBINING
ENCODING 828
SWIDTH 543 0
DWIDTH 12 0
BBX 10 4 0 -6
BITMAP
3300
3300
CCC0
CCC0
ENDCHAR
STARTCHAR COMBINING
ENCODING 835
SWIDTH 543 0
DWIDTH 12 0
BBX 4 8 4 6
BITMAP
F0
F0
F0
F0
30
30
C0
C0
ENDCHAR
STARTCHAR COMBINING
ENCODING 836
SWIDTH 543 0
DWIDTH 12 0
BBX 6 4 2 4
BITMAP
FC
FC
30
30
ENDCHAR
STARTCHAR COMBINING
ENCODING 860
SWIDTH 543 0
DWIDTH 12 0
BBX 10 4 0 -4
BITMAP
C0C0
C0C0
3F00
3F00
ENDCHAR
STARTCHAR COMBINING
ENCODING 865
SWIDTH 543 0
DWIDTH 12 0
BBX 10 4 0 14
BITMAP
3F00
3F00
C0C0
C0C0
ENDCHAR
STARTCHAR GREEK
ENCODING 880
SWIDTH 543 0
DWIDTH 12 0
BBX 8 14 0 0
BITMAP
C0
C0
C0
C0
C0
C0
FF
FF
C0
C0
C0
C0
C0
C0
ENDCHAR
STARTCHAR GREEK
ENCODING 881
SWIDTH 543 0
DWIDTH 12 0
BBX 10 12 0 0
BITMAP
C000
C000
3000
3000
3000
3000
3FC0
3FC0
3000
3000
3000
3000
ENDCHAR
STARTCHAR GREEK
ENCODING 882
SWIDTH 543 0
DWIDTH 12 0
BBX 10 14 0 0
BITMAP
FFC0
FFC0
CCC0
CCC0
CCC0
CCC0
0C00
0C00
0C00
0C00
0C00
0C00
0C00
0C00
ENDCHAR
STARTCHAR GREEK
ENCODING 883
SWIDTH 543 0
DWIDTH 12 0
BBX 10 10 0 0
BITMAP
FFC0
FFC0
CCC0
CCC0
0C00
0C00
0C00
0C00
0C00
0C00
ENDCHAR
STARTCHAR GREEK
ENCODING 884
SWIDTH 543 0
DWIDTH 12 0
BBX 6 4 2 14
BITMAP
3C
3C
F0
F0
ENDCHAR
STARTCHAR GREEK
ENCODING 885
SWIDTH 543 0
DWIDTH 12 0
BBX 8 6 0 -2
BITMAP
0F
0F
3C
3C
F0
F0
ENDCHAR
STARTCHAR GREEK
ENCODING 886
SWIDTH 543 0
DWIDTH 12 0
BBX 10 12 0 0
BITMAP
C3C0
C3C0
C3C0
C3C0
CCC0
CCC0
CCC0
CCC0
F0C0
F0C0
F0C0
F0C0
ENDCHAR
STARTCHAR GREEK
ENCODING 887
SWIDTH 543 0
DWIDTH 12 0
BBX 12 12 0 -2
BITMAP
C0C0
C0C0
C3C0
C3C0
CCC0
CCC0
F0C0
F0C0
C0C0
C0C0
0030
0030
ENDCHAR
STARTCHAR GREEK
ENCODING 890
SWIDTH 543 0
DWIDTH 12 0
BBX 4 4 2 -4
BITMAP
C0
C0
F0
F0
ENDCHAR
STARTCHAR GREEK
ENCODING 891
SWIDTH 543 0
DWIDTH 12 0
BBX 10 10 0 0
BITMAP
3F00
3F00
C0C0
C0C0
00C0
00C0
C0C0
C0C0
3F00
3F00
ENDCHAR
STARTCHAR GREEK
ENCODING 892
SWIDTH 543 0
DWIDTH 12 0
BBX 10 10 0 0
BITMAP
3F00
3F00
C0C0
C0C0
CC00
CC00
C0C0
C0C0
3F00
3F00
ENDCHAR
STARTCHAR GREEK
ENCODING 893
SWIDTH 543 0
DWIDTH 12 0
BBX 10 10 0 0
BITMAP
3F00
3F00
C0C0
C0C0
0CC0
0CC0
C0C0
C0C0
3F00
3F00
ENDCHAR
STARTCHAR GREEK
ENCODING 894
SWIDTH 543 0
DWIDTH 12 0
BBX 4 16 4 -4
BITMAP
F0
F0
F0
F0
00
00
00
00
F0
F0
F0
F0
30
30
C0
C0
ENDCHAR
STARTCHAR GREEK
ENCODING 895
SWIDTH 543 0
DWIDTH 12 0
BBX 10 14 0 0
BITMAP
00C0
00C0
00C0
00C0
00C0
00C0
00C0
00C0
00C0
00C0
C0C0
C0C0
3F00
3F00
ENDCHAR
STARTCHAR GREEK
ENCODING 900
SWIDTH 543 0
DWIDTH 12 0
BBX 4 4 4 10
BITMAP
30
30
C0
C0
ENDCHAR
STARTCHAR GREEK
ENCODING 901
SWIDTH 543 0
DWIDTH 12 0
BBX 10 6 0 12
BITMAP
0300
0300
0C00
0C00
C0C0
C0C0
ENDCHAR
STARTCHAR GREEK
ENCODING 902
SWIDTH 543 0
DWIDTH 12 0
BBX 10 16 0 0
BITMAP
3000
3000
CF00
CF00
30C0
30C0
30C0
30C0
3FC0
3FC0
30C0
30C0
30C0
30C0
30C0
30C0
ENDCHAR
STARTCHAR GREEK
ENCODING 903
SWIDTH 543 0
DWIDTH 12 0
BBX 4 4 4 6
BITMAP
F0
F0
F0
F0
ENDCHAR
STARTCHAR GREEK
ENCODING 904
SWIDTH 543 0
DWIDTH 12 0
BBX 12 16 0 0
BITMAP
3000
3000
CFF0
CFF0
0C00
0C00
0C00
0C00
0FC0
0FC0
0C00
0C00
0C00
0C00
0FF0
0FF0
ENDCHAR
STARTCHAR GREEK
ENCODING 905
SWIDTH 543 0
DWIDTH 12 0
BBX 12 16 0 0
BITMAP
3000
3000
CC30
CC30
0C30
0C30
0C30
0C30
0FF0
0FF0
0C30
0C30
0C30
0C30
0C30
0C30
ENDCHAR
STARTCHAR GREEK
ENCODING 906
SWIDTH 543 0
DWIDTH 12 0
BBX 10 16 0 0
BITMAP
3000
3000
CFC0
CFC0
0300
0300
0300
0300
0300
0300
0300
0300
0300
0300
0FC0
0FC0
ENDCHAR
STARTCHAR GREEK
ENCODING 908
SWIDTH 543 0
DWIDTH 12 0
BBX 10 16 0 0
BITMAP
3000
3000
CF00
CF00
30C0
30C0
30C0
30C0
30C0
30C0
30C0
30C0
30C0
30C0
0F00
0F00
ENDCHAR
STARTCHAR GREEK
ENCODING 910
SWIDTH 543 0
DWIDTH 12 0
BBX 10 16 0 0
BITMAP
3000
3000
CCC0
CCC0
0CC0
0CC0
0CC0
0CC0
0300
0300
0300
0300
0300
0300
0300
0300
ENDCHAR
STARTCHAR GREEK
ENCODING 911
SWIDTH 543 0
DWIDTH 12 0
BBX 10 18 0 0
BITMAP
3000
3000
C000
C000
3F00
3F00
C0C0
C0C0
C0C0
C0C0
C0C0
C0C0
C0C0
C0C0
3300
3300
F3C0
F3C0
ENDCHAR
STARTCHAR GREEK
ENCODING 912
SWIDTH 543 0
DWIDTH 12 0
BBX 10 18 0 0
BITMAP
0300
0300
0C00
0C00
C0C0
C0C0
0000
0000
0C00
0C00
0C00
0C00
0C00
0C00
0CC0
0CC0
0300
0300
ENDCHAR
STARTCHAR GREEK
ENCODING 913
SWIDTH 543 0
DWIDTH 12 0
BBX 10 14 0 0
BITMAP
3F00
3F00
C0C0
C0C0
C0C0
C0C0
FFC0
FFC0
C0C0
C0C0
C0C0
C0C0
C0C0
C0C0
ENDCHAR
STARTCHAR GREEK
ENCODING 914
SWIDTH 543 0
DWIDTH 12 0
BBX 10 14 0 0
BITMAP
FF00
FF00
C0C0
C0C0
C0C0
C0C0
FF00
FF00
C0C0
C0C0
C0C0
C0C0
FF00
FF00
ENDCHAR
STARTCHAR GREEK
ENCODING 915
SWIDTH 543 0
DWIDTH 12 0
BBX 10 14 0 0
BITMAP
FFC0
FFC0
C000
C000
C000
C000
C000
C000
C000
C000
C000
C000
C000
C000
ENDCHAR
STARTCHAR GREEK
ENCODING 916
SWIDTH 543 0
DWIDTH 12 0
BBX 10 14 0 0
BITMAP
0C00
0C00
0C00
0C00
3300
3300
3300
3300
3300
3300
C0C0
C0C0
FFC0
FFC0
ENDCHAR
STARTCHAR GREEK
ENCODING 917
SWIDTH 543 0
DWIDTH 12 0
BBX 10 14 0 0
BITMAP
FFC0
FFC0
C000
C000
C000
C000
FF00
FF00
C000
C000
C000
C000
FFC0
FFC0
ENDCHAR
STARTCHAR GREEK
ENCODING 918
SWIDTH 543 0
DWIDTH 12 0
BBX 10 14 0 0
BITMAP
FFC0
FFC0
00C0
00C0
0300
0300
0C00
0C00
3000
3000
C000
C000
FFC0
FFC0
ENDCHAR
STARTCHAR GREEK
ENCODING 919
SWIDTH 543 0
DWIDTH 12 0
BBX 10 14 0 0
BITMAP
C0C0
C0C0
C0C0
C0C0
C0C0
C0C0
FFC0
FFC0
C0C0
C0C0
C0C0
C0C0
C0C0
C0C0
ENDCHAR
STARTCHAR GREEK
ENCODING 920
SWIDTH 543 0
DWIDTH 12 0
BBX 10 14 0 0
BITMAP
3F00
3F00
C0C0
C0C0
C0C0
C0C0
FFC0
FFC0
C0C0
C0C0
C0C0
C0C0
3F00
3F00
ENDCHAR
STARTCHAR GREEK
ENCODING 921
SWIDTH 543 0
DWIDTH 12 0
BBX 6 14 2 0
BITMAP
FC
FC
30
30
30
30
30
30
30
30
30
30
FC
FC
ENDCHAR
STARTCHAR GREEK
ENCODING 922
SWIDTH 543 0
DWIDTH 12 0
BBX 10 14 0 0
BITMAP
C0C0
C0C0
C300
C300
CC00
CC00
F000
F000
CC00
CC00
C300
C300
C0C0
C0C0
ENDCHAR
STARTCHAR GREEK
ENCODING 923
SWIDTH 543 0
DWIDTH 12 0
BBX 10 14 0 0
BITMAP
0C00
0C00
0C00
0C00
3300
3300
3300
3300
3300
3300
C0C0
C0C0
C0C0
C0C0
ENDCHAR
STARTCHAR GREEK
ENCODING 924
SWIDTH 543 0
DWIDTH 12 0
BBX 10 14 0 0
BITMAP
C0C0
C0C0
F3C0
F3C0
CCC0
CCC0
C0C0
C0C0
C0C0
C0C0
C0C0
C0C0
C0C0
C0C0
ENDCHAR
STARTCHAR GREEK
ENCODING 925
SWIDTH 543 0
DWIDTH 12 0
BBX 10 14 0 0
BITMAP
F0C0
F0C0
F0C0
F0C0
CCC0
CCC0
CCC0
CCC0
CCC0
CCC0
C3C0
C3C0
C3C0
C3C0
ENDCHAR
STARTCHAR GREEK
ENCODING 926
SWIDTH 543 0
DWIDTH 12 0
BBX 10 14 0 0
BITMAP
FFC0
FFC0
0000
0000
0000
0000
3F00
3F00
0000
0000
0000
0000
FFC0
FFC0
ENDCHAR
STARTCHAR GREEK
ENCODING 927
SWIDTH 543 0
DWIDTH 12 0
BBX 10 14 0 0
BITMAP
3F00
3F00
C0C0
C0C0
C0C0
C0C0
C0C0
C0C0
C0C0
C0C0
C0C0
C0C0
3F00
3F00
ENDCHAR
STARTCHAR GREEK
ENCODING 928
SWIDTH 543 0
DWIDTH 12 0
BBX 10 14 0 0
BITMAP
FFC0
FFC0
C0C0
C0C0
C0C0
C0C0
C0C0
C0C0
C0C0
C0C0
C0C0
C0C0
C0C0
C0C0
ENDCHAR
STARTCHAR GREEK
ENCODING 929
SWIDTH 543 0
DWIDTH 12 0
BBX 10 14 0 0
BITMAP
FF00
FF00
C0C0
C0C0
C0C0
C0C0
FF00
FF00
C000
C000
C000
C000
C000
C000
ENDCHAR
STARTCHAR GREEK
ENCODING 931
SWIDTH 543 0
DWIDTH 12 0
BBX 10 14 0 0
BITMAP
FFC0
FFC0
C000
C000
3000
3000
0C00
0C00
3000
3000
C000
C000
FFC0
FFC0
ENDCHAR
STARTCHAR GREEK
ENCODING 932
SWIDTH 543 0
DWIDTH 12 0
BBX 10 14 0 0
BITMAP
FFC0
FFC0
0C00
0C00
0C00
0C00
0C00
0C00
0C00
0C00
0C00
0C00
0C00
0C00
ENDCHAR
STARTCHAR GREEK
ENCODING 933
SWIDTH 543 0
DWIDTH 12 0
BBX 10 14 0 0
BITMAP
C0C0
C0C0
C0C0
C0C0
C0C0
C0C0
3300
3300
0C00
0C00
0C00
0C00
0C00
0C00
ENDCHAR
STARTCHAR GREEK
ENCODING 934
SWIDTH 543 0
DWIDTH 12 0
BBX 10 14 0 0
BITMAP
0C00
0C00
3F00
3F00
CCC0
CCC0
CCC0
CCC0
CCC0
CCC0
3F00
3F00
0C00
0C00
ENDCHAR
STARTCHAR GREEK
ENCODING 935
SWIDTH 543 0
DWIDTH 12 0
BBX 10 14 0 0
BITMAP
C0C0
C0C0
C0C0
C0C0
3300
3300
0C00
0C00
3300
3300
C0C0
C0C0
C0C0
C0C0
ENDCHAR
STARTCHAR GREEK
ENCODING 936
SWIDTH 543 0
DWIDTH 12 0
BBX 10 14 0 0
BITMAP
CCC0
CCC0
CCC0
CCC0
CCC0
CCC0
3F00
3F00
0C00
0C00
0C00
0C00
0C00
0C00
ENDCHAR
STARTCHAR GREEK
ENCODING 937
SWIDTH 543 0
DWIDTH 12 0
BBX 10 14 0 0
BITMAP
3F00
3F00
C0C0
C0C0
C0C0
C0C0
C0C0
C0C0
C0C0
C0C0
3300
3300
F3C0
F3C0
ENDCHAR
STARTCHAR GREEK
ENCODING 938
SWIDTH 543 0
DWIDTH 12 0
BBX 6 18 2 0
BITMAP
CC
CC
00
00
FC
FC
30
30
30
30
30
30
30
30
30
30
FC
FC
ENDCHAR
STARTCHAR GREEK
ENCODING 939
SWIDTH 543 0
DWIDTH 12 0
BBX 10 18 0 0
BITMAP
3300
3300
0000
0000
C0C0
C0C0
C0C0
C0C0
C0C0
C0C0
3300
3300
0C00
0C00
0C00
0C00
0C00
0C00
ENDCHAR
STARTCHAR GREEK
ENCODING 940
SWIDTH 543 0
DWIDTH 12 0
BBX 10 16 0 0
BITMAP
0300
0300
0C00
0C00
0000
0000
3CC0
3CC0
C3C0
C3C0
C0C0
C0C0
C3C0
C3C0
3CC0
3CC0
ENDCHAR
STARTCHAR GREEK
ENCODING 941
SWIDTH 543 0
DWIDTH 12 0
BBX 10 16 0 0
BITMAP
0300
0300
0C00
0C00
0000
0000
3F00
3F00
C0C0
C0C0
3C00
3C00
C0C0
C0C0
3F00
3F00
ENDCHAR
STARTCHAR GREEK
ENCODING 942
SWIDTH 543 0
DWIDTH 12 0
BBX 10 20 0 -4
BITMAP
0300
0300
0C00
0C00
0000
0000
CF00
CF00
F0C0
F0C0
C0C0
C0C0
C0C0
C0C0
C0C0
C0C0
00C0
00C0
00C0
00C0
ENDCHAR
STARTCHAR GREEK
ENCODING 943
SWIDTH 543 0
DWIDTH 12 0
BBX 6 16 4 0
BITMAP
30
30
C0
C0
00
00
C0
C0
C0
C0
C0
C0
CC
CC
30
30
ENDCHAR
STARTCHAR GREEK
ENCODING 944
SWIDTH 543 0
DWIDTH 12 0
BBX 10 18 0 0
BITMAP
0300
0300
0C00
0C00
C0C0
C0C0
0000
0000
C0C0
C0C0
C0C0
C0C0
C0C0
C0C0
C0C0
C0C0
3F00
3F00
ENDCHAR
STARTCHAR GREEK
ENCODING 945
SWIDTH 543 0
DWIDTH 12 0
BBX 10 10 0 0
BITMAP
3CC0
3CC0
C3C0
C3C0
C0C0
C0C0
C3C0
C3C0
3CC0
3CC0
ENDCHAR
STARTCHAR GREEK
ENCODING 946
SWIDTH 543 0
DWIDTH 12 0
BBX 10 18 0 -4
BITMAP
3C00
3C00
C300
C300
C300
C300
CF00
CF00
C0C0
C0C0
C0C0
C0C0
FF00
FF00
C000
C000
C000
C000
ENDCHAR
STARTCHAR GREEK
ENCODING 947
SWIDTH 543 0
DWIDTH 12 0
BBX 10 14 0 -4
BITMAP
C0C0
C0C0
C0C0
C0C0
3300
3300
3300
3300
0C00
0C00
0C00
0C00
0C00
0C00
ENDCHAR
STARTCHAR GREEK
ENCODING 948
SWIDTH 543 0
DWIDTH 12 0
BBX 10 16 0 0
BITMAP
FFC0
FFC0
3000
3000
0C00
0C00
3F00
3F00
C0C0
C0C0
C0C0
C0C0
C0C0
C0C0
3F00
3F00
ENDCHAR
STARTCHAR GREEK
ENCODING 949
SWIDTH 543 0
DWIDTH 12 0
BBX 10 10 0 0
BITMAP
3F00
3F00
C0C0
C0C0
3C00
3C00
C0C0
C0C0
3F00
3F00
ENDCHAR
STARTCHAR GREEK
ENCODING 950
SWIDTH 543 0
DWIDTH 12 0
BBX 10 18 0 -4
BITMAP
FFC0
FFC0
0C00
0C00
3000
3000
C000
C000
C000
C000
C000
C000
3F00
3F00
00C0
00C0
0300
0300
ENDCHAR
STARTCHAR GREEK
ENCODING 951
SWIDTH 543 0
DWIDTH 12 0
BBX 10 14 0 -4
BITMAP
CF00
CF00
F0C0
F0C0
C0C0
C0C0
C0C0
C0C0
C0C0
C0C0
00C0
00C0
00C0
00C0
ENDCHAR
STARTCHAR GREEK
ENCODING 952
SWIDTH 543 0
DWIDTH 12 0
BBX 8 14 0 0
BITMAP
3C
3C
C3
C3
C3
C3
FF
FF
C3
C3
C3
C3
3C
3C
ENDCHAR
STARTCHAR GREEK
ENCODING 953
SWIDTH 543 0
DWIDTH 12 0
BBX 6 10 4 0
BITMAP
C0
C0
C0
C0
C0
C0
CC
CC
30
30
ENDCHAR
STARTCHAR GREEK
ENCODING 954
SWIDTH 543 0
DWIDTH 12 0
BBX 10 10 0 0
BITMAP
C0C0
C0C0
C300
C300
FC00
FC00
C300
C300
C0C0
C0C0
ENDCHAR
STARTCHAR GREEK
ENCODING 955
SWIDTH 543 0
DWIDTH 12 0
BBX 10 16 0 0
BITMAP
3000
3000
3000
3000
0C00
0C00
0C00
0C00
3300
3300
3300
3300
C0C0
C0C0
C0C0
C0C0
ENDCHAR
STARTCHAR GREEK
ENCODING 956
SWIDTH 543 0
DWIDTH 12 0
BBX 10 14 0 -4
BITMAP
C300
C300
C300
C300
C300
C300
C300
C300
FCC0
FCC0
C000
C000
C000
C000
ENDCHAR
STARTCHAR GREEK
ENCODING 957
SWIDTH 543 0
DWIDTH 12 0
BBX 10 10 0 0
BITMAP
C0C0
C0C0
C0C0
C0C0
3300
3300
3300
3300
0C00
0C00
ENDCHAR
STARTCHAR GREEK
ENCODING 958
SWIDTH 543 0
DWIDTH 12 0
BBX 10 18 0 -4
BITMAP
3F00
3F00
C0C0
C0C0
C000
C000
3F00
3F00
C000
C000
C000
C000
3F00
3F00
00C0
00C0
0F00
0F00
ENDCHAR
STARTCHAR GREEK
ENCODING 959
SWIDTH 543 0
DWIDTH 12 0
BBX 10 10 0 0
BITMAP
3F00
3F00
C0C0
C0C0
C0C0
C0C0
C0C0
C0C0
3F00
3F00
ENDCHAR
STARTCHAR GREEK
ENCODING 960
SWIDTH 543 0
DWIDTH 12 0
BBX 10 10 0 0
BITMAP
FFC0
FFC0
3300
3300
3300
3300
3300
3300
30C0
30C0
ENDCHAR
STARTCHAR GREEK
ENCODING 961
SWIDTH 543 0
DWIDTH 12 0
BBX 10 14 0 -4
BITMAP
3F00
3F00
C0C0
C0C0
C0C0
C0C0
C0C0
C0C0
FF00
FF00
C000
C000
C000
C000
ENDCHAR
STARTCHAR GREEK
ENCODING 962
SWIDTH 543 0
DWIDTH 12 0
BBX 10 14 0 -4
BITMAP
3F00
3F00
C0C0
C0C0
C000
C000
C000
C000
3F00
3F00
00C0
00C0
0F00
0F00
ENDCHAR
STARTCHAR GREEK
ENCODING 963
SWIDTH 543 0
DWIDTH 12 0
BBX 10 10 0 0
BITMAP
3FC0
3FC0
C300
C300
C0C0
C0C0
C0C0
C0C0
3F00
3F00
ENDCHAR
STARTCHAR GREEK
ENCODING 964
SWIDTH 543 0
DWIDTH 12 0
BBX 10 10 0 0
BITMAP
FFC0
FFC0
0C00
0C00
0C00
0C00
0C00
0C00
0300
0300
ENDCHAR
STARTCHAR GREEK
ENCODING 965
SWIDTH 543 0
DWIDTH 12 0
BBX 10 10 0 0
BITMAP
C0C0
C0C0
C0C0
C0C0
C0C0
C0C0
C0C0
C0C0
3F00
3F00
ENDCHAR
STARTCHAR GREEK
ENCODING 966
SWIDTH 543 0
DWIDTH 12 0
BBX 10 14 0 -4
BITMAP
CF00
CF00
CCC0
CCC0
CCC0
CCC0
CCC0
CCC0
3F00
3F00
0C00
0C00
0C00
0C00
ENDCHAR
STARTCHAR GREEK
ENCODING 967
SWIDTH 543 0
DWIDTH 12 0
BBX 10 14 0 -4
BITMAP
C0C0
C0C0
C0C0
C0C0
3300
3300
0C00
0C00
3300
3300
C0C0
C0C0
C0C0
C0C0
ENDCHAR
STARTCHAR GREEK
ENCODING 968
SWIDTH 543 0
DWIDTH 12 0
BBX 10 14 0 -4
BITMAP
CCC0
CCC0
CCC0
CCC0
CCC0
CCC0
3F00
3F00
0C00
0C00
0C00
0C00
0C00
0C00
ENDCHAR
STARTCHAR GREEK
ENCODING 969
SWIDTH 543 0
DWIDTH 12 0
BBX 10 10 0 0
BITMAP
C0C0
C0C0
C0C0
C0C0
CCC0
CCC0
CCC0
CCC0
3300
3300
ENDCHAR
STARTCHAR GREEK
ENCODING 970
SWIDTH 543 0
DWIDTH 12 0
BBX 8 14 2 0
BITMAP
CC
CC
00
00
30
30
30
30
30
30
33
33
0C
0C
ENDCHAR
STARTCHAR GREEK
ENCODING 971
SWIDTH 543 0
DWIDTH 12 0
BBX 10 14 0 0
BITMAP
3300
3300
0000
0000
C0C0
C0C0
C0C0
C0C0
C0C0
C0C0
C0C0
C0C0
3F00
3F00
ENDCHAR
STARTCHAR GREEK
ENCODING 972
SWIDTH 543 0
DWIDTH 12 0
BBX 10 16 0 0
BITMAP
0300
0300
0C00
0C00
0000
0000
3F00
3F00
C0C0
C0C0
C0C0
C0C0
C0C0
C0C0
3F00
3F00
ENDCHAR
STARTCHAR GREEK
ENCODING 973
SWIDTH 543 0
DWIDTH 12 0
BBX 10 16 0 0
BITMAP
0300
0300
0C00
0C00
0000
0000
C0C0
C0C0
C0C0
C0C0
C0C0
C0C0
C0C0
C0C0
3F00
3F00
ENDCHAR
STARTCHAR GREEK
ENCODING 974
SWIDTH 543 0
DWIDTH 12 0
BBX 10 16 0 0
BITMAP
0300
0300
0C00
0C00
0000
0000
C0C0
C0C0
C0C0
C0C0
CCC0
CCC0
CCC0
CCC0
3300
3300
ENDCHAR
STARTCHAR GREEK
ENCODING 975
SWIDTH 543 0
DWIDTH 12 0
BBX 10 16 0 -2
BITMAP
C0C0
C0C0
C300
C300
CC00
CC00
F000
F000
CC00
CC00
C300
C300
C0C0
C0C0
0300
0300
ENDCHAR
STARTCHAR GREEK
ENCODING 976
SWIDTH 543 0
DWIDTH 12 0
BBX 10 14 0 0
BITMAP
3C00
3C00
C300
C300
CC00
CC00
FF00
FF00
C0C0
C0C0
C0C0
C0C0
3F00
3F00
ENDCHAR
STARTCHAR GREEK
ENCODING 977
SWIDTH 543 0
DWIDTH 12 0
BBX 10 14 0 0
BITMAP
3F00
3F00
C0C0
C0C0
C0C0
C0C0
3FC0
3FC0
00C0
00C0
C0C0
C0C0
3F00
3F00
ENDCHAR
STARTCHAR GREEK
ENCODING 978
SWIDTH 543 0
DWIDTH 12 0
BBX 12 14 0 0
BITMAP
C0C0
C0C0
C0F0
C0F0
C0C0
C0C0
3300
3300
0C00
0C00
0C00
0C00
0C00
0C00
ENDCHAR
STARTCHAR GREEK
ENCODING 979
SWIDTH 543 0
DWIDTH 12 0
BBX 12 16 0 0
BITMAP
3000
3000
C0C0
C0C0
C0F0
C0F0
C0C0
C0C0
3300
3300
0C00
0C00
0C00
0C00
0C00
0C00
ENDCHAR
STARTCHAR GREEK
ENCODING 980
SWIDTH 543 0
DWIDTH 12 0
BBX 12 18 0 0
BITMAP
3300
3300
0000
0000
C0C0
C0C0
C0F0
C0F0
C0C0
C0C0
3300
3300
0C00
0C00
0C00
0C00
0C00
0C00
ENDCHAR
STARTCHAR GREEK
ENCODING 981
SWIDTH 543 0
DWIDTH 12 0
BBX 10 18 0 -4
BITMAP
0C00
0C00
0C00
0C00
3F00
3F00
CCC0
CCC0
CCC0
CCC0
CCC0
CCC0
3F00
3F00
0C00
0C00
0C00
0C00
ENDCHAR
STARTCHAR GREEK
ENCODING 982
SWIDTH 543 0
DWIDTH 12 0
BBX 10 10 0 0
BITMAP
FFC0
FFC0
C0C0
C0C0
CCC0
CCC0
CCC0
CCC0
3300
3300
ENDCHAR
STARTCHAR GREEK
ENCODING 983
SWIDTH 543 0
DWIDTH 12 0
BBX 10 14 0 -4
BITMAP
C3C0
C3C0
CC00
CC00
FC00
FC00
C300
C300
C0C0
C0C0
0300
0300
0C00
0C00
ENDCHAR
STARTCHAR GREEK
ENCODING 984
SWIDTH 543 0
DWIDTH 12 0
BBX 10 18 0 -4
BITMAP
3F00
3F00
C0C0
C0C0
C0C0
C0C0
C0C0
C0C0
C0C0
C0C0
C0C0
C0C0
3F00
3F00
0C00
0C00
0C00
0C00
ENDCHAR
STARTCHAR GREEK
ENCODING 985
SWIDTH 543 0
DWIDTH 12 0
BBX 10 14 0 -4
BITMAP
3F00
3F00
C0C0
C0C0
C0C0
C0C0
C0C0
C0C0
3F00
3F00
0C00
0C00
0C00
0C00
ENDCHAR
STARTCHAR GREEK
ENCODING 986
SWIDTH 543 0
DWIDTH 12 0
BBX 10 18 0 -4
BITMAP
3FC0
3FC0
C000
C000
C000
C000
C000
C000
C000
C000
C000
C000
3F00
3F00
00C0
00C0
0F00
0F00
ENDCHAR
STARTCHAR GREEK
ENCODING 987
SWIDTH 543 0
DWIDTH 12 0
BBX 10 14 0 -4
BITMAP
3FC0
3FC0
C000
C000
C000
C000
C000
C000
3F00
3F00
00C0
00C0
0F00
0F00
ENDCHAR
STARTCHAR GREEK
ENCODING 988
SWIDTH 543 0
DWIDTH 12 0
BBX 10 14 0 0
BITMAP
FFC0
FFC0
C000
C000
C000
C000
FF00
FF00
C000
C000
C000
C000
C000
C000
ENDCHAR
STARTCHAR GREEK
ENCODING 989
SWIDTH 543 0
DWIDTH 12 0
BBX 8 14 0 -4
BITMAP
FF
FF
C0
C0
C0
C0
FC
FC
C0
C0
C0
C0
C0
C0
ENDCHAR
STARTCHAR GREEK
ENCODING 990
SWIDTH 543 0
DWIDTH 12 0
BBX 10 14 0 0
BITMAP
3000
3000
3000
3000
C000
C000
FFC0
FFC0
00C0
00C0
0300
0300
0300
0300
ENDCHAR
STARTCHAR GREEK
ENCODING 991
SWIDTH 543 0
DWIDTH 12 0
BBX 8 14 0 -2
BITMAP
0C
0C
30
30
C0
C0
FF
FF
03
03
0C
0C
30
30
ENDCHAR
STARTCHAR GREEK
ENCODING 992
SWIDTH 543 0
DWIDTH 12 0
BBX 10 18 0 -4
BITMAP
F000
F000
0C00
0C00
0F00
0F00
3300
3300
C3C0
C3C0
0CC0
0CC0
30C0
30C0
00C0
00C0
00C0
00C0
ENDCHAR
STARTCHAR GREEK
ENCODING 993
SWIDTH 543 0
DWIDTH 12 0
BBX 8 18 0 -4
BITMAP
C0
C0
30
30
0C
0C
3C
3C
C3
C3
0F
0F
33
33
03
03
03
03
ENDCHAR
STARTCHAR COPTIC
ENCODING 994
SWIDTH 543 0
DWIDTH 12 0
BBX 10 18 0 -4
BITMAP
CCC0
CCC0
CCC0
CCC0
CCC0
CCC0
CCC0
CCC0
CCC0
CCC0
CCC0
CCC0
33C0
33C0
00C0
00C0
FF00
FF00
ENDCHAR
STARTCHAR COPTIC
ENCODING 995
SWIDTH 543 0
DWIDTH 12 0
BBX 10 14 0 -4
BITMAP
CCC0
CCC0
CCC0
CCC0
CCC0
CCC0
CCC0
CCC0
33C0
33C0
00C0
00C0
FF00
FF00
ENDCHAR
STARTCHAR COPTIC
ENCODING 996
SWIDTH 543 0
DWIDTH 12 0
BBX 10 14 0 0
BITMAP
3CC0
3CC0
C0C0
C0C0
C0C0
C0C0
3FC0
3FC0
00C0
00C0
00C0
00C0
00C0
00C0
ENDCHAR
STARTCHAR COPTIC
ENCODING 997
SWIDTH 543 0
DWIDTH 12 0
BBX 8 12 0 0
BITMAP
33
33
C3
C3
C3
C3
3F
3F
03
03
03
03
ENDCHAR
STARTCHAR COPTIC
ENCODING 998
SWIDTH 543 0
DWIDTH 12 0
BBX 10 18 0 -4
BITMAP
C000
C000
C000
C000
C000
C000
FF00
FF00
C0C0
C0C0
C0C0
C0C0
C0C0
C0C0
00C0
00C0
FF00
FF00
ENDCHAR
STARTCHAR COPTIC
ENCODING 999
SWIDTH 543 0
DWIDTH 12 0
BBX 10 14 0 -2
BITMAP
0300
0300
3F00
3F00
CCC0
CCC0
30C0
30C0
00C0
00C0
3F00
3F00
C000
C000
ENDCHAR
STARTCHAR COPTIC
ENCODING 1000
SWIDTH 543 0
DWIDTH 12 0
BBX 10 14 0 0
BITMAP
3C00
3C00
C300
C300
0300
0300
3C00
3C00
C000
C000
C0C0
C0C0
3F00
3F00
ENDCHAR
STARTCHAR COPTIC
ENCODING 1001
SWIDTH 543 0
DWIDTH 12 0
BBX 10 12 0 0
BITMAP
3C00
3C00
C300
C300
0300
0300
3C00
3C00
C0C0
C0C0
3F00
3F00
ENDCHAR
STARTCHAR COPTIC
ENCODING 1002
SWIDTH 543 0
DWIDTH 12 0
BBX 10 14 0 0
BITMAP
3300
3300
CCC0
CCC0
0C00
0C00
3300
3300
3300
3300
C0C0
C0C0
FFC0
FFC0
ENDCHAR
STARTCHAR COPTIC
ENCODING 1003
SWIDTH 543 0
DWIDTH 12 0
BBX 10 10 0 0
BITMAP
3300
3300
CCC0
CCC0
0C00
0C00
3300
3300
FFC0
FFC0
ENDCHAR
STARTCHAR COPTIC
ENCODING 1004
SWIDTH 543 0
DWIDTH 12 0
BBX 10 14 0 0
BITMAP
3FC0
3FC0
C000
C000
FF00
FF00
C0C0
C0C0
C0C0
C0C0
C0C0
C0C0
3F00
3F00
ENDCHAR
STARTCHAR COPTIC
ENCODING 1005
SWIDTH 543 0
DWIDTH 12 0
BBX 10 14 0 0
BITMAP
3F00
3F00
C000
C000
C000
C000
FF00
FF00
C0C0
C0C0
C0C0
C0C0
3F00
3F00
ENDCHAR
STARTCHAR COPTIC
ENCODING 1006
SWIDTH 543 0
DWIDTH 12 0
BBX 10 14 0 0
BITMAP
0C00
0C00
3FC0
3FC0
CC00
CC00
0C00
0C00
0C00
0C00
0C00
0C00
0C00
0C00
ENDCHAR
STARTCHAR COPTIC
ENCODING 1007
SWIDTH 543 0
DWIDTH 12 0
BBX 10 16 0 -4
BITMAP
0C00
0C00
3FC0
3FC0
CC00
CC00
0C00
0C00
0C00
0C00
0C00
0C00
0C00
0C00
3000
3000
ENDCHAR
STARTCHAR GREEK
ENCODING 1008
SWIDTH 543 0
DWIDTH 12 0
BBX 10 10 0 0
BITMAP
F0C0
F0C0
3300
3300
3F00
3F00
3300
3300
C3C0
C3C0
ENDCHAR
STARTCHAR GREEK
ENCODING 1009
SWIDTH 543 0
DWIDTH 12 0
BBX 10 16 0 -6
BITMAP
3F00
3F00
C0C0
C0C0
C0C0
C0C0
C0C0
C0C0
FF00
FF00
C000
C000
3F00
3F00
00C0
00C0
ENDCHAR
STARTCHAR GREEK
ENCODING 1010
SWIDTH 543 0
DWIDTH 12 0
BBX 10 10 0 0
BITMAP
3F00
3F00
C0C0
C0C0
C000
C000
C0C0
C0C0
3F00
3F00
ENDCHAR
STARTCHAR GREEK
ENCODING 1011
SWIDTH 543 0
DWIDTH 12 0
BBX 6 18 0 -4
BITMAP
0C
0C
00
00
3C
3C
0C
0C
0C
0C
0C
0C
0C
0C
0C
0C
F0
F0
ENDCHAR
STARTCHAR GREEK
ENCODING 1012
SWIDTH 543 0
DWIDTH 12 0
BBX 10 14 0 0
BITMAP
3F00
3F00
C0C0
C0C0
C0C0
C0C0
FFC0
FFC0
C0C0
C0C0
C0C0
C0C0
3F00
3F00
ENDCHAR
STARTCHAR GREEK
ENCODING 1013
SWIDTH 543 0
DWIDTH 12 0
BBX 8 10 0 0
BITMAP
3F
3F
C0
C0
FC
FC
C0
C0
3F
3F
ENDCHAR
STARTCHAR GREEK
ENCODING 1014
SWIDTH 543 0
DWIDTH 12 0
BBX 8 10 0 0
BITMAP
FC
FC
03
03
3F
3F
03
03
FC
FC
ENDCHAR
STARTCHAR GREEK
ENCODING 1015
SWIDTH 543 0
DWIDTH 12 0
BBX 10 14 0 0
BITMAP
C000
C000
FF00
FF00
C0C0
C0C0
C0C0
C0C0
C0C0
C0C0
FF00
FF00
C000
C000
ENDCHAR
STARTCHAR GREEK
ENCODING 1016
SWIDTH 543 0
DWIDTH 12 0
BBX 10 18 0 -4
BITMAP
C000
C000
C000
C000
FF00
FF00
C0C0
C0C0
C0C0
C0C0
C0C0
C0C0
FF00
FF00
C000
C000
C000
C000
ENDCHAR
STARTCHAR GREEK
ENCODING 1017
SWIDTH 543 0
DWIDTH 12 0
BBX 10 14 0 0
BITMAP
3F00
3F00
C0C0
C0C0
C000
C000
C000
C000
C000
C000
C0C0
C0C0
3F00
3F00
ENDCHAR
STARTCHAR GREEK
ENCODING 1018
SWIDTH 543 0
DWIDTH 12 0
BBX 10 14 0 0
BITMAP
C0C0
C0C0
F3C0
F3C0
CCC0
CCC0
C0C0
C0C0
C0C0
C0C0
C0C0
C0C0
C0C0
C0C0
ENDCHAR
STARTCHAR GREEK
ENCODING 1019
SWIDTH 543 0
DWIDTH 12 0
BBX 10 12 0 -4
BITMAP
C0C0
C0C0
F3C0
F3C0
CCC0
CCC0
CCC0
CCC0
C000
C000
C000
C000
ENDCHAR
STARTCHAR GREEK
ENCODING 1020
SWIDTH 543 0
DWIDTH 12 0
BBX 10 16 0 -6
BITMAP
3F00
3F00
30C0
30C0
30C0
30C0
30C0
30C0
3F00
3F00
3000
3000
FF00
FF00
3000
3000
ENDCHAR
STARTCHAR GREEK
ENCODING 1021
SWIDTH 543 0
DWIDTH 12 0
BBX 10 14 0 0
BITMAP
3F00
3F00
C0C0
C0C0
00C0
00C0
00C0
00C0
00C0
00C0
C0C0
C0C0
3F00
3F00
ENDCHAR
STARTCHAR GREEK
ENCODING 1022
SWIDTH 543 0
DWIDTH 12 0
BBX 10 14 0 0
BITMAP
3F00
3F00
C0C0
C0C0
C000
C000
CC00
CC00
C000
C000
C0C0
C0C0
3F00
3F00
ENDCHAR
STARTCHAR GREEK
ENCODING 1023
SWIDTH 543 0
DWIDTH 12 0
BBX 10 14 0 0
BITMAP
3F00
3F00
C0C0
C0C0
00C0
00C0
0CC0
0CC0
00C0
00C0
C0C0
C0C0
3F00
3F00
ENDCHAR
STARTCHAR CYRILLIC
ENCODING 1024
SWIDTH 543 0
DWIDTH 12 0
BBX 10 18 0 0
BITMAP
3000
3000
0C00
0C00
FFC0
FFC0
C000
C000
C000
C000
FF00
FF00
C000
C000
C000
C000
FFC0
FFC0
ENDCHAR
STARTCHAR CYRILLIC
ENCODING 1025
SWIDTH 543 0
DWIDTH 12 0
BBX 10 18 0 0
BITMAP
3300
3300
0000
0000
FFC0
FFC0
C000
C000
C000
C000
FF00
FF00
C000
C000
C000
C000
FFC0
FFC0
ENDCHAR
STARTCHAR CYRILLIC
ENCODING 1026
SWIDTH 543 0
DWIDTH 12 0
BBX 10 16 0 -2
BITMAP
FF00
FF00
3000
3000
3F00
3F00
30C0
30C0
30C0
30C0
30C0
30C0
30C0
30C0
0300
0300
ENDCHAR
STARTCHAR CYRILLIC
ENCODING 1027
SWIDTH 543 0
DWIDTH 12 0
BBX 8 18 2 0
BITMAP
0C
0C
30
30
FF
FF
C0
C0
C0
C0
C0
C0
C0
C0
C0
C0
C0
C0
ENDCHAR
STARTCHAR CYRILLIC
ENCODING 1028
SWIDTH 543 0
DWIDTH 12 0
BBX 10 14 0 0
BITMAP
3F00
3F00
C0C0
C0C0
C000
C000
FC00
FC00
C000
C000
C0C0
C0C0
3F00
3F00
ENDCHAR
STARTCHAR CYRILLIC
ENCODING 1029
SWIDTH 543 0
DWIDTH 12 0
BBX 10 14 0 0
BITMAP
3F00
3F00
C0C0
C0C0
C000
C000
3F00
3F00
00C0
00C0
C0C0
C0C0
3F00
3F00
ENDCHAR
STARTCHAR CYRILLIC
ENCODING 1030
SWIDTH 543 0
DWIDTH 12 0
BBX 2 14 4 0
BITMAP
C0
C0
C0
C0
C0
C0
C0
C0
C0
C0
C0
C0
C0
C0
ENDCHAR
STARTCHAR CYRILLIC
ENCODING 1031
SWIDTH 543 0
DWIDTH 12 0
BBX 6 18 2 0
BITMAP
CC
CC
00
00
30
30
30
30
30
30
30
30
30
30
30
30
30
30
ENDCHAR
STARTCHAR CYRILLIC
ENCODING 1032
SWIDTH 543 0
DWIDTH 12 0
BBX 10 14 0 0
BITMAP
00C0
00C0
00C0
00C0
00C0
00C0
00C0
00C0
C0C0
C0C0
C0C0
C0C0
3F00
3F00
ENDCHAR
STARTCHAR CYRILLIC
ENCODING 1033
SWIDTH 543 0
DWIDTH 12 0
BBX 12 14 0 0
BITMAP
0F00
0F00
3300
3300
3300
3300
33C0
33C0
3330
3330
3330
3330
C3C0
C3C0
ENDCHAR
STARTCHAR CYRILLIC
ENCODING 1034
SWIDTH 543 0
DWIDTH 12 0
BBX 10 14 0 0
BITMAP
CC00
CC00
CC00
CC00
CC00
CC00
FF00
FF00
CCC0
CCC0
CCC0
CCC0
CF00
CF00
ENDCHAR
STARTCHAR CYRILLIC
ENCODING 1035
SWIDTH 543 0
DWIDTH 12 0
BBX 10 14 0 0
BITMAP
FF00
FF00
3000
3000
3F00
3F00
30C0
30C0
30C0
30C0
30C0
30C0
30C0
30C0
ENDCHAR
STARTCHAR CYRILLIC
ENCODING 1036
SWIDTH 543 0
DWIDTH 12 0
BBX 10 18 0 0
BITMAP
0300
0300
0C00
0C00
C0C0
C0C0
C300
C300
CC00
CC00
F000
F000
CC00
CC00
C300
C300
C0C0
C0C0
ENDCHAR
STARTCHAR CYRILLIC
ENCODING 1037
SWIDTH 543 0
DWIDTH 12 0
BBX 10 18 0 0
BITMAP
3000
3000
0C00
0C00
C3C0
C3C0
C3C0
C3C0
CCC0
CCC0
CCC0
CCC0
CCC0
CCC0
F0C0
F0C0
F0C0
F0C0
ENDCHAR
STARTCHAR CYRILLIC
ENCODING 1038
SWIDTH 543 0
DWIDTH 12 0
BBX 10 18 0 0
BITMAP
3300
3300
0C00
0C00
C0C0
C0C0
C0C0
C0C0
C0C0
C0C0
3FC0
3FC0
00C0
00C0
C0C0
C0C0
3F00
3F00
ENDCHAR
STARTCHAR CYRILLIC
ENCODING 1039
SWIDTH 543 0
DWIDTH 12 0
BBX 10 18 0 -4
BITMAP
C0C0
C0C0
C0C0
C0C0
C0C0
C0C0
C0C0
C0C0
C0C0
C0C0
C0C0
C0C0
FFC0
FFC0
0C00
0C00
0C00
0C00
ENDCHAR
STARTCHAR CYRILLIC
ENCODING 1040
SWIDTH 543 0
DWIDTH 12 0
BBX 10 14 0 0
BITMAP
3F00
3F00
C0C0
C0C0
C0C0
C0C0
FFC0
FFC0
C0C0
C0C0
C0C0
C0C0
C0C0
C0C0
ENDCHAR
STARTCHAR CYRILLIC
ENCODING 1041
SWIDTH 543 0
DWIDTH 12 0
BBX 10 14 0 0
BITMAP
FF00
FF00
C000
C000
C000
C000
FF00
FF00
C0C0
C0C0
C0C0
C0C0
FF00
FF00
ENDCHAR
STARTCHAR CYRILLIC
ENCODING 1042
SWIDTH 543 0
DWIDTH 12 0
BBX 10 14 0 0
BITMAP
FF00
FF00
C0C0
C0C0
C0C0
C0C0
FF00
FF00
C0C0
C0C0
C0C0
C0C0
FF00
FF00
ENDCHAR
STARTCHAR CYRILLIC
ENCODING 1043
SWIDTH 543 0
DWIDTH 12 0
BBX 8 14 2 0
BITMAP
FF
FF
C0
C0
C0
C0
C0
C0
C0
C0
C0
C0
C0
C0
ENDCHAR
STARTCHAR CYRILLIC
ENCODING 1044
SWIDTH 543 0
DWIDTH 12 0
BBX 12 18 0 -4
BITMAP
0FC0
0FC0
30C0
30C0
30C0
30C0
30C0
30C0
30C0
30C0
30C0
30C0
FFF0
FFF0
C030
C030
C030
C030
ENDCHAR
STARTCHAR CYRILLIC
ENCODING 1045
SWIDTH 543 0
DWIDTH 12 0
BBX 10 14 0 0
BITMAP
FFC0
FFC0
C000
C000
C000
C000
FF00
FF00
C000
C000
C000
C000
FFC0
FFC0
ENDCHAR
STARTCHAR CYRILLIC
ENCODING 1046
SWIDTH 543 0
DWIDTH 12 0
BBX 10 14 0 0
BITMAP
CCC0
CCC0
CCC0
CCC0
CCC0
CCC0
3F00
3F00
CCC0
CCC0
CCC0
CCC0
CCC0
CCC0
ENDCHAR
STARTCHAR CYRILLIC
ENCODING 1047
SWIDTH 543 0
DWIDTH 12 0
BBX 10 14 0 0
BITMAP
3F00
3F00
C0C0
C0C0
00C0
00C0
0F00
0F00
00C0
00C0
C0C0
C0C0
3F00
3F00
ENDCHAR
STARTCHAR CYRILLIC
ENCODING 1048
SWIDTH 543 0
DWIDTH 12 0
BBX 10 14 0 0
BITMAP
C3C0
C3C0
C3C0
C3C0
CCC0
CCC0
CCC0
CCC0
CCC0
CCC0
F0C0
F0C0
F0C0
F0C0
ENDCHAR
STARTCHAR CYRILLIC
ENCODING 1049
SWIDTH 543 0
DWIDTH 12 0
BBX 10 18 0 0
BITMAP
3300
3300
0C00
0C00
C3C0
C3C0
C3C0
C3C0
CCC0
CCC0
CCC0
CCC0
CCC0
CCC0
F0C0
F0C0
F0C0
F0C0
ENDCHAR
STARTCHAR CYRILLIC
ENCODING 1050
SWIDTH 543 0
DWIDTH 12 0
BBX 10 14 0 0
BITMAP
C0C0
C0C0
C300
C300
CC00
CC00
F000
F000
CC00
CC00
C300
C300
C0C0
C0C0
ENDCHAR
STARTCHAR CYRILLIC
ENCODING 1051
SWIDTH 543 0
DWIDTH 12 0
BBX 10 14 0 0
BITMAP
0FC0
0FC0
30C0
30C0
30C0
30C0
30C0
30C0
30C0
30C0
30C0
30C0
C0C0
C0C0
ENDCHAR
STARTCHAR CYRILLIC
ENCODING 1052
SWIDTH 543 0
DWIDTH 12 0
BBX 10 14 0 0
BITMAP
C0C0
C0C0
F3C0
F3C0
CCC0
CCC0
C0C0
C0C0
C0C0
C0C0
C0C0
C0C0
C0C0
C0C0
ENDCHAR
STARTCHAR CYRILLIC
ENCODING 1053
SWIDTH 543 0
DWIDTH 12 0
BBX 10 14 0 0
BITMAP
C0C0
C0C0
C0C0
C0C0
C0C0
C0C0
FFC0
FFC0
C0C0
C0C0
C0C0
C0C0
C0C0
C0C0
ENDCHAR
STARTCHAR CYRILLIC
ENCODING 1054
SWIDTH 543 0
DWIDTH 12 0
BBX 10 14 0 0
BITMAP
3F00
3F00
C0C0
C0C0
C0C0
C0C0
C0C0
C0C0
C0C0
C0C0
C0C0
C0C0
3F00
3F00
ENDCHAR
STARTCHAR CYRILLIC
ENCODING 1055
SWIDTH 543 0
DWIDTH 12 0
BBX 10 14 0 0
BITMAP
FFC0
FFC0
C0C0
C0C0
C0C0
C0C0
C0C0
C0C0
C0C0
C0C0
C0C0
C0C0
C0C0
C0C0
ENDCHAR
STARTCHAR CYRILLIC
ENCODING 1056
SWIDTH 543 0
DWIDTH 12 0
BBX 10 14 0 0
BITMAP
FF00
FF00
C0C0
C0C0
C0C0
C0C0
FF00
FF00
C000
C000
C000
C000
C000
C000
ENDCHAR
STARTCHAR CYRILLIC
ENCODING 1057
SWIDTH 543 0
DWIDTH 12 0
BBX 10 14 0 0
BITMAP
3F00
3F00
C0C0
C0C0
C000
C000
C000
C000
C000
C000
C0C0
C0C0
3F00
3F00
ENDCHAR
STARTCHAR CYRILLIC
ENCODING 1058
SWIDTH 543 0
DWIDTH 12 0
BBX 10 14 0 0
BITMAP
FFC0
FFC0
0C00
0C00
0C00
0C00
0C00
0C00
0C00
0C00
0C00
0C00
0C00
0C00
ENDCHAR
STARTCHAR CYRILLIC
ENCODING 1059
SWIDTH 543 0
DWIDTH 12 0
BBX 10 14 0 0
BITMAP
C0C0
C0C0
C0C0
C0C0
C0C0
C0C0
3FC0
3FC0
00C0
00C0
C0C0
C0C0
3F00
3F00
ENDCHAR
STARTCHAR CYRILLIC
ENCODING 1060
SWIDTH 543 0
DWIDTH 12 0
BBX 10 14 0 0
BITMAP
0C00
0C00
3F00
3F00
CCC0
CCC0
CCC0
CCC0
CCC0
CCC0
3F00
3F00
0C00
0C00
ENDCHAR
STARTCHAR CYRILLIC
ENCODING 1061
SWIDTH 543 0
DWIDTH 12 0
BBX 10 14 0 0
BITMAP
C0C0
C0C0
C0C0
C0C0
3300
3300
0C00
0C00
3300
3300
C0C0
C0C0
C0C0
C0C0
ENDCHAR
STARTCHAR CYRILLIC
ENCODING 1062
SWIDTH 543 0
DWIDTH 12 0
BBX 12 18 0 -4
BITMAP
C0C0
C0C0
C0C0
C0C0
C0C0
C0C0
C0C0
C0C0
C0C0
C0C0
C0C0
C0C0
FFF0
FFF0
0030
0030
0030
0030
ENDCHAR
STARTCHAR CYRILLIC
ENCODING 1063
SWIDTH 543 0
DWIDTH 12 0
BBX 10 14 0 0
BITMAP
C0C0
C0C0
C0C0
C0C0
C0C0
C0C0
3FC0
3FC0
00C0
00C0
00C0
00C0
00C0
00C0
ENDCHAR
STARTCHAR CYRILLIC
ENCODING 1064
SWIDTH 543 0
DWIDTH 12 0
BBX 10 14 0 0
BITMAP
CCC0
CCC0
CCC0
CCC0
CCC0
CCC0
CCC0
CCC0
CCC0
CCC0
CCC0
CCC0
FFC0
FFC0
ENDCHAR
STARTCHAR CYRILLIC
ENCODING 1065
SWIDTH 543 0
DWIDTH 12 0
BBX 12 18 0 -4
BITMAP
CCC0
CCC0
CCC0
CCC0
CCC0
CCC0
CCC0
CCC0
CCC0
CCC0
CCC0
CCC0
FFF0
FFF0
0030
0030
0030
0030
ENDCHAR
STARTCHAR CYRILLIC
ENCODING 1066
SWIDTH 543 0
DWIDTH 12 0
BBX 10 14 0 0
BITMAP
F000
F000
3000
3000
3000
3000
3F00
3F00
30C0
30C0
30C0
30C0
3F00
3F00
ENDCHAR
STARTCHAR CYRILLIC
ENCODING 1067
SWIDTH 543 0
DWIDTH 12 0
BBX 10 14 0 0
BITMAP
C0C0
C0C0
C0C0
C0C0
C0C0
C0C0
FCC0
FCC0
C3C0
C3C0
C3C0
C3C0
FCC0
FCC0
ENDCHAR
STARTCHAR CYRILLIC
ENCODING 1068
SWIDTH 543 0
DWIDTH 12 0
BBX 10 14 0 0
BITMAP
C000
C000
C000
C000
C000
C000
FF00
FF00
C0C0
C0C0
C0C0
C0C0
FF00
FF00
ENDCHAR
STARTCHAR CYRILLIC
ENCODING 1069
SWIDTH 543 0
DWIDTH 12 0
BBX 10 14 0 0
BITMAP
3F00
3F00
C0C0
C0C0
00C0
00C0
3FC0
3FC0
00C0
00C0
C0C0
C0C0
3F00
3F00
ENDCHAR
STARTCHAR CYRILLIC
ENCODING 1070
SWIDTH 543 0
DWIDTH 12 0
BBX 10 14 0 0
BITMAP
C300
C300
CCC0
CCC0
CCC0
CCC0
FCC0
FCC0
CCC0
CCC0
CCC0
CCC0
C300
C300
ENDCHAR
STARTCHAR CYRILLIC
ENCODING 1071
SWIDTH 543 0
DWIDTH 12 0
BBX 10 14 0 0
BITMAP
0FC0
0FC0
30C0
30C0
30C0
30C0
0FC0
0FC0
0CC0
0CC0
30C0
30C0
C0C0
C0C0
ENDCHAR
STARTCHAR CYRILLIC
ENCODING 1072
SWIDTH 543 0
DWIDTH 12 0
BBX 10 10 0 0
BITMAP
3FC0
3FC0
C0C0
C0C0
C0C0
C0C0
C3C0
C3C0
3CC0
3CC0
ENDCHAR
STARTCHAR CYRILLIC
ENCODING 1073
SWIDTH 543 0
DWIDTH 12 0
BBX 10 16 0 0
BITMAP
00C0
00C0
3F00
3F00
C000
C000
FF00
FF00
C0C0
C0C0
C0C0
C0C0
C0C0
C0C0
3F00
3F00
ENDCHAR
STARTCHAR CYRILLIC
ENCODING 1074
SWIDTH 543 0
DWIDTH 12 0
BBX 10 10 0 0
BITMAP
FF00
FF00
C0C0
C0C0
FF00
FF00
C0C0
C0C0
FF00
FF00
ENDCHAR
STARTCHAR CYRILLIC
ENCODING 1075
SWIDTH 543 0
DWIDTH 12 0
BBX 8 10 2 0
BITMAP
FF
FF
C0
C0
C0
C0
C0
C0
C0
C0
ENDCHAR
STARTCHAR CYRILLIC
ENCODING 1076
SWIDTH 543 0
DWIDTH 12 0
BBX 12 14 0 -4
BITMAP
0FC0
0FC0
30C0
30C0
30C0
30C0
30C0
30C0
FFF0
FFF0
C030
C030
C030
C030
ENDCHAR
STARTCHAR CYRILLIC
ENCODING 1077
SWIDTH 543 0
DWIDTH 12 0
BBX 10 10 0 0
BITMAP
3F00
3F00
C0C0
C0C0
FFC0
FFC0
C000
C000
3FC0
3FC0
ENDCHAR
STARTCHAR CYRILLIC
ENCODING 1078
SWIDTH 543 0
DWIDTH 12 0
BBX 10 10 0 0
BITMAP
CCC0
CCC0
CCC0
CCC0
3F00
3F00
CCC0
CCC0
CCC0
CCC0
ENDCHAR
STARTCHAR CYRILLIC
ENCODING 1079
SWIDTH 543 0
DWIDTH 12 0
BBX 10 10 0 0
BITMAP
3F00
3F00
C0C0
C0C0
0F00
0F00
C0C0
C0C0
3F00
3F00
ENDCHAR
STARTCHAR CYRILLIC
ENCODING 1080
SWIDTH 543 0
DWIDTH 12 0
BBX 10 10 0 0
BITMAP
C0C0
C0C0
C3C0
C3C0
CCC0
CCC0
F0C0
F0C0
C0C0
C0C0
ENDCHAR
STARTCHAR CYRILLIC
ENCODING 1081
SWIDTH 543 0
DWIDTH 12 0
BBX 10 14 0 0
BITMAP
3300
3300
0C00
0C00
C0C0
C0C0
C3C0
C3C0
CCC0
CCC0
F0C0
F0C0
C0C0
C0C0
ENDCHAR
STARTCHAR CYRILLIC
ENCODING 1082
SWIDTH 543 0
DWIDTH 12 0
BBX 10 10 0 0
BITMAP
C0C0
C0C0
C300
C300
FC00
FC00
C300
C300
C0C0
C0C0
ENDCHAR
STARTCHAR CYRILLIC
ENCODING 1083
SWIDTH 543 0
DWIDTH 12 0
BBX 10 10 0 0
BITMAP
0FC0
0FC0
30C0
30C0
30C0
30C0
30C0
30C0
C0C0
C0C0
ENDCHAR
STARTCHAR CYRILLIC
ENCODING 1084
SWIDTH 543 0
DWIDTH 12 0
BBX 10 10 0 0
BITMAP
C0C0
C0C0
F3C0
F3C0
CCC0
CCC0
C0C0
C0C0
C0C0
C0C0
ENDCHAR
STARTCHAR CYRILLIC
ENCODING 1085
SWIDTH 543 0
DWIDTH 12 0
BBX 10 10 0 0
BITMAP
C0C0
C0C0
C0C0
C0C0
FFC0
FFC0
C0C0
C0C0
C0C0
C0C0
ENDCHAR
STARTCHAR CYRILLIC
ENCODING 1086
SWIDTH 543 0
DWIDTH 12 0
BBX 10 10 0 0
BITMAP
3F00
3F00
C0C0
C0C0
C0C0
C0C0
C0C0
C0C0
3F00
3F00
ENDCHAR
STARTCHAR CYRILLIC
ENCODING 1087
SWIDTH 543 0
DWIDTH 12 0
BBX 10 10 0 0
BITMAP
FFC0
FFC0
C0C0
C0C0
C0C0
C0C0
C0C0
C0C0
C0C0
C0C0
ENDCHAR
STARTCHAR CYRILLIC
ENCODING 1088
SWIDTH 543 0
DWIDTH 12 0
BBX 10 14 0 -4
BITMAP
FF00
FF00
C0C0
C0C0
C0C0
C0C0
C0C0
C0C0
FF00
FF00
C000
C000
C000
C000
ENDCHAR
STARTCHAR CYRILLIC
ENCODING 1089
SWIDTH 543 0
DWIDTH 12 0
BBX 10 10 0 0
BITMAP
3F00
3F00
C0C0
C0C0
C000
C000
C0C0
C0C0
3F00
3F00
ENDCHAR
STARTCHAR CYRILLIC
ENCODING 1090
SWIDTH 543 0
DWIDTH 12 0
BBX 10 10 0 0
BITMAP
FFC0
FFC0
0C00
0C00
0C00
0C00
0C00
0C00
0C00
0C00
ENDCHAR
STARTCHAR CYRILLIC
ENCODING 1091
SWIDTH 543 0
DWIDTH 12 0
BBX 10 14 0 -4
BITMAP
C0C0
C0C0
C0C0
C0C0
C0C0
C0C0
C0C0
C0C0
3FC0
3FC0
00C0
00C0
3F00
3F00
ENDCHAR
STARTCHAR CYRILLIC
ENCODING 1092
SWIDTH 543 0
DWIDTH 12 0
BBX 10 18 0 -4
BITMAP
0C00
0C00
0C00
0C00
3F00
3F00
CCC0
CCC0
CCC0
CCC0
CCC0
CCC0
3F00
3F00
0C00
0C00
0C00
0C00
ENDCHAR
STARTCHAR CYRILLIC
ENCODING 1093
SWIDTH 543 0
DWIDTH 12 0
BBX 10 10 0 0
BITMAP
C0C0
C0C0
3300
3300
0C00
0C00
3300
3300
C0C0
C0C0
ENDCHAR
STARTCHAR CYRILLIC
ENCODING 1094
SWIDTH 543 0
DWIDTH 12 0
BBX 12 14 0 -4
BITMAP
C0C0
C0C0
C0C0
C0C0
C0C0
C0C0
C0C0
C0C0
FFF0
FFF0
0030
0030
0030
0030
ENDCHAR
STARTCHAR CYRILLIC
ENCODING 1095
SWIDTH 543 0
DWIDTH 12 0
BBX 10 10 0 0
BITMAP
C0C0
C0C0
C0C0
C0C0
3FC0
3FC0
00C0
00C0
00C0
00C0
ENDCHAR
STARTCHAR CYRILLIC
ENCODING 1096
SWIDTH 543 0
DWIDTH 12 0
BBX 10 10 0 0
BITMAP
CCC0
CCC0
CCC0
CCC0
CCC0
CCC0
CCC0
CCC0
FFC0
FFC0
ENDCHAR
STARTCHAR CYRILLIC
ENCODING 1097
SWIDTH 543 0
DWIDTH 12 0
BBX 12 14 0 -4
BITMAP
CCC0
CCC0
CCC0
CCC0
CCC0
CCC0
CCC0
CCC0
FFF0
FFF0
0030
0030
0030
0030
ENDCHAR
STARTCHAR CYRILLIC
ENCODING 1098
SWIDTH 543 0
DWIDTH 12 0
BBX 10 10 0 0
BITMAP
F000
F000
3000
3000
3F00
3F00
30C0
30C0
3F00
3F00
ENDCHAR
STARTCHAR CYRILLIC
ENCODING 1099
SWIDTH 543 0
DWIDTH 12 0
BBX 10 10 0 0
BITMAP
C0C0
C0C0
C0C0
C0C0
FCC0
FCC0
C3C0
C3C0
FCC0
FCC0
ENDCHAR
STARTCHAR CYRILLIC
ENCODING 1100
SWIDTH 543 0
DWIDTH 12 0
BBX 10 10 0 0
BITMAP
C000
C000
C000
C000
FF00
FF00
C0C0
C0C0
FF00
FF00
ENDCHAR
STARTCHAR CYRILLIC
ENCODING 1101
SWIDTH 543 0
DWIDTH 12 0
BBX 10 10 0 0
BITMAP
FF00
FF00
00C0
00C0
3FC0
3FC0
00C0
00C0
FF00
FF00
ENDCHAR
STARTCHAR CYRILLIC
ENCODING 1102
SWIDTH 543 0
DWIDTH 12 0
BBX 10 10 0 0
BITMAP
C300
C300
CCC0
CCC0
FCC0
FCC0
CCC0
CCC0
C300
C300
ENDCHAR
STARTCHAR CYRILLIC
ENCODING 1103
SWIDTH 543 0
DWIDTH 12 0
BBX 10 10 0 0
BITMAP
3FC0
3FC0
C0C0
C0C0
3FC0
3FC0
30C0
30C0
C0C0
C0C0
ENDCHAR
STARTCHAR CYRILLIC
ENCODING 1104
SWIDTH 543 0
DWIDTH 12 0
BBX 10 16 0 0
BITMAP
3000
3000
0C00
0C00
0000
0000
3F00
3F00
C0C0
C0C0
FFC0
FFC0
C000
C000
3FC0
3FC0
ENDCHAR
STARTCHAR CYRILLIC
ENCODING 1105
SWIDTH 543 0
DWIDTH 12 0
BBX 10 14 0 0
BITMAP
3300
3300
0000
0000
3F00
3F00
C0C0
C0C0
FFC0
FFC0
C000
C000
3FC0
3FC0
ENDCHAR
STARTCHAR CYRILLIC
ENCODING 1106
SWIDTH 543 0
DWIDTH 12 0
BBX 10 16 0 -2
BITMAP
3000
3000
3000
3000
FF00
FF00
3000
3000
3F00
3F00
30C0
30C0
30C0
30C0
0300
0300
ENDCHAR
STARTCHAR CYRILLIC
ENCODING 1107
SWIDTH 543 0
DWIDTH 12 0
BBX 8 16 2 0
BITMAP
0C
0C
30
30
00
00
FF
FF
C0
C0
C0
C0
C0
C0
C0
C0
ENDCHAR
STARTCHAR CYRILLIC
ENCODING 1108
SWIDTH 543 0
DWIDTH 12 0
BBX 10 10 0 0
BITMAP
3F00
3F00
C0C0
C0C0
FC00
FC00
C000
C000
3FC0
3FC0
ENDCHAR
STARTCHAR CYRILLIC
ENCODING 1109
SWIDTH 543 0
DWIDTH 12 0
BBX 10 10 0 0
BITMAP
3FC0
3FC0
C000
C000
3F00
3F00
00C0
00C0
FF00
FF00
ENDCHAR
STARTCHAR CYRILLIC
ENCODING 1110
SWIDTH 543 0
DWIDTH 12 0
BBX 2 14 4 0
BITMAP
C0
C0
00
00
C0
C0
C0
C0
C0
C0
C0
C0
C0
C0
ENDCHAR
STARTCHAR CYRILLIC
ENCODING 1111
SWIDTH 543 0
DWIDTH 12 0
BBX 6 14 2 0
BITMAP
CC
CC
00
00
30
30
30
30
30
30
30
30
30
30
ENDCHAR
STARTCHAR CYRILLIC
ENCODING 1112
SWIDTH 543 0
DWIDTH 12 0
BBX 6 18 0 -4
BITMAP
0C
0C
00
00
0C
0C
0C
0C
0C
0C
0C
0C
0C
0C
0C
0C
F0
F0
ENDCHAR
STARTCHAR CYRILLIC
ENCODING 1113
SWIDTH 543 0
DWIDTH 12 0
BBX 12 10 0 0
BITMAP
0F00
0F00
3300
3300
33C0
33C0
3330
3330
C3C0
C3C0
ENDCHAR
STARTCHAR CYRILLIC
ENCODING 1114
SWIDTH 543 0
DWIDTH 12 0
BBX 10 10 0 0
BITMAP
CC00
CC00
CC00
CC00
FF00
FF00
CCC0
CCC0
CF00
CF00
ENDCHAR
STARTCHAR CYRILLIC
ENCODING 1115
SWIDTH 543 0
DWIDTH 12 0
BBX 10 14 0 0
BITMAP
3000
3000
3000
3000
FF00
FF00
3000
3000
3F00
3F00
30C0
30C0
30C0
30C0
ENDCHAR
STARTCHAR CYRILLIC
ENCODING 1116
SWIDTH 543 0
DWIDTH 12 0
BBX 10 16 0 0
BITMAP
0300
0300
0C00
0C00
0000
0000
C0C0
C0C0
C300
C300
FC00
FC00
C300
C300
C0C0
C0C0
ENDCHAR
STARTCHAR CYRILLIC
ENCODING 1117
SWIDTH 543 0
DWIDTH 12 0
BBX 10 16 0 0
BITMAP
3000
3000
0C00
0C00
0000
0000
C0C0
C0C0
C3C0
C3C0
CCC0
CCC0
F0C0
F0C0
C0C0
C0C0
ENDCHAR
STARTCHAR CYRILLIC
ENCODING 1118
SWIDTH 543 0
DWIDTH 12 0
BBX 10 18 0 -4
BITMAP
3300
3300
0C00
0C00
C0C0
C0C0
C0C0
C0C0
C0C0
C0C0
C0C0
C0C0
3FC0
3FC0
00C0
00C0
3F00
3F00
ENDCHAR
STARTCHAR CYRILLIC
ENCODING 1119
SWIDTH 543 0
DWIDTH 12 0
BBX 10 14 0 -4
BITMAP
C0C0
C0C0
C0C0
C0C0
C0C0
C0C0
C0C0
C0C0
FFC0
FFC0
0C00
0C00
0C00
0C00
ENDCHAR
STARTCHAR CYRILLIC
ENCODING 1120
SWIDTH 543 0
DWIDTH 12 0
BBX 10 14 0 0
BITMAP
CCC0
CCC0
CCC0
CCC0
CCC0
CCC0
CCC0
CCC0
CCC0
CCC0
CCC0
CCC0
3300
3300
ENDCHAR
STARTCHAR CYRILLIC
ENCODING 1121
SWIDTH 543 0
DWIDTH 12 0
BBX 10 10 0 0
BITMAP
CCC0
CCC0
CCC0
CCC0
CCC0
CCC0
CCC0
CCC0
3300
3300
ENDCHAR
STARTCHAR CYRILLIC
ENCODING 1122
SWIDTH 543 0
DWIDTH 12 0
BBX 10 16 0 0
BITMAP
3000
3000
FC00
FC00
3000
3000
3F00
3F00
30C0
30C0
30C0
30C0
30C0
30C0
3F00
3F00
ENDCHAR
STARTCHAR CYRILLIC
ENCODING 1123
SWIDTH 543 0
DWIDTH 12 0
BBX 10 14 0 0
BITMAP
3000
3000
FC00
FC00
3000
3000
3F00
3F00
30C0
30C0
30C0
30C0
3F00
3F00
ENDCHAR
STARTCHAR CYRILLIC
ENCODING 1124
SWIDTH 543 0
DWIDTH 12 0
BBX 10 14 0 0
BITMAP
C300
C300
CCC0
CCC0
CC00
CC00
FF00
FF00
CC00
CC00
CCC0
CCC0
C300
C300
ENDCHAR
STARTCHAR CYRILLIC
ENCODING 1125
SWIDTH 543 0
DWIDTH 12 0
BBX 10 10 0 0
BITMAP
C3C0
C3C0
CC00
CC00
FF00
FF00
CC00
CC00
C3C0
C3C0
ENDCHAR
STARTCHAR CYRILLIC
ENCODING 1126
SWIDTH 543 0
DWIDTH 12 0
BBX 10 14 0 0
BITMAP
0C00
0C00
0C00
0C00
3300
3300
3300
3300
FFC0
FFC0
CCC0
CCC0
CCC0
CCC0
ENDCHAR
STARTCHAR CYRILLIC
ENCODING 1127
SWIDTH 543 0
DWIDTH 12 0
BBX 10 12 0 0
BITMAP
0C00
0C00
0C00
0C00
3300
3300
3F00
3F00
CCC0
CCC0
CCC0
CCC0
ENDCHAR
STARTCHAR CYRILLIC
ENCODING 1128
SWIDTH 543 0
DWIDTH 12 0
BBX 10 14 0 0
BITMAP
CC00
CC00
CC00
CC00
F300
F300
F300
F300
FFC0
FFC0
CCC0
CCC0
CCC0
CCC0
ENDCHAR
STARTCHAR CYRILLIC
ENCODING 1129
SWIDTH 543 0
DWIDTH 12 0
BBX 10 12 0 0
BITMAP
CC00
CC00
CC00
CC00
F300
F300
FF00
FF00
CCC0
CCC0
CCC0
CCC0
ENDCHAR
STARTCHAR CYRILLIC
ENCODING 1130
SWIDTH 543 0
DWIDTH 12 0
BBX 10 14 0 0
BITMAP
FFC0
FFC0
C0C0
C0C0
3300
3300
3F00
3F00
CCC0
CCC0
CCC0
CCC0
CCC0
CCC0
ENDCHAR
STARTCHAR CYRILLIC
ENCODING 1131
SWIDTH 543 0
DWIDTH 12 0
BBX 10 10 0 0
BITMAP
3F00
3F00
3300
3300
0C00
0C00
3F00
3F00
CCC0
CCC0
ENDCHAR
STARTCHAR CYRILLIC
ENCODING 1132
SWIDTH 543 0
DWIDTH 12 0
BBX 10 14 0 0
BITMAP
FF00
FF00
F300
F300
CC00
CC00
FF00
FF00
CCC0
CCC0
CCC0
CCC0
CCC0
CCC0
ENDCHAR
STARTCHAR CYRILLIC
ENCODING 1133
SWIDTH 543 0
DWIDTH 12 0
BBX 10 10 0 0
BITMAP
FF00
FF00
F300
F300
CC00
CC00
FF00
FF00
CCC0
CCC0
ENDCHAR
STARTCHAR CYRILLIC
ENCODING 1134
SWIDTH 543 0
DWIDTH 12 0
BBX 8 22 2 -4
BITMAP
CC
CC
30
30
00
00
FC
FC
03
03
3C
3C
03
03
03
03
3C
3C
C0
C0
3C
3C
ENDCHAR
STARTCHAR CYRILLIC
ENCODING 1135
SWIDTH 543 0
DWIDTH 12 0
BBX 8 20 2 -4
BITMAP
CC
CC
30
30
00
00
FC
FC
03
03
3C
3C
03
03
3C
3C
C0
C0
30
30
ENDCHAR
STARTCHAR CYRILLIC
ENCODING 1136
SWIDTH 543 0
DWIDTH 12 0
BBX 10 14 0 0
BITMAP
CCC0
CCC0
CCC0
CCC0
CCC0
CCC0
CCC0
CCC0
3F00
3F00
0C00
0C00
0C00
0C00
ENDCHAR
STARTCHAR CYRILLIC
ENCODING 1137
SWIDTH 543 0
DWIDTH 12 0
BBX 10 12 0 0
BITMAP
CCC0
CCC0
CCC0
CCC0
CCC0
CCC0
3F00
3F00
0C00
0C00
0C00
0C00
ENDCHAR
STARTCHAR CYRILLIC
ENCODING 1138
SWIDTH 543 0
DWIDTH 12 0
BBX 10 14 0 0
BITMAP
3F00
3F00
C0C0
C0C0
C0C0
C0C0
FFC0
FFC0
C0C0
C0C0
C0C0
C0C0
3F00
3F00
ENDCHAR
STARTCHAR CYRILLIC
ENCODING 1139
SWIDTH 543 0
DWIDTH 12 0
BBX 10 10 0 0
BITMAP
3F00
3F00
C0C0
C0C0
FFC0
FFC0
C0C0
C0C0
3F00
3F00
ENDCHAR
STARTCHAR CYRILLIC
ENCODING 1140
SWIDTH 543 0
DWIDTH 12 0
BBX 10 14 0 0
BITMAP
C0C0
C0C0
C300
C300
C300
C300
3300
3300
3300
3300
0C00
0C00
0C00
0C00
ENDCHAR
STARTCHAR CYRILLIC
ENCODING 1141
SWIDTH 543 0
DWIDTH 12 0
BBX 10 10 0 0
BITMAP
C0C0
C0C0
C300
C300
3300
3300
3300
3300
0C00
0C00
ENDCHAR
STARTCHAR CYRILLIC
ENCODING 1142
SWIDTH 543 0
DWIDTH 12 0
BBX 10 18 0 0
BITMAP
CC00
CC00
3300
3300
0000
0000
C0C0
C0C0
C300
C300
3300
3300
3300
3300
0C00
0C00
0C00
0C00
ENDCHAR
STARTCHAR CYRILLIC
ENCODING 1143
SWIDTH 543 0
DWIDTH 12 0
BBX 10 16 0 0
BITMAP
CC00
CC00
3300
3300
0000
0000
C0C0
C0C0
C300
C300
3300
3300
3300
3300
0C00
0C00
ENDCHAR
STARTCHAR CYRILLIC
ENCODING 1144
SWIDTH 543 0
DWIDTH 12 0
BBX 10 18 0 -4
BITMAP
3000
3000
CC00
CC00
CC00
CC00
CCC0
CCC0
CCC0
CCC0
CCC0
CCC0
33C0
33C0
00C0
00C0
0F00
0F00
ENDCHAR
STARTCHAR CYRILLIC
ENCODING 1145
SWIDTH 543 0
DWIDTH 12 0
BBX 10 14 0 -4
BITMAP
3000
3000
CCC0
CCC0
CCC0
CCC0
CCC0
CCC0
33C0
33C0
00C0
00C0
0F00
0F00
ENDCHAR
STARTCHAR CYRILLIC
ENCODING 1146
SWIDTH 543 0
DWIDTH 12 0
BBX 10 18 0 -2
BITMAP
0C00
0C00
3F00
3F00
CCC0
CCC0
C0C0
C0C0
C0C0
C0C0
C0C0
C0C0
CCC0
CCC0
3F00
3F00
0C00
0C00
ENDCHAR
STARTCHAR CYRILLIC
ENCODING 1147
SWIDTH 543 0
DWIDTH 12 0
BBX 10 14 0 -2
BITMAP
0C00
0C00
3F00
3F00
CCC0
CCC0
C0C0
C0C0
CCC0
CCC0
3F00
3F00
0C00
0C00
ENDCHAR
STARTCHAR CYRILLIC
ENCODING 1148
SWIDTH 543 0
DWIDTH 12 0
BBX 10 18 0 0
BITMAP
3C00
3C00
C300
C300
00C0
00C0
0C00
0C00
C0C0
C0C0
C0C0
C0C0
C0C0
C0C0
CCC0
CCC0
3300
3300
ENDCHAR
STARTCHAR CYRILLIC
ENCODING 1149
SWIDTH 543 0
DWIDTH 12 0
BBX 10 16 0 0
BITMAP
3C00
3C00
C300
C300
00C0
00C0
0C00
0C00
C0C0
C0C0
C0C0
C0C0
CCC0
CCC0
3300
3300
ENDCHAR
STARTCHAR CYRILLIC
ENCODING 1150
SWIDTH 543 0
DWIDTH 12 0
BBX 10 18 0 0
BITMAP
FFC0
FFC0
CCC0
CCC0
0000
0000
CCC0
CCC0
CCC0
CCC0
CCC0
CCC0
CCC0
CCC0
CCC0
CCC0
3300
3300
ENDCHAR
STARTCHAR CYRILLIC
ENCODING 1151
SWIDTH 543 0
DWIDTH 12 0
BBX 10 16 0 0
BITMAP
FFC0
FFC0
CCC0
CCC0
0000
0000
CCC0
CCC0
CCC0
CCC0
CCC0
CCC0
CCC0
CCC0
3300
3300
ENDCHAR
STARTCHAR CYRILLIC
ENCODING 1152
SWIDTH 543 0
DWIDTH 12 0
BBX 10 18 0 -4
BITMAP
3F00
3F00
C0C0
C0C0
C000
C000
C000
C000
C000
C000
C000
C000
3F00
3F00
0300
0300
0300
0300
ENDCHAR
STARTCHAR CYRILLIC
ENCODING 1153
SWIDTH 543 0
DWIDTH 12 0
BBX 10 14 0 -4
BITMAP
3F00
3F00
C0C0
C0C0
C000
C000
C000
C000
3F00
3F00
0300
0300
0300
0300
ENDCHAR
STARTCHAR CYRILLIC
ENCODING 1154
SWIDTH 543 0
DWIDTH 12 0
BBX 8 16 0 0
BITMAP
03
03
03
03
3C
3C
0F
0F
F0
F0
3C
3C
C0
C0
C0
C0
ENDCHAR
STARTCHAR COMBINING
ENCODING 1155
SWIDTH 543 0
DWIDTH 12 0
BBX 10 6 0 12
BITMAP
00C0
00C0
3F00
3F00
C000
C000
ENDCHAR
STARTCHAR COMBINING
ENCODING 1156
SWIDTH 543 0
DWIDTH 12 0
BBX 8 4 4 14
BITMAP
3C
3C
C3
C3
ENDCHAR
STARTCHAR COMBINING
ENCODING 1157
SWIDTH 543 0
DWIDTH 12 0
BBX 4 6 4 12
BITMAP
F0
F0
C0
C0
30
30
ENDCHAR
STARTCHAR COMBINING
ENCODING 1158
SWIDTH 543 0
DWIDTH 12 0
BBX 4 6 4 12
BITMAP
F0
F0
30
30
C0
C0
ENDCHAR
STARTCHAR CYRILLIC
ENCODING 1162
SWIDTH 543 0
DWIDTH 12 0
BBX 12 22 0 -4
BITMAP
3300
3300
0C00
0C00
C3C0
C3C0
C3C0
C3C0
CCC0
CCC0
CCC0
CCC0
CCC0
CCC0
F0C0
F0C0
F0F0
F0F0
00C0
00C0
0300
0300
ENDCHAR
STARTCHAR CYRILLIC
ENCODING 1163
SWIDTH 543 0
DWIDTH 12 0
BBX 12 18 0 -4
BITMAP
3300
3300
0C00
0C00
C0C0
C0C0
C3C0
C3C0
CCC0
CCC0
F0C0
F0C0
C0F0
C0F0
00C0
00C0
0300
0300
ENDCHAR
STARTCHAR CYRILLIC
ENCODING 1164
SWIDTH 543 0
DWIDTH 12 0
BBX 12 16 0 0
BITMAP
3000
3000
FC00
FC00
3000
3000
3FC0
3FC0
3030
3030
3030
3030
3030
3030
3FC0
3FC0
ENDCHAR
STARTCHAR CYRILLIC
ENCODING 1165
SWIDTH 543 0
DWIDTH 12 0
BBX 10 14 0 0
BITMAP
3000
3000
FC00
FC00
3000
3000
3F00
3F00
30C0
30C0
30C0
30C0
3F00
3F00
ENDCHAR
STARTCHAR CYRILLIC
ENCODING 1166
SWIDTH 543 0
DWIDTH 12 0
BBX 10 14 0 0
BITMAP
FF00
FF00
C0C0
C0C0
CCC0
CCC0
FF00
FF00
C300
C300
C000
C000
C000
C000
ENDCHAR
STARTCHAR CYRILLIC
ENCODING 1167
SWIDTH 543 0
DWIDTH 12 0
BBX 10 14 0 -4
BITMAP
FF00
FF00
C0C0
C0C0
C0C0
C0C0
CCC0
CCC0
FF00
FF00
C300
C300
C000
C000
ENDCHAR
STARTCHAR CYRILLIC
ENCODING 1168
SWIDTH 543 0
DWIDTH 12 0
BBX 8 18 0 0
BITMAP
03
03
03
03
FF
FF
C0
C0
C0
C0
C0
C0
C0
C0
C0
C0
C0
C0
ENDCHAR
STARTCHAR CYRILLIC
ENCODING 1169
SWIDTH 543 0
DWIDTH 12 0
BBX 8 14 0 0
BITMAP
03
03
03
03
FF
FF
C0
C0
C0
C0
C0
C0
C0
C0
ENDCHAR
STARTCHAR CYRILLIC
ENCODING 1170
SWIDTH 543 0
DWIDTH 12 0
BBX 10 14 0 0
BITMAP
3FC0
3FC0
3000
3000
3000
3000
FF00
FF00
3000
3000
3000
3000
3000
3000
ENDCHAR
STARTCHAR CYRILLIC
ENCODING 1171
SWIDTH 543 0
DWIDTH 12 0
BBX 10 10 0 0
BITMAP
3FC0
3FC0
3000
3000
FF00
FF00
3000
3000
3000
3000
ENDCHAR
STARTCHAR CYRILLIC
ENCODING 1172
SWIDTH 543 0
DWIDTH 12 0
BBX 10 18 0 -4
BITMAP
FF00
FF00
C000
C000
C000
C000
FF00
FF00
C0C0
C0C0
C0C0
C0C0
00C0
00C0
C0C0
C0C0
3F00
3F00
ENDCHAR
STARTCHAR CYRILLIC
ENCODING 1173
SWIDTH 543 0
DWIDTH 12 0
BBX 10 16 0 -6
BITMAP
FF00
FF00
C000
C000
C000
C000
FF00
FF00
C0C0
C0C0
00C0
00C0
C0C0
C0C0
3F00
3F00
ENDCHAR
STARTCHAR CYRILLIC
ENCODING 1174
SWIDTH 543 0
DWIDTH 12 0
BBX 12 18 0 -4
BITMAP
CCC0
CCC0
CCC0
CCC0
CCC0
CCC0
3F00
3F00
CCC0
CCC0
CCC0
CCC0
CCF0
CCF0
0030
0030
0030
0030
ENDCHAR
STARTCHAR CYRILLIC
ENCODING 1175
SWIDTH 543 0
DWIDTH 12 0
BBX 12 14 0 -4
BITMAP
CCC0
CCC0
CCC0
CCC0
3F00
3F00
CCC0
CCC0
CCF0
CCF0
0030
0030
0030
0030
ENDCHAR
STARTCHAR CYRILLIC
ENCODING 1176
SWIDTH 543 0
DWIDTH 12 0
BBX 10 18 0 -4
BITMAP
3F00
3F00
C0C0
C0C0
00C0
00C0
0F00
0F00
00C0
00C0
C0C0
C0C0
3F00
3F00
0C00
0C00
0C00
0C00
ENDCHAR
STARTCHAR CYRILLIC
ENCODING 1177
SWIDTH 543 0
DWIDTH 12 0
BBX 10 14 0 -4
BITMAP
3F00
3F00
C0C0
C0C0
0F00
0F00
C0C0
C0C0
3F00
3F00
0C00
0C00
0C00
0C00
ENDCHAR
STARTCHAR CYRILLIC
ENCODING 1178
SWIDTH 543 0
DWIDTH 12 0
BBX 10 18 0 -4
BITMAP
C3C0
C3C0
CC00
CC00
F000
F000
F000
F000
CC00
CC00
C300
C300
C0C0
C0C0
00C0
00C0
00C0
00C0
ENDCHAR
STARTCHAR CYRILLIC
ENCODING 1179
SWIDTH 543 0
DWIDTH 12 0
BBX 10 18 0 -4
BITMAP
C000
C000
C000
C000
C3C0
C3C0
CC00
CC00
F000
F000
CC00
CC00
C300
C300
00C0
00C0
00C0
00C0
ENDCHAR
STARTCHAR CYRILLIC
ENCODING 1180
SWIDTH 543 0
DWIDTH 12 0
BBX 10 14 0 0
BITMAP
C0C0
C0C0
CCC0
CCC0
CCC0
CCC0
FF00
FF00
CCC0
CCC0
CCC0
CCC0
C0C0
C0C0
ENDCHAR
STARTCHAR CYRILLIC
ENCODING 1181
SWIDTH 543 0
DWIDTH 12 0
BBX 10 14 0 0
BITMAP
C000
C000
C000
C000
CCC0
CCC0
CCC0
CCC0
FF00
FF00
CCC0
CCC0
CCC0
CCC0
ENDCHAR
STARTCHAR CYRILLIC
ENCODING 1182
SWIDTH 543 0
DWIDTH 12 0
BBX 10 14 0 0
BITMAP
C0C0
C0C0
F300
F300
C300
C300
FC00
FC00
CC00
CC00
C300
C300
C0C0
C0C0
ENDCHAR
STARTCHAR CYRILLIC
ENCODING 1183
SWIDTH 543 0
DWIDTH 12 0
BBX 10 14 0 0
BITMAP
C000
C000
F0C0
F0C0
C300
C300
C300
C300
FC00
FC00
C300
C300
C0C0
C0C0
ENDCHAR
STARTCHAR CYRILLIC
ENCODING 1184
SWIDTH 543 0
DWIDTH 12 0
BBX 10 14 0 0
BITMAP
F0C0
F0C0
3300
3300
3300
3300
3C00
3C00
3300
3300
30C0
30C0
30C0
30C0
ENDCHAR
STARTCHAR CYRILLIC
ENCODING 1185
SWIDTH 543 0
DWIDTH 12 0
BBX 10 10 0 0
BITMAP
F0C0
F0C0
3300
3300
3C00
3C00
3300
3300
30C0
30C0
ENDCHAR
STARTCHAR CYRILLIC
ENCODING 1186
SWIDTH 543 0
DWIDTH 12 0
BBX 12 18 0 -4
BITMAP
C0C0
C0C0
C0C0
C0C0
C0C0
C0C0
FFC0
FFC0
C0C0
C0C0
C0C0
C0C0
C0F0
C0F0
0030
0030
0030
0030
ENDCHAR
STARTCHAR CYRILLIC
ENCODING 1187
SWIDTH 543 0
DWIDTH 12 0
BBX 12 14 0 -4
BITMAP
C0C0
C0C0
C0C0
C0C0
FFC0
FFC0
C0C0
C0C0
C0F0
C0F0
0030
0030
0030
0030
ENDCHAR
STARTCHAR CYRILLIC
ENCODING 1188
SWIDTH 543 0
DWIDTH 12 0
BBX 10 14 0 0
BITMAP
C3C0
C3C0
C300
C300
C300
C300
FF00
FF00
C300
C300
C300
C300
C300
C300
ENDCHAR
STARTCHAR CYRILLIC
ENCODING 1189
SWIDTH 543 0
DWIDTH 12 0
BBX 10 10 0 0
BITMAP
C3C0
C3C0
C300
C300
FF00
FF00
C300
C300
C300
C300
ENDCHAR
STARTCHAR CYRILLIC
ENCODING 1190
SWIDTH 543 0
DWIDTH 12 0
BBX 10 18 0 -4
BITMAP
FC00
FC00
CC00
CC00
CC00
CC00
CF00
CF00
CCC0
CCC0
CCC0
CCC0
CCC0
CCC0
00C0
00C0
0F00
0F00
ENDCHAR
STARTCHAR CYRILLIC
ENCODING 1191
SWIDTH 543 0
DWIDTH 12 0
BBX 10 14 0 -4
BITMAP
FC00
FC00
CC00
CC00
CF00
CF00
CCC0
CCC0
CCC0
CCC0
00C0
00C0
0F00
0F00
ENDCHAR
STARTCHAR CYRILLIC
ENCODING 1192
SWIDTH 543 0
DWIDTH 12 0
BBX 10 18 0 -4
BITMAP
3F00
3F00
C000
C000
C300
C300
CCC0
CCC0
CCC0
CCC0
CCC0
CCC0
3F00
3F00
0C00
0C00
03C0
03C0
ENDCHAR
STARTCHAR CYRILLIC
ENCODING 1193
SWIDTH 543 0
DWIDTH 12 0
BBX 10 14 0 -4
BITMAP
3F00
3F00
C000
C000
C300
C300
CCC0
CCC0
3F00
3F00
0C00
0C00
03C0
03C0
ENDCHAR
STARTCHAR CYRILLIC
ENCODING 1194
SWIDTH 543 0
DWIDTH 12 0
BBX 10 18 0 -4
BITMAP
3F00
3F00
C0C0
C0C0
C000
C000
C000
C000
C000
C000
C0C0
C0C0
3F00
3F00
0C00
0C00
0C00
0C00
ENDCHAR
STARTCHAR CYRILLIC
ENCODING 1195
SWIDTH 543 0
DWIDTH 12 0
BBX 10 14 0 -4
BITMAP
3F00
3F00
C0C0
C0C0
C000
C000
C000
C000
3FC0
3FC0
0C00
0C00
0C00
0C00
ENDCHAR
STARTCHAR CYRILLIC
ENCODING 1196
SWIDTH 543 0
DWIDTH 12 0
BBX 10 18 0 -4
BITMAP
FFC0
FFC0
0C00
0C00
0C00
0C00
0C00
0C00
0C00
0C00
0C00
0C00
0F00
0F00
0300
0300
0300
0300
ENDCHAR
STARTCHAR CYRILLIC
ENCODING 1197
SWIDTH 543 0
DWIDTH 12 0
BBX 10 14 0 -4
BITMAP
FFC0
FFC0
0C00
0C00
0C00
0C00
0C00
0C00
0F00
0F00
0300
0300
0300
0300
ENDCHAR
STARTCHAR CYRILLIC
ENCODING 1198
SWIDTH 543 0
DWIDTH 12 0
BBX 10 14 0 0
BITMAP
C0C0
C0C0
C0C0
C0C0
C0C0
C0C0
3300
3300
0C00
0C00
0C00
0C00
0C00
0C00
ENDCHAR
STARTCHAR CYRILLIC
ENCODING 1199
SWIDTH 543 0
DWIDTH 12 0
BBX 10 14 0 -4
BITMAP
C0C0
C0C0
C0C0
C0C0
C0C0
C0C0
3300
3300
0C00
0C00
0C00
0C00
0C00
0C00
ENDCHAR
STARTCHAR CYRILLIC
ENCODING 1200
SWIDTH 543 0
DWIDTH 12 0
BBX 10 14 0 0
BITMAP
C0C0
C0C0
C0C0
C0C0
C0C0
C0C0
3300
3300
FFC0
FFC0
0C00
0C00
0C00
0C00
ENDCHAR
STARTCHAR CYRILLIC
ENCODING 1201
SWIDTH 543 0
DWIDTH 12 0
BBX 10 14 0 -4
BITMAP
C0C0
C0C0
C0C0
C0C0
C0C0
C0C0
3300
3300
FFC0
FFC0
0C00
0C00
0C00
0C00
ENDCHAR
STARTCHAR CYRILLIC
ENCODING 1202
SWIDTH 543 0
DWIDTH 12 0
BBX 12 18 0 -4
BITMAP
C0C0
C0C0
C0C0
C0C0
3300
3300
0C00
0C00
3300
3300
C0C0
C0C0
C0F0
C0F0
0030
0030
0030
0030
ENDCHAR
STARTCHAR CYRILLIC
ENCODING 1203
SWIDTH 543 0
DWIDTH 12 0
BBX 12 14 0 -4
BITMAP
C0C0
C0C0
3300
3300
0C00
0C00
3300
3300
C0F0
C0F0
0030
0030
0030
0030
ENDCHAR
STARTCHAR CYRILLIC
ENCODING 1204
SWIDTH 543 0
DWIDTH 12 0
BBX 12 18 0 -4
BITMAP
FCC0
FCC0
30C0
30C0
30C0
30C0
30C0
30C0
30C0
30C0
30C0
30C0
3FF0
3FF0
0030
0030
0030
0030
ENDCHAR
STARTCHAR CYRILLIC
ENCODING 1205
SWIDTH 543 0
DWIDTH 12 0
BBX 12 14 0 -4
BITMAP
FCC0
FCC0
30C0
30C0
30C0
30C0
30C0
30C0
3FF0
3FF0
0030
0030
0030
0030
ENDCHAR
STARTCHAR CYRILLIC
ENCODING 1206
SWIDTH 543 0
DWIDTH 12 0
BBX 12 18 0 -4
BITMAP
C0C0
C0C0
C0C0
C0C0
C0C0
C0C0
3FC0
3FC0
00C0
00C0
00C0
00C0
00F0
00F0
0030
0030
0030
0030
ENDCHAR
STARTCHAR CYRILLIC
ENCODING 1207
SWIDTH 543 0
DWIDTH 12 0
BBX 12 16 0 -6
BITMAP
C0C0
C0C0
C0C0
C0C0
C0C0
C0C0
3FC0
3FC0
00C0
00C0
00F0
00F0
0030
0030
0030
0030
ENDCHAR
STARTCHAR CYRILLIC
ENCODING 1208
SWIDTH 543 0
DWIDTH 12 0
BBX 10 14 0 0
BITMAP
C0C0
C0C0
C0C0
C0C0
CCC0
CCC0
3FC0
3FC0
0CC0
0CC0
00C0
00C0
00C0
00C0
ENDCHAR
STARTCHAR CYRILLIC
ENCODING 1209
SWIDTH 543 0
DWIDTH 12 0
BBX 10 14 0 -4
BITMAP
C0C0
C0C0
C0C0
C0C0
CCC0
CCC0
3FC0
3FC0
0CC0
0CC0
00C0
00C0
00C0
00C0
ENDCHAR
STARTCHAR CYRILLIC
ENCODING 1210
SWIDTH 543 0
DWIDTH 12 0
BBX 10 14 0 0
BITMAP
C000
C000
C000
C000
C000
C000
FF00
FF00
C0C0
C0C0
C0C0
C0C0
C0C0
C0C0
ENDCHAR
STARTCHAR CYRILLIC
ENCODING 1211
SWIDTH 543 0
DWIDTH 12 0
BBX 8 12 0 0
BITMAP
C0
C0
C0
C0
FC
FC
C3
C3
C3
C3
C3
C3
ENDCHAR
STARTCHAR CYRILLIC
ENCODING 1212
SWIDTH 543 0
DWIDTH 12 0
BBX 10 14 0 0
BITMAP
0300
0300
CCC0
CCC0
CCC0
CCC0
3FC0
3FC0
0C00
0C00
0CC0
0CC0
0300
0300
ENDCHAR
STARTCHAR CYRILLIC
ENCODING 1213
SWIDTH 543 0
DWIDTH 12 0
BBX 10 10 0 0
BITMAP
C300
C300
CCC0
CCC0
3FC0
3FC0
0C00
0C00
03C0
03C0
ENDCHAR
STARTCHAR CYRILLIC
ENCODING 1214
SWIDTH 543 0
DWIDTH 12 0
BBX 10 16 0 -2
BITMAP
0300
0300
CCC0
CCC0
CCC0
CCC0
3FC0
3FC0
0C00
0C00
0CC0
0CC0
0300
0300
00C0
00C0
ENDCHAR
STARTCHAR CYRILLIC
ENCODING 1215
SWIDTH 543 0
DWIDTH 12 0
BBX 10 14 0 -4
BITMAP
C300
C300
CCC0
CCC0
3FC0
3FC0
0C00
0C00
03C0
03C0
0300
0300
00C0
00C0
ENDCHAR
STARTCHAR CYRILLIC
ENCODING 1216
SWIDTH 543 0
DWIDTH 12 0
BBX 6 14 2 0
BITMAP
FC
FC
30
30
30
30
30
30
30
30
30
30
FC
FC
ENDCHAR
STARTCHAR CYRILLIC
ENCODING 1217
SWIDTH 543 0
DWIDTH 12 0
BBX 10 18 0 0
BITMAP
C0C0
C0C0
3F00
3F00
CCC0
CCC0
CCC0
CCC0
CCC0
CCC0
3F00
3F00
CCC0
CCC0
CCC0
CCC0
CCC0
CCC0
ENDCHAR
STARTCHAR CYRILLIC
ENCODING 1218
SWIDTH 543 0
DWIDTH 12 0
BBX 10 16 0 0
BITMAP
C0C0
C0C0
3F00
3F00
0000
0000
CCC0
CCC0
CCC0
CCC0
3F00
3F00
CCC0
CCC0
CCC0
CCC0
ENDCHAR
STARTCHAR CYRILLIC
ENCODING 1219
SWIDTH 543 0
DWIDTH 12 0
BBX 10 18 0 -4
BITMAP
C3C0
C3C0
CC00
CC00
CC00
CC00
F000
F000
FF00
FF00
C0C0
C0C0
C0C0
C0C0
00C0
00C0
3F00
3F00
ENDCHAR
STARTCHAR CYRILLIC
ENCODING 1220
SWIDTH 543 0
DWIDTH 12 0
BBX 10 14 0 -4
BITMAP
C3C0
C3C0
CC00
CC00
F000
F000
FF00
FF00
C0C0
C0C0
00C0
00C0
3F00
3F00
ENDCHAR
STARTCHAR CYRILLIC
ENCODING 1221
SWIDTH 543 0
DWIDTH 12 0
BBX 10 18 0 -4
BITMAP
3F00
3F00
3300
3300
3300
3300
3300
3300
3300
3300
3300
3300
C3C0
C3C0
00C0
00C0
0300
0300
ENDCHAR
STARTCHAR CYRILLIC
ENCODING 1222
SWIDTH 543 0
DWIDTH 12 0
BBX 10 14 0 -4
BITMAP
3F00
3F00
3300
3300
3300
3300
3300
3300
C3C0
C3C0
00C0
00C0
0300
0300
ENDCHAR
STARTCHAR CYRILLIC
ENCODING 1223
SWIDTH 543 0
DWIDTH 12 0
BBX 10 18 0 -4
BITMAP
C0C0
C0C0
C0C0
C0C0
C0C0
C0C0
FFC0
FFC0
C0C0
C0C0
C0C0
C0C0
C0C0
C0C0
00C0
00C0
3F00
3F00
ENDCHAR
STARTCHAR CYRILLIC
ENCODING 1224
SWIDTH 543 0
DWIDTH 12 0
BBX 10 14 0 -4
BITMAP
C0C0
C0C0
C0C0
C0C0
FFC0
FFC0
C0C0
C0C0
C0C0
C0C0
00C0
00C0
0F00
0F00
ENDCHAR
STARTCHAR CYRILLIC
ENCODING 1225
SWIDTH 543 0
DWIDTH 12 0
BBX 12 18 0 -4
BITMAP
C0C0
C0C0
C0C0
C0C0
C0C0
C0C0
FFC0
FFC0
C0C0
C0C0
C0C0
C0C0
C0F0
C0F0
0030
0030
00C0
00C0
ENDCHAR
STARTCHAR CYRILLIC
ENCODING 1226
SWIDTH 543 0
DWIDTH 12 0
BBX 12 14 0 -4
BITMAP
C0C0
C0C0
C0C0
C0C0
FFC0
FFC0
C0C0
C0C0
C0F0
C0F0
0030
0030
00C0
00C0
ENDCHAR
STARTCHAR CYRILLIC
ENCODING 1227
SWIDTH 543 0
DWIDTH 12 0
BBX 10 18 0 -4
BITMAP
C0C0
C0C0
C0C0
C0C0
C0C0
C0C0
C0C0
C0C0
3FC0
3FC0
00C0
00C0
03C0
03C0
0300
0300
0300
0300
ENDCHAR
STARTCHAR CYRILLIC
ENCODING 1228
SWIDTH 543 0
DWIDTH 12 0
BBX 10 16 0 -6
BITMAP
C0C0
C0C0
C0C0
C0C0
C0C0
C0C0
3FC0
3FC0
00C0
00C0
03C0
03C0
0300
0300
0300
0300
ENDCHAR
STARTCHAR CYRILLIC
ENCODING 1229
SWIDTH 543 0
DWIDTH 12 0
BBX 12 18 0 -4
BITMAP
C0C0
C0C0
F3C0
F3C0
CCC0
CCC0
C0C0
C0C0
C0C0
C0C0
C0C0
C0C0
C0F0
C0F0
0030
0030
00C0
00C0
ENDCHAR
STARTCHAR CYRILLIC
ENCODING 1230
SWIDTH 543 0
DWIDTH 12 0
BBX 12 14 0 -4
BITMAP
C0C0
C0C0
F3C0
F3C0
CCC0
CCC0
C0C0
C0C0
C0F0
C0F0
0030
0030
00C0
00C0
ENDCHAR
STARTCHAR CYRILLIC
ENCODING 1231
SWIDTH 543 0
DWIDTH 12 0
BBX 2 14 4 0
BITMAP
C0
C0
C0
C0
C0
C0
C0
C0
C0
C0
C0
C0
C0
C0
ENDCHAR
STARTCHAR CYRILLIC
ENCODING 1232
SWIDTH 543 0
DWIDTH 12 0
BBX 10 18 0 0
BITMAP
C0C0
C0C0
3F00
3F00
3F00
3F00
C0C0
C0C0
C0C0
C0C0
FFC0
FFC0
C0C0
C0C0
C0C0
C0C0
C0C0
C0C0
ENDCHAR
STARTCHAR CYRILLIC
ENCODING 1233
SWIDTH 543 0
DWIDTH 12 0
BBX 10 16 0 0
BITMAP
C0C0
C0C0
3F00
3F00
0000
0000
3FC0
3FC0
C0C0
C0C0
C0C0
C0C0
C3C0
C3C0
3CC0
3CC0
ENDCHAR
STARTCHAR CYRILLIC
ENCODING 1234
SWIDTH 543 0
DWIDTH 12 0
BBX 10 18 0 0
BITMAP
3300
3300
0000
0000
3F00
3F00
C0C0
C0C0
C0C0
C0C0
FFC0
FFC0
C0C0
C0C0
C0C0
C0C0
C0C0
C0C0
ENDCHAR
STARTCHAR CYRILLIC
ENCODING 1235
SWIDTH 543 0
DWIDTH 12 0
BBX 10 14 0 0
BITMAP
3300
3300
0000
0000
3FC0
3FC0
C0C0
C0C0
C0C0
C0C0
C3C0
C3C0
3CC0
3CC0
ENDCHAR
STARTCHAR CYRILLIC
ENCODING 1236
SWIDTH 543 0
DWIDTH 12 0
BBX 10 14 0 0
BITMAP
3FC0
3FC0
CC00
CC00
CC00
CC00
FF00
FF00
CC00
CC00
CC00
CC00
CFC0
CFC0
ENDCHAR
STARTCHAR CYRILLIC
ENCODING 1237
SWIDTH 543 0
DWIDTH 12 0
BBX 10 10 0 0
BITMAP
F300
F300
0CC0
0CC0
3FC0
3FC0
CC00
CC00
33C0
33C0
ENDCHAR
STARTCHAR CYRILLIC
ENCODING 1238
SWIDTH 543 0
DWIDTH 12 0
BBX 10 18 0 0
BITMAP
C0C0
C0C0
3F00
3F00
FFC0
FFC0
C000
C000
C000
C000
FF00
FF00
C000
C000
C000
C000
FFC0
FFC0
ENDCHAR
STARTCHAR CYRILLIC
ENCODING 1239
SWIDTH 543 0
DWIDTH 12 0
BBX 10 16 0 0
BITMAP
C0C0
C0C0
3F00
3F00
0000
0000
3F00
3F00
C0C0
C0C0
FFC0
FFC0
C000
C000
3FC0
3FC0
ENDCHAR
STARTCHAR CYRILLIC
ENCODING 1240
SWIDTH 543 0
DWIDTH 12 0
BBX 10 14 0 0
BITMAP
3F00
3F00
C0C0
C0C0
00C0
00C0
FFC0
FFC0
C0C0
C0C0
C0C0
C0C0
3F00
3F00
ENDCHAR
STARTCHAR CYRILLIC
ENCODING 1241
SWIDTH 543 0
DWIDTH 12 0
BBX 10 10 0 0
BITMAP
FF00
FF00
00C0
00C0
3FC0
3FC0
C0C0
C0C0
3F00
3F00
ENDCHAR
STARTCHAR CYRILLIC
ENCODING 1242
SWIDTH 543 0
DWIDTH 12 0
BBX 10 18 0 0
BITMAP
3300
3300
0000
0000
3F00
3F00
C0C0
C0C0
00C0
00C0
FFC0
FFC0
C0C0
C0C0
C0C0
C0C0
3F00
3F00
ENDCHAR
STARTCHAR CYRILLIC
ENCODING 1243
SWIDTH 543 0
DWIDTH 12 0
BBX 10 14 0 0
BITMAP
3300
3300
0000
0000
FF00
FF00
00C0
00C0
3FC0
3FC0
C0C0
C0C0
3F00
3F00
ENDCHAR
STARTCHAR CYRILLIC
ENCODING 1244
SWIDTH 543 0
DWIDTH 12 0
BBX 10 18 0 0
BITMAP
3300
3300
0000
0000
CCC0
CCC0
CCC0
CCC0
CCC0
CCC0
3F00
3F00
CCC0
CCC0
CCC0
CCC0
CCC0
CCC0
ENDCHAR
STARTCHAR CYRILLIC
ENCODING 1245
SWIDTH 543 0
DWIDTH 12 0
BBX 10 14 0 0
BITMAP
3300
3300
0000
0000
CCC0
CCC0
CCC0
CCC0
3F00
3F00
CCC0
CCC0
CCC0
CCC0
ENDCHAR
STARTCHAR CYRILLIC
ENCODING 1246
SWIDTH 543 0
DWIDTH 12 0
BBX 10 18 0 0
BITMAP
3300
3300
0000
0000
3F00
3F00
C0C0
C0C0
00C0
00C0
0F00
0F00
00C0
00C0
C0C0
C0C0
3F00
3F00
ENDCHAR
STARTCHAR CYRILLIC
ENCODING 1247
SWIDTH 543 0
DWIDTH 12 0
BBX 10 14 0 0
BITMAP
3300
3300
0000
0000
3F00
3F00
C0C0
C0C0
0F00
0F00
C0C0
C0C0
3F00
3F00
ENDCHAR
STARTCHAR CYRILLIC
ENCODING 1248
SWIDTH 543 0
DWIDTH 12 0
BBX 10 14 0 0
BITMAP
FFC0
FFC0
0300
0300
0C00
0C00
3F00
3F00
00C0
00C0
C0C0
C0C0
3F00
3F00
ENDCHAR
STARTCHAR CYRILLIC
ENCODING 1249
SWIDTH 543 0
DWIDTH 12 0
BBX 8 14 0 0
BITMAP
FF
FF
0C
0C
30
30
FC
FC
03
03
C3
C3
3C
3C
ENDCHAR
STARTCHAR CYRILLIC
ENCODING 1250
SWIDTH 543 0
DWIDTH 12 0
BBX 10 18 0 0
BITMAP
3F00
3F00
0000
0000
C3C0
C3C0
C3C0
C3C0
CCC0
CCC0
CCC0
CCC0
CCC0
CCC0
F0C0
F0C0
F0C0
F0C0
ENDCHAR
STARTCHAR CYRILLIC
ENCODING 1251
SWIDTH 543 0
DWIDTH 12 0
BBX 10 14 0 0
BITMAP
3F00
3F00
0000
0000
C0C0
C0C0
C3C0
C3C0
CCC0
CCC0
F0C0
F0C0
C0C0
C0C0
ENDCHAR
STARTCHAR CYRILLIC
ENCODING 1252
SWIDTH 543 0
DWIDTH 12 0
BBX 10 18 0 0
BITMAP
3300
3300
0000
0000
C3C0
C3C0
C3C0
C3C0
CCC0
CCC0
CCC0
CCC0
CCC0
CCC0
F0C0
F0C0
F0C0
F0C0
ENDCHAR
STARTCHAR CYRILLIC
ENCODING 1253
SWIDTH 543 0
DWIDTH 12 0
BBX 10 14 0 0
BITMAP
3300
3300
0000
0000
C0C0
C0C0
C3C0
C3C0
CCC0
CCC0
F0C0
F0C0
C0C0
C0C0
ENDCHAR
STARTCHAR CYRILLIC
ENCODING 1254
SWIDTH 543 0
DWIDTH 12 0
BBX 10 18 0 0
BITMAP
3300
3300
0000
0000
3F00
3F00
C0C0
C0C0
C0C0
C0C0
C0C0
C0C0
C0C0
C0C0
C0C0
C0C0
3F00
3F00
ENDCHAR
STARTCHAR CYRILLIC
ENCODING 1255
SWIDTH 543 0
DWIDTH 12 0
BBX 10 14 0 0
BITMAP
3300
3300
0000
0000
3F00
3F00
C0C0
C0C0
C0C0
C0C0
C0C0
C0C0
3F00
3F00
ENDCHAR
STARTCHAR CYRILLIC
ENCODING 1256
SWIDTH 543 0
DWIDTH 12 0
BBX 10 14 0 0
BITMAP
3F00
3F00
C0C0
C0C0
C0C0
C0C0
FFC0
FFC0
C0C0
C0C0
C0C0
C0C0
3F00
3F00
ENDCHAR
STARTCHAR CYRILLIC
ENCODING 1257
SWIDTH 543 0
DWIDTH 12 0
BBX 10 10 0 0
BITMAP
3F00
3F00
C0C0
C0C0
FFC0
FFC0
C0C0
C0C0
3F00
3F00
ENDCHAR
STARTCHAR CYRILLIC
ENCODING 1258
SWIDTH 543 0
DWIDTH 12 0
BBX 10 18 0 0
BITMAP
3300
3300
0000
0000
3F00
3F00
C0C0
C0C0
C0C0
C0C0
FFC0
FFC0
C0C0
C0C0
C0C0
C0C0
3F00
3F00
ENDCHAR
STARTCHAR CYRILLIC
ENCODING 1259
SWIDTH 543 0
DWIDTH 12 0
BBX 10 14 0 0
BITMAP
3300
3300
0000
0000
3F00
3F00
C0C0
C0C0
FFC0
FFC0
C0C0
C0C0
3F00
3F00
ENDCHAR
STARTCHAR CYRILLIC
ENCODING 1260
SWIDTH 543 0
DWIDTH 12 0
BBX 10 18 0 0
BITMAP
3300
3300
0000
0000
3F00
3F00
C0C0
C0C0
00C0
00C0
0FC0
0FC0
00C0
00C0
C0C0
C0C0
3F00
3F00
ENDCHAR
STARTCHAR CYRILLIC
ENCODING 1261
SWIDTH 543 0
DWIDTH 12 0
BBX 10 14 0 0
BITMAP
3300
3300
0000
0000
3F00
3F00
C0C0
C0C0
0FC0
0FC0
C0C0
C0C0
3F00
3F00
ENDCHAR
STARTCHAR CYRILLIC
ENCODING 1262
SWIDTH 543 0
DWIDTH 12 0
BBX 10 18 0 0
BITMAP
3F00
3F00
0000
0000
C0C0
C0C0
C0C0
C0C0
C0C0
C0C0
3300
3300
0C00
0C00
0C00
0C00
F000
F000
ENDCHAR
STARTCHAR CYRILLIC
ENCODING 1263
SWIDTH 543 0
DWIDTH 12 0
BBX 10 18 0 -4
BITMAP
3F00
3F00
0000
0000
C0C0
C0C0
C0C0
C0C0
C0C0
C0C0
C0C0
C0C0
3FC0
3FC0
00C0
00C0
3F00
3F00
ENDCHAR
STARTCHAR CYRILLIC
ENCODING 1264
SWIDTH 543 0
DWIDTH 12 0
BBX 10 18 0 0
BITMAP
3300
3300
0000
0000
C0C0
C0C0
C0C0
C0C0
C0C0
C0C0
3300
3300
0C00
0C00
0C00
0C00
F000
F000
ENDCHAR
STARTCHAR CYRILLIC
ENCODING 1265
SWIDTH 543 0
DWIDTH 12 0
BBX 10 18 0 -4
BITMAP
3300
3300
0000
0000
C0C0
C0C0
C0C0
C0C0
C0C0
C0C0
C0C0
C0C0
3FC0
3FC0
00C0
00C0
3F00
3F00
ENDCHAR
STARTCHAR CYRILLIC
ENCODING 1266
SWIDTH 543 0
DWIDTH 12 0
BBX 10 18 0 0
BITMAP
0CC0
0CC0
3300
3300
C0C0
C0C0
C0C0
C0C0
C0C0
C0C0
3300
3300
0C00
0C00
0C00
0C00
F000
F000
ENDCHAR
STARTCHAR CYRILLIC
ENCODING 1267
SWIDTH 543 0
DWIDTH 12 0
BBX 10 20 0 -4
BITMAP
0CC0
0CC0
3300
3300
0000
0000
C0C0
C0C0
C0C0
C0C0
C0C0
C0C0
C0C0
C0C0
3FC0
3FC0
00C0
00C0
3F00
3F00
ENDCHAR
STARTCHAR CYRILLIC
ENCODING 1268
SWIDTH 543 0
DWIDTH 12 0
BBX 10 18 0 0
BITMAP
3300
3300
0000
0000
C0C0
C0C0
C0C0
C0C0
C0C0
C0C0
3FC0
3FC0
00C0
00C0
00C0
00C0
00C0
00C0
ENDCHAR
STARTCHAR CYRILLIC
ENCODING 1269
SWIDTH 543 0
DWIDTH 12 0
BBX 10 16 0 -2
BITMAP
3300
3300
0000
0000
C0C0
C0C0
C0C0
C0C0
C0C0
C0C0
3FC0
3FC0
00C0
00C0
00C0
00C0
ENDCHAR
STARTCHAR CYRILLIC
ENCODING 1270
SWIDTH 543 0
DWIDTH 12 0
BBX 10 18 0 -4
BITMAP
FFC0
FFC0
C000
C000
C000
C000
C000
C000
C000
C000
C000
C000
F000
F000
3000
3000
3000
3000
ENDCHAR
STARTCHAR CYRILLIC
ENCODING 1271
SWIDTH 543 0
DWIDTH 12 0
BBX 8 14 0 -4
BITMAP
FF
FF
C0
C0
C0
C0
C0
C0
F0
F0
30
30
30
30
ENDCHAR
STARTCHAR CYRILLIC
ENCODING 1272
SWIDTH 543 0
DWIDTH 12 0
BBX 10 18 0 0
BITMAP
3300
3300
0000
0000
C0C0
C0C0
C0C0
C0C0
F0C0
F0C0
CCC0
CCC0
CCC0
CCC0
CCC0
CCC0
F0C0
F0C0
ENDCHAR
STARTCHAR CYRILLIC
ENCODING 1273
SWIDTH 543 0
DWIDTH 12 0
BBX 10 16 0 0
BITMAP
3300
3300
0000
0000
C0C0
C0C0
C0C0
C0C0
F0C0
F0C0
CCC0
CCC0
CCC0
CCC0
F0C0
F0C0
ENDCHAR
STARTCHAR CYRILLIC
ENCODING 1274
SWIDTH 543 0
DWIDTH 12 0
BBX 10 20 0 -4
BITMAP
3FC0
3FC0
3000
3000
3000
3000
FF00
FF00
3000
3000
3000
3000
3000
3000
3C00
3C00
0C00
0C00
3000
3000
ENDCHAR
STARTCHAR CYRILLIC
ENCODING 1275
SWIDTH 543 0
DWIDTH 12 0
BBX 10 14 0 -4
BITMAP
3FC0
3FC0
3000
3000
FC00
FC00
3000
3000
3C00
3C00
0C00
0C00
3000
3000
ENDCHAR
STARTCHAR CYRILLIC
ENCODING 1276
SWIDTH 543 0
DWIDTH 12 0
BBX 10 18 0 -4
BITMAP
C0C0
C0C0
C0C0
C0C0
3300
3300
0C00
0C00
3300
3300
C0C0
C0C0
C0C0
C0C0
00C0
00C0
0300
0300
ENDCHAR
STARTCHAR CYRILLIC
ENCODING 1277
SWIDTH 543 0
DWIDTH 12 0
BBX 10 14 0 -4
BITMAP
C0C0
C0C0
3300
3300
0C00
0C00
3300
3300
C0C0
C0C0
00C0
00C0
0300
0300
ENDCHAR
STARTCHAR CYRILLIC
ENCODING 1278
SWIDTH 543 0
DWIDTH 12 0
BBX 10 14 0 0
BITMAP
C0C0
C0C0
C0C0
C0C0
3300
3300
FFC0
FFC0
3300
3300
C0C0
C0C0
C0C0
C0C0
ENDCHAR
STARTCHAR CYRILLIC
ENCODING 1279
SWIDTH 543 0
DWIDTH 12 0
BBX 10 10 0 0
BITMAP
C0C0
C0C0
3300
3300
FFC0
FFC0
3300
3300
C0C0
C0C0
ENDCHAR
STARTCHAR HEBREW
ENCODING 1470
SWIDTH 543 0
DWIDTH 12 0
BBX 8 4 2 6
BITMAP
FF
FF
FF
FF
ENDCHAR
STARTCHAR HEBREW
ENCODING 1472
SWIDTH 543 0
DWIDTH 12 0
BBX 2 12 4 0
BITMAP
C0
C0
C0
C0
C0
C0
C0
C0
C0
C0
C0
C0
ENDCHAR
STARTCHAR HEBREW
ENCODING 1475
SWIDTH 543 0
DWIDTH 12 0
BBX 4 12 4 0
BITMAP
F0
F0
F0
F0
00
00
00
00
F0
F0
F0
F0
ENDCHAR
STARTCHAR HEBREW
ENCODING 1478
SWIDTH 543 0
DWIDTH 12 0
BBX 6 10 2 0
BITMAP
3C
3C
C0
C0
C0
C0
C0
C0
FC
FC
ENDCHAR
STARTCHAR HEBREW
ENCODING 1488
SWIDTH 543 0
DWIDTH 12 0
BBX 10 10 0 0
BITMAP
C3C0
C3C0
30C0
30C0
CCC0
CCC0
C300
C300
F0C0
F0C0
ENDCHAR
STARTCHAR HEBREW
ENCODING 1489
SWIDTH 543 0
DWIDTH 12 0
BBX 10 10 0 0
BITMAP
FC00
FC00
0300
0300
0300
0300
0300
0300
FFC0
FFC0
ENDCHAR
STARTCHAR HEBREW
ENCODING 1490
SWIDTH 543 0
DWIDTH 12 0
BBX 8 10 2 0
BITMAP
3C
3C
0C
0C
0C
0C
0C
0C
F3
F3
ENDCHAR
STARTCHAR HEBREW
ENCODING 1491
SWIDTH 543 0
DWIDTH 12 0
BBX 10 10 0 0
BITMAP
FFC0
FFC0
0300
0300
0300
0300
0300
0300
0300
0300
ENDCHAR
STARTCHAR HEBREW
ENCODING 1492
SWIDTH 543 0
DWIDTH 12 0
BBX 10 10 0 0
BITMAP
FF00
FF00
00C0
00C0
C0C0
C0C0
C0C0
C0C0
C0C0
C0C0
ENDCHAR
STARTCHAR HEBREW
ENCODING 1493
SWIDTH 543 0
DWIDTH 12 0
BBX 2 10 4 0
BITMAP
C0
C0
C0
C0
C0
C0
C0
C0
C0
C0
ENDCHAR
STARTCHAR HEBREW
ENCODING 1494
SWIDTH 543 0
DWIDTH 12 0
BBX 6 10 2 0
BITMAP
FC
FC
0C
0C
30
30
30
30
30
30
ENDCHAR
STARTCHAR HEBREW
ENCODING 1495
SWIDTH 543 0
DWIDTH 12 0
BBX 10 10 0 0
BITMAP
FF00
FF00
C0C0
C0C0
C0C0
C0C0
C0C0
C0C0
C0C0
C0C0
ENDCHAR
STARTCHAR HEBREW
ENCODING 1496
SWIDTH 543 0
DWIDTH 12 0
BBX 10 10 0 0
BITMAP
CFC0
CFC0
CCC0
CCC0
C0C0
C0C0
C0C0
C0C0
3F00
3F00
ENDCHAR
STARTCHAR HEBREW
ENCODING 1497
SWIDTH 543 0
DWIDTH 12 0
BBX 2 6 4 4
BITMAP
C0
C0
C0
C0
C0
C0
ENDCHAR
STARTCHAR HEBREW
ENCODING 1498
SWIDTH 543 0
DWIDTH 12 0
BBX 10 14 0 -4
BITMAP
FF00
FF00
00C0
00C0
00C0
00C0
00C0
00C0
00C0
00C0
00C0
00C0
00C0
00C0
ENDCHAR
STARTCHAR HEBREW
ENCODING 1499
SWIDTH 543 0
DWIDTH 12 0
BBX 10 10 0 0
BITMAP
FF00
FF00
00C0
00C0
00C0
00C0
00C0
00C0
FF00
FF00
ENDCHAR
STARTCHAR HEBREW
ENCODING 1500
SWIDTH 543 0
DWIDTH 12 0
BBX 10 14 0 0
BITMAP
C000
C000
C000
C000
FFC0
FFC0
00C0
00C0
00C0
00C0
0300
0300
0C00
0C00
ENDCHAR
STARTCHAR HEBREW
ENCODING 1501
SWIDTH 543 0
DWIDTH 12 0
BBX 10 10 0 0
BITMAP
FF00
FF00
C0C0
C0C0
C0C0
C0C0
C0C0
C0C0
FFC0
FFC0
ENDCHAR
STARTCHAR HEBREW
ENCODING 1502
SWIDTH 543 0
DWIDTH 12 0
BBX 10 10 0 0
BITMAP
CF00
CF00
30C0
30C0
C0C0
C0C0
C0C0
C0C0
CFC0
CFC0
ENDCHAR
STARTCHAR HEBREW
ENCODING 1503
SWIDTH 543 0
DWIDTH 12 0
BBX 2 14 4 -4
BITMAP
C0
C0
C0
C0
C0
C0
C0
C0
C0
C0
C0
C0
C0
C0
ENDCHAR
STARTCHAR HEBREW
ENCODING 1504
SWIDTH 543 0
DWIDTH 12 0
BBX 6 10 2 0
BITMAP
F0
F0
0C
0C
0C
0C
0C
0C
FC
FC
ENDCHAR
STARTCHAR HEBREW
ENCODING 1505
SWIDTH 543 0
DWIDTH 12 0
BBX 10 10 0 0
BITMAP
3F00
3F00
C0C0
C0C0
C0C0
C0C0
C0C0
C0C0
3F00
3F00
ENDCHAR
STARTCHAR HEBREW
ENCODING 1506
SWIDTH 543 0
DWIDTH 12 0
BBX 10 10 0 0
BITMAP
30C0
30C0
30C0
30C0
30C0
30C0
30C0
30C0
FF00
FF00
ENDCHAR
STARTCHAR HEBREW
ENCODING 1507
SWIDTH 543 0
DWIDTH 12 0
BBX 10 14 0 -4
BITMAP
FF00
FF00
C0C0
C0C0
C0C0
C0C0
3CC0
3CC0
00C0
00C0
00C0
00C0
00C0
00C0
ENDCHAR
STARTCHAR HEBREW
ENCODING 1508
SWIDTH 543 0
DWIDTH 12 0
BBX 10 10 0 0
BITMAP
FF00
FF00
C0C0
C0C0
F0C0
F0C0
00C0
00C0
FF00
FF00
ENDCHAR
STARTCHAR HEBREW
ENCODING 1509
SWIDTH 543 0
DWIDTH 12 0
BBX 6 14 2 -4
BITMAP
CC
CC
CC
CC
CC
CC
F0
F0
C0
C0
C0
C0
C0
C0
ENDCHAR
STARTCHAR HEBREW
ENCODING 1510
SWIDTH 543 0
DWIDTH 12 0
BBX 10 10 0 0
BITMAP
C0C0
C0C0
3300
3300
0C00
0C00
0300
0300
FFC0
FFC0
ENDCHAR
STARTCHAR HEBREW
ENCODING 1511
SWIDTH 543 0
DWIDTH 12 0
BBX 10 14 0 -4
BITMAP
FFC0
FFC0
00C0
00C0
C0C0
C0C0
C300
C300
CC00
CC00
CC00
CC00
C000
C000
ENDCHAR
STARTCHAR HEBREW
ENCODING 1512
SWIDTH 543 0
DWIDTH 12 0
BBX 10 10 0 0
BITMAP
FF00
FF00
00C0
00C0
00C0
00C0
00C0
00C0
00C0
00C0
ENDCHAR
STARTCHAR HEBREW
ENCODING 1513
SWIDTH 543 0
DWIDTH 12 0
BBX 10 10 0 0
BITMAP
CCC0
CCC0
CCC0
CCC0
CCC0
CCC0
F0C0
F0C0
3F00
3F00
ENDCHAR
STARTCHAR HEBREW
ENCODING 1514
SWIDTH 543 0
DWIDTH 12 0
BBX 10 10 0 0
BITMAP
FF00
FF00
30C0
30C0
30C0
30C0
30C0
30C0
C0C0
C0C0
ENDCHAR
STARTCHAR char1515
ENCODING 1515
SWIDTH 543 0
DWIDTH 12 0
BBX 6 10 2 0
BITMAP
CC
CC
CC
CC
CC
CC
CC
CC
CC
CC
ENDCHAR
STARTCHAR char1516
ENCODING 1516
SWIDTH 543 0
DWIDTH 12 0
BBX 6 10 2 0
BITMAP
CC
CC
CC
CC
CC
CC
0C
0C
0C
0C
ENDCHAR
STARTCHAR char1517
ENCODING 1517
SWIDTH 543 0
DWIDTH 12 0
BBX 6 6 2 4
BITMAP
CC
CC
CC
CC
CC
CC
ENDCHAR
STARTCHAR char1518
ENCODING 1518
SWIDTH 543 0
DWIDTH 12 0
BBX 4 4 4 6
BITMAP
30
30
C0
C0
ENDCHAR
STARTCHAR char1519
ENCODING 1519
SWIDTH 543 0
DWIDTH 12 0
BBX 8 4 2 6
BITMAP
33
33
CC
CC
ENDCHAR
STARTCHAR KANNADA
ENCODING 3232
SWIDTH 543 0
DWIDTH 12 0
BBX 12 14 0 0
BITMAP
03C0
03C0
0030
0030
FFC0
FFC0
3030
3030
3330
3330
3030
3030
0FC0
0FC0
ENDCHAR
STARTCHAR THAI
ENCODING 3647
SWIDTH 543 0
DWIDTH 12 0
BBX 10 18 0 -2
BITMAP
0C00
0C00
FF00
FF00
CCC0
CCC0
CCC0
CCC0
FF00
FF00
CCC0
CCC0
CCC0
CCC0
FF00
FF00
0C00
0C00
ENDCHAR
STARTCHAR RUNIC
ENCODING 5792
SWIDTH 543 0
DWIDTH 12 0
BBX 10 14 0 0
BITMAP
CCC0
CCC0
CCC0
CCC0
F300
F300
CC00
CC00
F000
F000
C000
C000
C000
C000
ENDCHAR
STARTCHAR RUNIC
ENCODING 5794
SWIDTH 543 0
DWIDTH 12 0
BBX 10 14 0 0
BITMAP
F000
F000
CC00
CC00
C300
C300
C0C0
C0C0
C0C0
C0C0
C0C0
C0C0
C0C0
C0C0
ENDCHAR
STARTCHAR RUNIC
ENCODING 5795
SWIDTH 543 0
DWIDTH 12 0
BBX 10 14 0 0
BITMAP
F000
F000
CC00
CC00
C300
C300
C0C0
C0C0
CCC0
CCC0
CCC0
CCC0
CCC0
CCC0
ENDCHAR
STARTCHAR RUNIC
ENCODING 5797
SWIDTH 543 0
DWIDTH 12 0
BBX 10 14 0 0
BITMAP
F000
F000
CC00
CC00
C300
C300
F0C0
F0C0
CCC0
CCC0
CCC0
CCC0
CCC0
CCC0
ENDCHAR
STARTCHAR RUNIC
ENCODING 5798
SWIDTH 543 0
DWIDTH 12 0
BBX 6 14 4 0
BITMAP
C0
C0
C0
C0
F0
F0
CC
CC
F0
F0
C0
C0
C0
C0
ENDCHAR
STARTCHAR RUNIC
ENCODING 5800
SWIDTH 543 0
DWIDTH 12 0
BBX 6 14 2 0
BITMAP
F0
F0
CC
CC
F0
F0
CC
CC
C0
C0
C0
C0
C0
C0
ENDCHAR
STARTCHAR RUNIC
ENCODING 5801
SWIDTH 543 0
DWIDTH 12 0
BBX 10 14 0 0
BITMAP
C0C0
C0C0
F300
F300
CCC0
CCC0
F300
F300
CC00
CC00
C000
C000
C000
C000
ENDCHAR
STARTCHAR RUNIC
ENCODING 5802
SWIDTH 543 0
DWIDTH 12 0
BBX 10 14 0 0
BITMAP
C0C0
C0C0
F300
F300
CC00
CC00
F000
F000
CC00
CC00
C000
C000
C000
C000
ENDCHAR
STARTCHAR RUNIC
ENCODING 5803
SWIDTH 543 0
DWIDTH 12 0
BBX 8 14 0 0
BITMAP
F0
F0
CC
CC
F3
F3
CC
CC
C3
C3
C0
C0
C0
C0
ENDCHAR
STARTCHAR RUNIC
ENCODING 5804
SWIDTH 543 0
DWIDTH 12 0
BBX 10 14 0 0
BITMAP
CC00
CC00
3C00
3C00
CC00
CC00
3F00
3F00
0CC0
0CC0
0F00
0F00
0CC0
0CC0
ENDCHAR
STARTCHAR LATIN
ENCODING 7680
SWIDTH 543 0
DWIDTH 12 0
BBX 10 20 0 -6
BITMAP
3F00
3F00
C0C0
C0C0
C0C0
C0C0
FFC0
FFC0
C0C0
C0C0
C0C0
C0C0
C0C0
C0C0
0C00
0C00
3300
3300
0C00
0C00
ENDCHAR
STARTCHAR LATIN
ENCODING 7681
SWIDTH 543 0
DWIDTH 12 0
BBX 10 16 0 -6
BITMAP
3FC0
3FC0
C0C0
C0C0
C0C0
C0C0
C3C0
C3C0
3CC0
3CC0
0C00
0C00
3300
3300
0C00
0C00
ENDCHAR
STARTCHAR LATIN
ENCODING 7682
SWIDTH 543 0
DWIDTH 12 0
BBX 10 18 0 0
BITMAP
0C00
0C00
0000
0000
FF00
FF00
C0C0
C0C0
C0C0
C0C0
FF00
FF00
C0C0
C0C0
C0C0
C0C0
FF00
FF00
ENDCHAR
STARTCHAR LATIN
ENCODING 7683
SWIDTH 543 0
DWIDTH 12 0
BBX 10 16 0 0
BITMAP
0C00
0C00
C000
C000
C000
C000
FF00
FF00
C0C0
C0C0
C0C0
C0C0
C0C0
C0C0
FF00
FF00
ENDCHAR
STARTCHAR LATIN
ENCODING 7684
SWIDTH 543 0
DWIDTH 12 0
BBX 10 18 0 -4
BITMAP
FF00
FF00
C0C0
C0C0
C0C0
C0C0
FF00
FF00
C0C0
C0C0
C0C0
C0C0
FF00
FF00
0000
0000
0C00
0C00
ENDCHAR
STARTCHAR LATIN
ENCODING 7685
SWIDTH 543 0
DWIDTH 12 0
BBX 10 18 0 -4
BITMAP
C000
C000
C000
C000
FF00
FF00
C0C0
C0C0
C0C0
C0C0
C0C0
C0C0
FF00
FF00
0000
0000
0C00
0C00
ENDCHAR
STARTCHAR LATIN
ENCODING 7686
SWIDTH 543 0
DWIDTH 12 0
BBX 10 18 0 -4
BITMAP
FF00
FF00
C0C0
C0C0
C0C0
C0C0
FF00
FF00
C0C0
C0C0
C0C0
C0C0
FF00
FF00
0000
0000
3F00
3F00
ENDCHAR
STARTCHAR LATIN
ENCODING 7687
SWIDTH 543 0
DWIDTH 12 0
BBX 10 18 0 -4
BITMAP
C000
C000
C000
C000
FF00
FF00
C0C0
C0C0
C0C0
C0C0
C0C0
C0C0
FF00
FF00
0000
0000
3F00
3F00
ENDCHAR
STARTCHAR LATIN
ENCODING 7688
SWIDTH 543 0
DWIDTH 12 0
BBX 10 24 0 -6
BITMAP
0300
0300
0C00
0C00
3F00
3F00
C0C0
C0C0
C000
C000
C000
C000
C000
C000
C0C0
C0C0
3F00
3F00
0C00
0C00
0300
0300
0C00
0C00
ENDCHAR
STARTCHAR LATIN
ENCODING 7689
SWIDTH 543 0
DWIDTH 12 0
BBX 10 22 0 -6
BITMAP
0300
0300
0C00
0C00
0000
0000
3F00
3F00
C0C0
C0C0
C000
C000
C000
C000
3FC0
3FC0
0C00
0C00
0300
0300
0C00
0C00
ENDCHAR
STARTCHAR LATIN
ENCODING 7690
SWIDTH 543 0
DWIDTH 12 0
BBX 10 18 0 0
BITMAP
0C00
0C00
0000
0000
FF00
FF00
C0C0
C0C0
C0C0
C0C0
C0C0
C0C0
C0C0
C0C0
C0C0
C0C0
FF00
FF00
ENDCHAR
STARTCHAR LATIN
ENCODING 7691
SWIDTH 543 0
DWIDTH 12 0
BBX 10 16 0 0
BITMAP
0C00
0C00
00C0
00C0
00C0
00C0
3FC0
3FC0
C0C0
C0C0
C0C0
C0C0
C0C0
C0C0
3FC0
3FC0
ENDCHAR
STARTCHAR LATIN
ENCODING 7692
SWIDTH 543 0
DWIDTH 12 0
BBX 10 18 0 -4
BITMAP
FF00
FF00
C0C0
C0C0
C0C0
C0C0
C0C0
C0C0
C0C0
C0C0
C0C0
C0C0
FF00
FF00
0000
0000
0C00
0C00
ENDCHAR
STARTCHAR LATIN
ENCODING 7693
SWIDTH 543 0
DWIDTH 12 0
BBX 10 18 0 -4
BITMAP
00C0
00C0
00C0
00C0
3FC0
3FC0
C0C0
C0C0
C0C0
C0C0
C0C0
C0C0
3FC0
3FC0
0000
0000
0C00
0C00
ENDCHAR
STARTCHAR LATIN
ENCODING 7694
SWIDTH 543 0
DWIDTH 12 0
BBX 10 18 0 -4
BITMAP
FF00
FF00
C0C0
C0C0
C0C0
C0C0
C0C0
C0C0
C0C0
C0C0
C0C0
C0C0
FF00
FF00
0000
0000
3F00
3F00
ENDCHAR
STARTCHAR LATIN
ENCODING 7695
SWIDTH 543 0
DWIDTH 12 0
BBX 10 18 0 -4
BITMAP
00C0
00C0
00C0
00C0
3FC0
3FC0
C0C0
C0C0
C0C0
C0C0
C0C0
C0C0
3FC0
3FC0
0000
0000
3F00
3F00
ENDCHAR
STARTCHAR LATIN
ENCODING 7696
SWIDTH 543 0
DWIDTH 12 0
BBX 10 20 0 -6
BITMAP
FF00
FF00
C0C0
C0C0
C0C0
C0C0
C0C0
C0C0
C0C0
C0C0
C0C0
C0C0
FF00
FF00
0C00
0C00
0C00
0C00
3000
3000
ENDCHAR
STARTCHAR LATIN
ENCODING 7697
SWIDTH 543 0
DWIDTH 12 0
BBX 10 20 0 -6
BITMAP
00C0
00C0
00C0
00C0
3FC0
3FC0
C0C0
C0C0
C0C0
C0C0
C0C0
C0C0
3FC0
3FC0
0C00
0C00
0C00
0C00
3000
3000
ENDCHAR
STARTCHAR LATIN
ENCODING 7698
SWIDTH 543 0
DWIDTH 12 0
BBX 10 20 0 -6
BITMAP
FF00
FF00
C0C0
C0C0
C0C0
C0C0
C0C0
C0C0
C0C0
C0C0
C0C0
C0C0
FF00
FF00
0000
0000
0C00
0C00
3300
3300
ENDCHAR
STARTCHAR LATIN
ENCODING 7699
SWIDTH 543 0
DWIDTH 12 0
BBX 10 20 0 -6
BITMAP
00C0
00C0
00C0
00C0
3FC0
3FC0
C0C0
C0C0
C0C0
C0C0
C0C0
C0C0
3FC0
3FC0
0000
0000
0C00
0C00
3300
3300
ENDCHAR
STARTCHAR LATIN
ENCODING 7700
SWIDTH 543 0
DWIDTH 12 0
BBX 10 18 0 0
BITMAP
3000
3000
3F00
3F00
FFC0
FFC0
C000
C000
C000
C000
FF00
FF00
C000
C000
C000
C000
FFC0
FFC0
ENDCHAR
STARTCHAR LATIN
ENCODING 7701
SWIDTH 543 0
DWIDTH 12 0
BBX 10 18 0 0
BITMAP
3000
3000
0C00
0C00
3F00
3F00
0000
0000
3F00
3F00
C0C0
C0C0
FFC0
FFC0
C000
C000
3FC0
3FC0
ENDCHAR
STARTCHAR LATIN
ENCODING 7702
SWIDTH 543 0
DWIDTH 12 0
BBX 10 18 0 0
BITMAP
0300
0300
3F00
3F00
FFC0
FFC0
C000
C000
C000
C000
FF00
FF00
C000
C000
C000
C000
FFC0
FFC0
ENDCHAR
STARTCHAR LATIN
ENCODING 7703
SWIDTH 543 0
DWIDTH 12 0
BBX 10 18 0 0
BITMAP
0300
0300
0C00
0C00
3F00
3F00
0000
0000
3F00
3F00
C0C0
C0C0
FFC0
FFC0
C000
C000
3FC0
3FC0
ENDCHAR
STARTCHAR LATIN
ENCODING 7704
SWIDTH 543 0
DWIDTH 12 0
BBX 10 20 0 -6
BITMAP
FFC0
FFC0
C000
C000
C000
C000
FF00
FF00
C000
C000
C000
C000
FFC0
FFC0
0000
0000
0C00
0C00
3300
3300
ENDCHAR
STARTCHAR LATIN
ENCODING 7705
SWIDTH 543 0
DWIDTH 12 0
BBX 10 16 0 -6
BITMAP
3F00
3F00
C0C0
C0C0
FFC0
FFC0
C000
C000
3FC0
3FC0
0000
0000
0C00
0C00
3300
3300
ENDCHAR
STARTCHAR LATIN
ENCODING 7706
SWIDTH 543 0
DWIDTH 12 0
BBX 10 20 0 -6
BITMAP
FFC0
FFC0
C000
C000
C000
C000
FF00
FF00
C000
C000
C000
C000
FFC0
FFC0
0000
0000
3CC0
3CC0
CF00
CF00
ENDCHAR
STARTCHAR LATIN
ENCODING 7707
SWIDTH 543 0
DWIDTH 12 0
BBX 10 16 0 -6
BITMAP
3F00
3F00
C0C0
C0C0
FFC0
FFC0
C000
C000
3FC0
3FC0
0000
0000
3CC0
3CC0
CF00
CF00
ENDCHAR
STARTCHAR LATIN
ENCODING 7708
SWIDTH 543 0
DWIDTH 12 0
BBX 10 24 0 -6
BITMAP
C0C0
C0C0
3F00
3F00
FFC0
FFC0
C000
C000
C000
C000
FF00
FF00
C000
C000
C000
C000
FFC0
FFC0
0C00
0C00
0300
0300
0C00
0C00
ENDCHAR
STARTCHAR LATIN
ENCODING 7709
SWIDTH 543 0
DWIDTH 12 0
BBX 10 22 0 -6
BITMAP
C0C0
C0C0
3F00
3F00
0000
0000
3F00
3F00
C0C0
C0C0
FFC0
FFC0
C000
C000
3FC0
3FC0
0C00
0C00
0300
0300
0C00
0C00
ENDCHAR
STARTCHAR LATIN
ENCODING 7710
SWIDTH 543 0
DWIDTH 12 0
BBX 10 18 0 0
BITMAP
0C00
0C00
0000
0000
FFC0
FFC0
C000
C000
C000
C000
FF00
FF00
C000
C000
C000
C000
C000
C000
ENDCHAR
STARTCHAR LATIN
ENCODING 7711
SWIDTH 543 0
DWIDTH 12 0
BBX 8 18 0 0
BITMAP
0C
0C
00
00
0F
0F
30
30
30
30
FC
FC
30
30
30
30
30
30
ENDCHAR
STARTCHAR LATIN
ENCODING 7712
SWIDTH 543 0
DWIDTH 12 0
BBX 10 18 0 0
BITMAP
3F00
3F00
0000
0000
3F00
3F00
C0C0
C0C0
C000
C000
C3C0
C3C0
C0C0
C0C0
C0C0
C0C0
3F00
3F00
ENDCHAR
STARTCHAR LATIN
ENCODING 7713
SWIDTH 543 0
DWIDTH 12 0
BBX 10 18 0 -4
BITMAP
3F00
3F00
0000
0000
3FC0
3FC0
C0C0
C0C0
C0C0
C0C0
C0C0
C0C0
3FC0
3FC0
00C0
00C0
3F00
3F00
ENDCHAR
STARTCHAR LATIN
ENCODING 7714
SWIDTH 543 0
DWIDTH 12 0
BBX 10 18 0 0
BITMAP
0C00
0C00
0000
0000
C0C0
C0C0
C0C0
C0C0
C0C0
C0C0
FFC0
FFC0
C0C0
C0C0
C0C0
C0C0
C0C0
C0C0
ENDCHAR
STARTCHAR LATIN
ENCODING 7715
SWIDTH 543 0
DWIDTH 12 0
BBX 10 16 0 0
BITMAP
0C00
0C00
C000
C000
C000
C000
FF00
FF00
C0C0
C0C0
C0C0
C0C0
C0C0
C0C0
C0C0
C0C0
ENDCHAR
STARTCHAR LATIN
ENCODING 7716
SWIDTH 543 0
DWIDTH 12 0
BBX 10 18 0 -4
BITMAP
C0C0
C0C0
C0C0
C0C0
C0C0
C0C0
FFC0
FFC0
C0C0
C0C0
C0C0
C0C0
C0C0
C0C0
0000
0000
0C00
0C00
ENDCHAR
STARTCHAR LATIN
ENCODING 7717
SWIDTH 543 0
DWIDTH 12 0
BBX 10 18 0 -4
BITMAP
C000
C000
C000
C000
FF00
FF00
C0C0
C0C0
C0C0
C0C0
C0C0
C0C0
C0C0
C0C0
0000
0000
0C00
0C00
ENDCHAR
STARTCHAR LATIN
ENCODING 7718
SWIDTH 543 0
DWIDTH 12 0
BBX 10 18 0 0
BITMAP
3300
3300
0000
0000
C0C0
C0C0
C0C0
C0C0
C0C0
C0C0
FFC0
FFC0
C0C0
C0C0
C0C0
C0C0
C0C0
C0C0
ENDCHAR
STARTCHAR LATIN
ENCODING 7719
SWIDTH 543 0
DWIDTH 12 0
BBX 10 18 0 0
BITMAP
3300
3300
0000
0000
C000
C000
C000
C000
FF00
FF00
C0C0
C0C0
C0C0
C0C0
C0C0
C0C0
C0C0
C0C0
ENDCHAR
STARTCHAR LATIN
ENCODING 7720
SWIDTH 543 0
DWIDTH 12 0
BBX 10 18 0 -4
BITMAP
C0C0
C0C0
C0C0
C0C0
C0C0
C0C0
FFC0
FFC0
C0C0
C0C0
C0C0
C0C0
C0C0
C0C0
3000
3000
C000
C000
ENDCHAR
STARTCHAR LATIN
ENCODING 7721
SWIDTH 543 0
DWIDTH 12 0
BBX 10 18 0 -4
BITMAP
C000
C000
C000
C000
FF00
FF00
C0C0
C0C0
C0C0
C0C0
C0C0
C0C0
C0C0
C0C0
3000
3000
C000
C000
ENDCHAR
STARTCHAR LATIN
ENCODING 7722
SWIDTH 543 0
DWIDTH 12 0
BBX 10 20 0 -6
BITMAP
C0C0
C0C0
C0C0
C0C0
C0C0
C0C0
FFC0
FFC0
C0C0
C0C0
C0C0
C0C0
C0C0
C0C0
0000
0000
C0C0
C0C0
3F00
3F00
ENDCHAR
STARTCHAR LATIN
ENCODING 7723
SWIDTH 543 0
DWIDTH 12 0
BBX 10 20 0 -6
BITMAP
C000
C000
C000
C000
FF00
FF00
C0C0
C0C0
C0C0
C0C0
C0C0
C0C0
C0C0
C0C0
0000
0000
C0C0
C0C0
3F00
3F00
ENDCHAR
STARTCHAR LATIN
ENCODING 7724
SWIDTH 543 0
DWIDTH 12 0
BBX 10 20 0 -6
BITMAP
3F00
3F00
0C00
0C00
0C00
0C00
0C00
0C00
0C00
0C00
0C00
0C00
3F00
3F00
0000
0000
3CC0
3CC0
CF00
CF00
ENDCHAR
STARTCHAR LATIN
ENCODING 7725
SWIDTH 543 0
DWIDTH 12 0
BBX 10 20 0 -6
BITMAP
0C00
0C00
0000
0000
3C00
3C00
0C00
0C00
0C00
0C00
0C00
0C00
0F00
0F00
0000
0000
3CC0
3CC0
CF00
CF00
ENDCHAR
STARTCHAR LATIN
ENCODING 7726
SWIDTH 543 0
DWIDTH 12 0
BBX 6 18 2 0
BITMAP
0C
0C
FC
FC
00
00
FC
FC
30
30
30
30
30
30
30
30
FC
FC
ENDCHAR
STARTCHAR LATIN
ENCODING 7727
SWIDTH 543 0
DWIDTH 12 0
BBX 6 18 2 0
BITMAP
0C
0C
30
30
CC
CC
00
00
F0
F0
30
30
30
30
30
30
3C
3C
ENDCHAR
STARTCHAR LATIN
ENCODING 7728
SWIDTH 543 0
DWIDTH 12 0
BBX 10 18 0 0
BITMAP
0300
0300
0C00
0C00
C0C0
C0C0
C300
C300
CC00
CC00
F000
F000
CC00
CC00
C300
C300
C0C0
C0C0
ENDCHAR
STARTCHAR LATIN
ENCODING 7729
SWIDTH 543 0
DWIDTH 12 0
BBX 10 18 0 0
BITMAP
0300
0300
0C00
0C00
C000
C000
C000
C000
C300
C300
CC00
CC00
FC00
FC00
C300
C300
C0C0
C0C0
ENDCHAR
STARTCHAR LATIN
ENCODING 7730
SWIDTH 543 0
DWIDTH 12 0
BBX 10 18 0 -4
BITMAP
C0C0
C0C0
C300
C300
CC00
CC00
F000
F000
CC00
CC00
C300
C300
C0C0
C0C0
0000
0000
0C00
0C00
ENDCHAR
STARTCHAR LATIN
ENCODING 7731
SWIDTH 543 0
DWIDTH 12 0
BBX 10 18 0 -4
BITMAP
C000
C000
C000
C000
C300
C300
CC00
CC00
FC00
FC00
C300
C300
C0C0
C0C0
0000
0000
0C00
0C00
ENDCHAR
STARTCHAR LATIN
ENCODING 7732
SWIDTH 543 0
DWIDTH 12 0
BBX 10 18 0 -4
BITMAP
C0C0
C0C0
C300
C300
CC00
CC00
F000
F000
CC00
CC00
C300
C300
C0C0
C0C0
0000
0000
3F00
3F00
ENDCHAR
STARTCHAR LATIN
ENCODING 7733
SWIDTH 543 0
DWIDTH 12 0
BBX 10 18 0 -4
BITMAP
C000
C000
C000
C000
C300
C300
CC00
CC00
FC00
FC00
C300
C300
C0C0
C0C0
0000
0000
3F00
3F00
ENDCHAR
STARTCHAR LATIN
ENCODING 7734
SWIDTH 543 0
DWIDTH 12 0
BBX 10 18 0 -4
BITMAP
C000
C000
C000
C000
C000
C000
C000
C000
C000
C000
C000
C000
FFC0
FFC0
0000
0000
0C00
0C00
ENDCHAR
STARTCHAR LATIN
ENCODING 7735
SWIDTH 543 0
DWIDTH 12 0
BBX 6 18 2 -4
BITMAP
F0
F0
30
30
30
30
30
30
30
30
30
30
3C
3C
00
00
30
30
ENDCHAR
STARTCHAR LATIN
ENCODING 7736
SWIDTH 543 0
DWIDTH 12 0
BBX 10 22 0 -4
BITMAP
3F00
3F00
0000
0000
C000
C000
C000
C000
C000
C000
C000
C000
C000
C000
C000
C000
FFC0
FFC0
0000
0000
0C00
0C00
ENDCHAR
STARTCHAR LATIN
ENCODING 7737
SWIDTH 543 0
DWIDTH 12 0
BBX 6 22 2 -4
BITMAP
FC
FC
00
00
F0
F0
30
30
30
30
30
30
30
30
30
30
3C
3C
00
00
30
30
ENDCHAR
STARTCHAR LATIN
ENCODING 7738
SWIDTH 543 0
DWIDTH 12 0
BBX 10 18 0 -4
BITMAP
C000
C000
C000
C000
C000
C000
C000
C000
C000
C000
C000
C000
FFC0
FFC0
0000
0000
3F00
3F00
ENDCHAR
STARTCHAR LATIN
ENCODING 7739
SWIDTH 543 0
DWIDTH 12 0
BBX 6 18 2 -4
BITMAP
F0
F0
30
30
30
30
30
30
30
30
30
30
3C
3C
00
00
FC
FC
ENDCHAR
STARTCHAR LATIN
ENCODING 7740
SWIDTH 543 0
DWIDTH 12 0
BBX 10 20 0 -6
BITMAP
C000
C000
C000
C000
C000
C000
C000
C000
C000
C000
C000
C000
FFC0
FFC0
0000
0000
0C00
0C00
3300
3300
ENDCHAR
STARTCHAR LATIN
ENCODING 7741
SWIDTH 543 0
DWIDTH 12 0
BBX 6 20 2 -6
BITMAP
F0
F0
30
30
30
30
30
30
30
30
30
30
3C
3C
00
00
30
30
CC
CC
ENDCHAR
STARTCHAR LATIN
ENCODING 7742
SWIDTH 543 0
DWIDTH 12 0
BBX 10 18 0 0
BITMAP
0300
0300
0C00
0C00
C0C0
C0C0
F3C0
F3C0
CCC0
CCC0
C0C0
C0C0
C0C0
C0C0
C0C0
C0C0
C0C0
C0C0
ENDCHAR
STARTCHAR LATIN
ENCODING 7743
SWIDTH 543 0
DWIDTH 12 0
BBX 10 16 0 0
BITMAP
0300
0300
0C00
0C00
0000
0000
FF00
FF00
CCC0
CCC0
CCC0
CCC0
CCC0
CCC0
CCC0
CCC0
ENDCHAR
STARTCHAR LATIN
ENCODING 7744
SWIDTH 543 0
DWIDTH 12 0
BBX 10 18 0 0
BITMAP
0C00
0C00
0000
0000
C0C0
C0C0
F3C0
F3C0
CCC0
CCC0
C0C0
C0C0
C0C0
C0C0
C0C0
C0C0
C0C0
C0C0
ENDCHAR
STARTCHAR LATIN
ENCODING 7745
SWIDTH 543 0
DWIDTH 12 0
BBX 10 14 0 0
BITMAP
0C00
0C00
0000
0000
FF00
FF00
CCC0
CCC0
CCC0
CCC0
CCC0
CCC0
CCC0
CCC0
ENDCHAR
STARTCHAR LATIN
ENCODING 7746
SWIDTH 543 0
DWIDTH 12 0
BBX 10 18 0 -4
BITMAP
C0C0
C0C0
F3C0
F3C0
CCC0
CCC0
C0C0
C0C0
C0C0
C0C0
C0C0
C0C0
C0C0
C0C0
0000
0000
0C00
0C00
ENDCHAR
STARTCHAR LATIN
ENCODING 7747
SWIDTH 543 0
DWIDTH 12 0
BBX 10 14 0 -4
BITMAP
FF00
FF00
CCC0
CCC0
CCC0
CCC0
CCC0
CCC0
CCC0
CCC0
0000
0000
0C00
0C00
ENDCHAR
STARTCHAR LATIN
ENCODING 7748
SWIDTH 543 0
DWIDTH 12 0
BBX 10 18 0 0
BITMAP
0C00
0C00
0000
0000
F0C0
F0C0
F0C0
F0C0
CCC0
CCC0
CCC0
CCC0
CCC0
CCC0
C3C0
C3C0
C3C0
C3C0
ENDCHAR
STARTCHAR LATIN
ENCODING 7749
SWIDTH 543 0
DWIDTH 12 0
BBX 10 14 0 0
BITMAP
0C00
0C00
0000
0000
CF00
CF00
F0C0
F0C0
C0C0
C0C0
C0C0
C0C0
C0C0
C0C0
ENDCHAR
STARTCHAR LATIN
ENCODING 7750
SWIDTH 543 0
DWIDTH 12 0
BBX 10 18 0 -4
BITMAP
F0C0
F0C0
F0C0
F0C0
CCC0
CCC0
CCC0
CCC0
CCC0
CCC0
C3C0
C3C0
C3C0
C3C0
0000
0000
0C00
0C00
ENDCHAR
STARTCHAR LATIN
ENCODING 7751
SWIDTH 543 0
DWIDTH 12 0
BBX 10 14 0 -4
BITMAP
CF00
CF00
F0C0
F0C0
C0C0
C0C0
C0C0
C0C0
C0C0
C0C0
0000
0000
0C00
0C00
ENDCHAR
STARTCHAR LATIN
ENCODING 7752
SWIDTH 543 0
DWIDTH 12 0
BBX 10 18 0 -4
BITMAP
F0C0
F0C0
F0C0
F0C0
CCC0
CCC0
CCC0
CCC0
CCC0
CCC0
C3C0
C3C0
C3C0
C3C0
0000
0000
3F00
3F00
ENDCHAR
STARTCHAR LATIN
ENCODING 7753
SWIDTH 543 0
DWIDTH 12 0
BBX 10 14 0 -4
BITMAP
CF00
CF00
F0C0
F0C0
C0C0
C0C0
C0C0
C0C0
C0C0
C0C0
0000
0000
3F00
3F00
ENDCHAR
STARTCHAR LATIN
ENCODING 7754
SWIDTH 543 0
DWIDTH 12 0
BBX 10 20 0 -6
BITMAP
F0C0
F0C0
F0C0
F0C0
CCC0
CCC0
CCC0
CCC0
CCC0
CCC0
C3C0
C3C0
C3C0
C3C0
0000
0000
0C00
0C00
3300
3300
ENDCHAR
STARTCHAR LATIN
ENCODING 7755
SWIDTH 543 0
DWIDTH 12 0
BBX 10 16 0 -6
BITMAP
CF00
CF00
F0C0
F0C0
C0C0
C0C0
C0C0
C0C0
C0C0
C0C0
0000
0000
0C00
0C00
3300
3300
ENDCHAR
STARTCHAR LATIN
ENCODING 7756
SWIDTH 543 0
DWIDTH 12 0
BBX 10 18 0 0
BITMAP
0300
0300
3CC0
3CC0
CF00
CF00
3F00
3F00
C0C0
C0C0
C0C0
C0C0
C0C0
C0C0
C0C0
C0C0
3F00
3F00
ENDCHAR
STARTCHAR LATIN
ENCODING 7757
SWIDTH 543 0
DWIDTH 12 0
BBX 10 18 0 0
BITMAP
0300
0300
0C00
0C00
3CC0
3CC0
C300
C300
3F00
3F00
C0C0
C0C0
C0C0
C0C0
C0C0
C0C0
3F00
3F00
ENDCHAR
STARTCHAR LATIN
ENCODING 7758
SWIDTH 543 0
DWIDTH 12 0
BBX 10 18 0 0
BITMAP
3300
3300
3CC0
3CC0
C300
C300
3F00
3F00
C0C0
C0C0
C0C0
C0C0
C0C0
C0C0
C0C0
C0C0
3F00
3F00
ENDCHAR
STARTCHAR LATIN
ENCODING 7759
SWIDTH 543 0
DWIDTH 12 0
BBX 10 18 0 0
BITMAP
3300
3300
0000
0000
3CC0
3CC0
C300
C300
3F00
3F00
C0C0
C0C0
C0C0
C0C0
C0C0
C0C0
3F00
3F00
ENDCHAR
STARTCHAR LATIN
ENCODING 7760
SWIDTH 543 0
DWIDTH 12 0
BBX 10 18 0 0
BITMAP
3000
3000
3F00
3F00
0000
0000
3F00
3F00
C0C0
C0C0
C0C0
C0C0
C0C0
C0C0
C0C0
C0C0
3F00
3F00
ENDCHAR
STARTCHAR LATIN
ENCODING 7761
SWIDTH 543 0
DWIDTH 12 0
BBX 10 18 0 0
BITMAP
3000
3000
0C00
0C00
3F00
3F00
0000
0000
3F00
3F00
C0C0
C0C0
C0C0
C0C0
C0C0
C0C0
3F00
3F00
ENDCHAR
STARTCHAR LATIN
ENCODING 7762
SWIDTH 543 0
DWIDTH 12 0
BBX 10 18 0 0
BITMAP
0300
0300
3F00
3F00
0000
0000
3F00
3F00
C0C0
C0C0
C0C0
C0C0
C0C0
C0C0
C0C0
C0C0
3F00
3F00
ENDCHAR
STARTCHAR LATIN
ENCODING 7763
SWIDTH 543 0
DWIDTH 12 0
BBX 10 18 0 0
BITMAP
0300
0300
0C00
0C00
3F00
3F00
0000
0000
3F00
3F00
C0C0
C0C0
C0C0
C0C0
C0C0
C0C0
3F00
3F00
ENDCHAR
STARTCHAR LATIN
ENCODING 7764
SWIDTH 543 0
DWIDTH 12 0
BBX 10 18 0 0
BITMAP
0300
0300
0C00
0C00
FF00
FF00
C0C0
C0C0
C0C0
C0C0
FF00
FF00
C000
C000
C000
C000
C000
C000
ENDCHAR
STARTCHAR LATIN
ENCODING 7765
SWIDTH 543 0
DWIDTH 12 0
BBX 10 20 0 -4
BITMAP
0300
0300
0C00
0C00
0000
0000
FF00
FF00
C0C0
C0C0
C0C0
C0C0
C0C0
C0C0
FF00
FF00
C000
C000
C000
C000
ENDCHAR
STARTCHAR LATIN
ENCODING 7766
SWIDTH 543 0
DWIDTH 12 0
BBX 10 18 0 0
BITMAP
0C00
0C00
0000
0000
FF00
FF00
C0C0
C0C0
C0C0
C0C0
FF00
FF00
C000
C000
C000
C000
C000
C000
ENDCHAR
STARTCHAR LATIN
ENCODING 7767
SWIDTH 543 0
DWIDTH 12 0
BBX 10 18 0 -4
BITMAP
0C00
0C00
0000
0000
FF00
FF00
C0C0
C0C0
C0C0
C0C0
C0C0
C0C0
FF00
FF00
C000
C000
C000
C000
ENDCHAR
STARTCHAR LATIN
ENCODING 7768
SWIDTH 543 0
DWIDTH 12 0
BBX 10 18 0 0
BITMAP
0C00
0C00
0000
0000
FF00
FF00
C0C0
C0C0
C0C0
C0C0
FF00
FF00
C0C0
C0C0
C0C0
C0C0
C0C0
C0C0
ENDCHAR
STARTCHAR LATIN
ENCODING 7769
SWIDTH 543 0
DWIDTH 12 0
BBX 10 14 0 0
BITMAP
0C00
0C00
0000
0000
CF00
CF00
F0C0
F0C0
C000
C000
C000
C000
C000
C000
ENDCHAR
STARTCHAR LATIN
ENCODING 7770
SWIDTH 543 0
DWIDTH 12 0
BBX 10 18 0 -4
BITMAP
FF00
FF00
C0C0
C0C0
C0C0
C0C0
FF00
FF00
C0C0
C0C0
C0C0
C0C0
C0C0
C0C0
0000
0000
0C00
0C00
ENDCHAR
STARTCHAR LATIN
ENCODING 7771
SWIDTH 543 0
DWIDTH 12 0
BBX 10 14 0 -4
BITMAP
CF00
CF00
F0C0
F0C0
C000
C000
C000
C000
C000
C000
0000
0000
0C00
0C00
ENDCHAR
STARTCHAR LATIN
ENCODING 7772
SWIDTH 543 0
DWIDTH 12 0
BBX 10 22 0 -4
BITMAP
3F00
3F00
0000
0000
FF00
FF00
C0C0
C0C0
C0C0
C0C0
FF00
FF00
C0C0
C0C0
C0C0
C0C0
C0C0
C0C0
0000
0000
0C00
0C00
ENDCHAR
STARTCHAR LATIN
ENCODING 7773
SWIDTH 543 0
DWIDTH 12 0
BBX 10 18 0 -4
BITMAP
3F00
3F00
0000
0000
CF00
CF00
F0C0
F0C0
C000
C000
C000
C000
C000
C000
0000
0000
0C00
0C00
ENDCHAR
STARTCHAR LATIN
ENCODING 7774
SWIDTH 543 0
DWIDTH 12 0
BBX 10 18 0 -4
BITMAP
FF00
FF00
C0C0
C0C0
C0C0
C0C0
FF00
FF00
C0C0
C0C0
C0C0
C0C0
C0C0
C0C0
0000
0000
3F00
3F00
ENDCHAR
STARTCHAR LATIN
ENCODING 7775
SWIDTH 543 0
DWIDTH 12 0
BBX 10 14 0 -4
BITMAP
CF00
CF00
F0C0
F0C0
C000
C000
C000
C000
C000
C000
0000
0000
3F00
3F00
ENDCHAR
STARTCHAR LATIN
ENCODING 7776
SWIDTH 543 0
DWIDTH 12 0
BBX 10 18 0 0
BITMAP
0C00
0C00
0000
0000
3F00
3F00
C0C0
C0C0
C000
C000
3F00
3F00
00C0
00C0
C0C0
C0C0
3F00
3F00
ENDCHAR
STARTCHAR LATIN
ENCODING 7777
SWIDTH 543 0
DWIDTH 12 0
BBX 10 14 0 0
BITMAP
0C00
0C00
0000
0000
3FC0
3FC0
C000
C000
3F00
3F00
00C0
00C0
FF00
FF00
ENDCHAR
STARTCHAR LATIN
ENCODING 7778
SWIDTH 543 0
DWIDTH 12 0
BBX 10 18 0 -4
BITMAP
3F00
3F00
C0C0
C0C0
C000
C000
3F00
3F00
00C0
00C0
C0C0
C0C0
3F00
3F00
0000
0000
0C00
0C00
ENDCHAR
STARTCHAR LATIN
ENCODING 7779
SWIDTH 543 0
DWIDTH 12 0
BBX 10 14 0 -4
BITMAP
3FC0
3FC0
C000
C000
3F00
3F00
00C0
00C0
FF00
FF00
0000
0000
0C00
0C00
ENDCHAR
STARTCHAR LATIN
ENCODING 7780
SWIDTH 543 0
DWIDTH 12 0
BBX 10 18 0 0
BITMAP
0F00
0F00
0C00
0C00
3F00
3F00
C0C0
C0C0
C000
C000
3F00
3F00
00C0
00C0
C0C0
C0C0
3F00
3F00
ENDCHAR
STARTCHAR LATIN
ENCODING 7781
SWIDTH 543 0
DWIDTH 12 0
BBX 10 18 0 0
BITMAP
3000
3000
0300
0300
0C00
0C00
0000
0000
3FC0
3FC0
C000
C000
3F00
3F00
00C0
00C0
FF00
FF00
ENDCHAR
STARTCHAR LATIN
ENCODING 7782
SWIDTH 543 0
DWIDTH 12 0
BBX 10 18 0 0
BITMAP
3F00
3F00
0C00
0C00
3F00
3F00
C0C0
C0C0
C000
C000
3F00
3F00
00C0
00C0
C0C0
C0C0
3F00
3F00
ENDCHAR
STARTCHAR LATIN
ENCODING 7783
SWIDTH 543 0
DWIDTH 12 0
BBX 10 18 0 0
BITMAP
0C00
0C00
0000
0000
3300
3300
0C00
0C00
3FC0
3FC0
C000
C000
3F00
3F00
00C0
00C0
FF00
FF00
ENDCHAR
STARTCHAR LATIN
ENCODING 7784
SWIDTH 543 0
DWIDTH 12 0
BBX 10 22 0 -4
BITMAP
0C00
0C00
0000
0000
3F00
3F00
C0C0
C0C0
C000
C000
3F00
3F00
00C0
00C0
C0C0
C0C0
3F00
3F00
0000
0000
0C00
0C00
ENDCHAR
STARTCHAR LATIN
ENCODING 7785
SWIDTH 543 0
DWIDTH 12 0
BBX 10 18 0 -4
BITMAP
0C00
0C00
0000
0000
3FC0
3FC0
C000
C000
3F00
3F00
00C0
00C0
FF00
FF00
0000
0000
0C00
0C00
ENDCHAR
STARTCHAR LATIN
ENCODING 7786
SWIDTH 543 0
DWIDTH 12 0
BBX 10 18 0 0
BITMAP
0C00
0C00
0000
0000
FFC0
FFC0
0C00
0C00
0C00
0C00
0C00
0C00
0C00
0C00
0C00
0C00
0C00
0C00
ENDCHAR
STARTCHAR LATIN
ENCODING 7787
SWIDTH 543 0
DWIDTH 12 0
BBX 8 18 2 0
BITMAP
30
30
00
00
30
30
30
30
FF
FF
30
30
30
30
30
30
0F
0F
ENDCHAR
STARTCHAR LATIN
ENCODING 7788
SWIDTH 543 0
DWIDTH 12 0
BBX 10 18 0 -4
BITMAP
FFC0
FFC0
0C00
0C00
0C00
0C00
0C00
0C00
0C00
0C00
0C00
0C00
0C00
0C00
0000
0000
0C00
0C00
ENDCHAR
STARTCHAR LATIN
ENCODING 7789
SWIDTH 543 0
DWIDTH 12 0
BBX 8 18 2 -4
BITMAP
30
30
30
30
FF
FF
30
30
30
30
30
30
0F
0F
00
00
30
30
ENDCHAR
STARTCHAR LATIN
ENCODING 7790
SWIDTH 543 0
DWIDTH 12 0
BBX 10 18 0 -4
BITMAP
FFC0
FFC0
0C00
0C00
0C00
0C00
0C00
0C00
0C00
0C00
0C00
0C00
0C00
0C00
0000
0000
3F00
3F00
ENDCHAR
STARTCHAR LATIN
ENCODING 7791
SWIDTH 543 0
DWIDTH 12 0
BBX 8 18 2 -4
BITMAP
30
30
30
30
FF
FF
30
30
30
30
30
30
0F
0F
00
00
FC
FC
ENDCHAR
STARTCHAR LATIN
ENCODING 7792
SWIDTH 543 0
DWIDTH 12 0
BBX 10 20 0 -6
BITMAP
FFC0
FFC0
0C00
0C00
0C00
0C00
0C00
0C00
0C00
0C00
0C00
0C00
0C00
0C00
0000
0000
0C00
0C00
3300
3300
ENDCHAR
STARTCHAR LATIN
ENCODING 7793
SWIDTH 543 0
DWIDTH 12 0
BBX 8 20 2 -6
BITMAP
30
30
30
30
FF
FF
30
30
30
30
30
30
0F
0F
00
00
30
30
CC
CC
ENDCHAR
STARTCHAR LATIN
ENCODING 7794
SWIDTH 543 0
DWIDTH 12 0
BBX 10 18 0 -4
BITMAP
C0C0
C0C0
C0C0
C0C0
C0C0
C0C0
C0C0
C0C0
C0C0
C0C0
C0C0
C0C0
3F00
3F00
0000
0000
3300
3300
ENDCHAR
STARTCHAR LATIN
ENCODING 7795
SWIDTH 543 0
DWIDTH 12 0
BBX 10 14 0 -4
BITMAP
C0C0
C0C0
C0C0
C0C0
C0C0
C0C0
C3C0
C3C0
3CC0
3CC0
0000
0000
3300
3300
ENDCHAR
STARTCHAR LATIN
ENCODING 7796
SWIDTH 543 0
DWIDTH 12 0
BBX 10 20 0 -6
BITMAP
C0C0
C0C0
C0C0
C0C0
C0C0
C0C0
C0C0
C0C0
C0C0
C0C0
C0C0
C0C0
3F00
3F00
0000
0000
3CC0
3CC0
C300
C300
ENDCHAR
STARTCHAR LATIN
ENCODING 7797
SWIDTH 543 0
DWIDTH 12 0
BBX 10 16 0 -6
BITMAP
C0C0
C0C0
C0C0
C0C0
C0C0
C0C0
C3C0
C3C0
3CC0
3CC0
0000
0000
3CC0
3CC0
C300
C300
ENDCHAR
STARTCHAR LATIN
ENCODING 7798
SWIDTH 543 0
DWIDTH 12 0
BBX 10 20 0 -6
BITMAP
C0C0
C0C0
C0C0
C0C0
C0C0
C0C0
C0C0
C0C0
C0C0
C0C0
C0C0
C0C0
3F00
3F00
0000
0000
0C00
0C00
3300
3300
ENDCHAR
STARTCHAR LATIN
ENCODING 7799
SWIDTH 543 0
DWIDTH 12 0
BBX 10 16 0 -6
BITMAP
C0C0
C0C0
C0C0
C0C0
C0C0
C0C0
C3C0
C3C0
3CC0
3CC0
0000
0000
0C00
0C00
3300
3300
ENDCHAR
STARTCHAR LATIN
ENCODING 7800
SWIDTH 543 0
DWIDTH 12 0
BBX 10 18 0 0
BITMAP
0300
0300
3CC0
3CC0
CF00
CF00
C0C0
C0C0
C0C0
C0C0
C0C0
C0C0
C0C0
C0C0
C0C0
C0C0
3F00
3F00
ENDCHAR
STARTCHAR LATIN
ENCODING 7801
SWIDTH 543 0
DWIDTH 12 0
BBX 10 18 0 0
BITMAP
0300
0300
3CC0
3CC0
CF00
CF00
0000
0000
C0C0
C0C0
C0C0
C0C0
C0C0
C0C0
C3C0
C3C0
3CC0
3CC0
ENDCHAR
STARTCHAR LATIN
ENCODING 7802
SWIDTH 543 0
DWIDTH 12 0
BBX 10 18 0 0
BITMAP
3300
3300
3F00
3F00
C0C0
C0C0
C0C0
C0C0
C0C0
C0C0
C0C0
C0C0
C0C0
C0C0
C0C0
C0C0
3F00
3F00
ENDCHAR
STARTCHAR LATIN
ENCODING 7803
SWIDTH 543 0
DWIDTH 12 0
BBX 10 18 0 0
BITMAP
3300
3300
0000
0000
3F00
3F00
0000
0000
C0C0
C0C0
C0C0
C0C0
C0C0
C0C0
C3C0
C3C0
3CC0
3CC0
ENDCHAR
STARTCHAR LATIN
ENCODING 7804
SWIDTH 543 0
DWIDTH 12 0
BBX 10 18 0 0
BITMAP
3CC0
3CC0
CF00
CF00
C0C0
C0C0
C0C0
C0C0
C0C0
C0C0
3300
3300
3300
3300
0C00
0C00
0C00
0C00
ENDCHAR
STARTCHAR LATIN
ENCODING 7805
SWIDTH 543 0
DWIDTH 12 0
BBX 10 16 0 0
BITMAP
3CC0
3CC0
CF00
CF00
0000
0000
C0C0
C0C0
C0C0
C0C0
3300
3300
3300
3300
0C00
0C00
ENDCHAR
STARTCHAR LATIN
ENCODING 7806
SWIDTH 543 0
DWIDTH 12 0
BBX 10 18 0 -4
BITMAP
C0C0
C0C0
C0C0
C0C0
C0C0
C0C0
3300
3300
3300
3300
0C00
0C00
0C00
0C00
0000
0000
0C00
0C00
ENDCHAR
STARTCHAR LATIN
ENCODING 7807
SWIDTH 543 0
DWIDTH 12 0
BBX 10 14 0 -4
BITMAP
C0C0
C0C0
C0C0
C0C0
3300
3300
3300
3300
0C00
0C00
0000
0000
0C00
0C00
ENDCHAR
STARTCHAR LATIN
ENCODING 7808
SWIDTH 543 0
DWIDTH 12 0
BBX 10 18 0 0
BITMAP
3000
3000
0C00
0C00
C0C0
C0C0
C0C0
C0C0
C0C0
C0C0
CCC0
CCC0
CCC0
CCC0
3300
3300
3300
3300
ENDCHAR
STARTCHAR LATIN
ENCODING 7809
SWIDTH 543 0
DWIDTH 12 0
BBX 10 16 0 0
BITMAP
3000
3000
0C00
0C00
0000
0000
C0C0
C0C0
CCC0
CCC0
CCC0
CCC0
CCC0
CCC0
3300
3300
ENDCHAR
STARTCHAR LATIN
ENCODING 7810
SWIDTH 543 0
DWIDTH 12 0
BBX 10 18 0 0
BITMAP
0300
0300
0C00
0C00
C0C0
C0C0
C0C0
C0C0
C0C0
C0C0
CCC0
CCC0
CCC0
CCC0
3300
3300
3300
3300
ENDCHAR
STARTCHAR LATIN
ENCODING 7811
SWIDTH 543 0
DWIDTH 12 0
BBX 10 16 0 0
BITMAP
0300
0300
0C00
0C00
0000
0000
C0C0
C0C0
CCC0
CCC0
CCC0
CCC0
CCC0
CCC0
3300
3300
ENDCHAR
STARTCHAR LATIN
ENCODING 7812
SWIDTH 543 0
DWIDTH 12 0
BBX 10 18 0 0
BITMAP
3300
3300
0000
0000
C0C0
C0C0
C0C0
C0C0
C0C0
C0C0
CCC0
CCC0
CCC0
CCC0
3300
3300
3300
3300
ENDCHAR
STARTCHAR LATIN
ENCODING 7813
SWIDTH 543 0
DWIDTH 12 0
BBX 10 14 0 0
BITMAP
3300
3300
0000
0000
C0C0
C0C0
CCC0
CCC0
CCC0
CCC0
CCC0
CCC0
3300
3300
ENDCHAR
STARTCHAR LATIN
ENCODING 7814
SWIDTH 543 0
DWIDTH 12 0
BBX 10 18 0 0
BITMAP
0C00
0C00
0000
0000
C0C0
C0C0
C0C0
C0C0
C0C0
C0C0
CCC0
CCC0
CCC0
CCC0
3300
3300
3300
3300
ENDCHAR
STARTCHAR LATIN
ENCODING 7815
SWIDTH 543 0
DWIDTH 12 0
BBX 10 14 0 0
BITMAP
0C00
0C00
0000
0000
C0C0
C0C0
CCC0
CCC0
CCC0
CCC0
CCC0
CCC0
3300
3300
ENDCHAR
STARTCHAR LATIN
ENCODING 7816
SWIDTH 543 0
DWIDTH 12 0
BBX 10 18 0 -4
BITMAP
C0C0
C0C0
C0C0
C0C0
C0C0
C0C0
CCC0
CCC0
CCC0
CCC0
3300
3300
3300
3300
0000
0000
0C00
0C00
ENDCHAR
STARTCHAR LATIN
ENCODING 7817
SWIDTH 543 0
DWIDTH 12 0
BBX 10 14 0 -4
BITMAP
C0C0
C0C0
CCC0
CCC0
CCC0
CCC0
CCC0
CCC0
3300
3300
0000
0000
0C00
0C00
ENDCHAR
STARTCHAR LATIN
ENCODING 7818
SWIDTH 543 0
DWIDTH 12 0
BBX 10 18 0 0
BITMAP
0C00
0C00
0000
0000
C0C0
C0C0
C0C0
C0C0
3300
3300
0C00
0C00
3300
3300
C0C0
C0C0
C0C0
C0C0
ENDCHAR
STARTCHAR LATIN
ENCODING 7819
SWIDTH 543 0
DWIDTH 12 0
BBX 10 14 0 0
BITMAP
0C00
0C00
0000
0000
C0C0
C0C0
3300
3300
0C00
0C00
3300
3300
C0C0
C0C0
ENDCHAR
STARTCHAR LATIN
ENCODING 7820
SWIDTH 543 0
DWIDTH 12 0
BBX 10 18 0 0
BITMAP
3300
3300
0000
0000
C0C0
C0C0
C0C0
C0C0
3300
3300
0C00
0C00
3300
3300
C0C0
C0C0
C0C0
C0C0
ENDCHAR
STARTCHAR LATIN
ENCODING 7821
SWIDTH 543 0
DWIDTH 12 0
BBX 10 14 0 0
BITMAP
3300
3300
0000
0000
C0C0
C0C0
3300
3300
0C00
0C00
3300
3300
C0C0
C0C0
ENDCHAR
STARTCHAR LATIN
ENCODING 7822
SWIDTH 543 0
DWIDTH 12 0
BBX 10 18 0 0
BITMAP
0C00
0C00
0000
0000
C0C0
C0C0
C0C0
C0C0
C0C0
C0C0
3300
3300
0C00
0C00
0C00
0C00
0C00
0C00
ENDCHAR
STARTCHAR LATIN
ENCODING 7823
SWIDTH 543 0
DWIDTH 12 0
BBX 10 18 0 -4
BITMAP
0C00
0C00
0000
0000
C0C0
C0C0
C0C0
C0C0
C0C0
C0C0
C0C0
C0C0
3FC0
3FC0
00C0
00C0
3F00
3F00
ENDCHAR
STARTCHAR LATIN
ENCODING 7824
SWIDTH 543 0
DWIDTH 12 0
BBX 10 18 0 0
BITMAP
0C00
0C00
3300
3300
FFC0
FFC0
00C0
00C0
0300
0300
0C00
0C00
3000
3000
C000
C000
FFC0
FFC0
ENDCHAR
STARTCHAR LATIN
ENCODING 7825
SWIDTH 543 0
DWIDTH 12 0
BBX 10 16 0 0
BITMAP
0C00
0C00
3300
3300
0000
0000
FFC0
FFC0
0300
0300
0C00
0C00
3000
3000
FFC0
FFC0
ENDCHAR
STARTCHAR LATIN
ENCODING 7826
SWIDTH 543 0
DWIDTH 12 0
BBX 10 18 0 -4
BITMAP
FFC0
FFC0
00C0
00C0
0300
0300
0C00
0C00
3000
3000
C000
C000
FFC0
FFC0
0000
0000
0C00
0C00
ENDCHAR
STARTCHAR LATIN
ENCODING 7827
SWIDTH 543 0
DWIDTH 12 0
BBX 10 14 0 -4
BITMAP
FFC0
FFC0
0300
0300
0C00
0C00
3000
3000
FFC0
FFC0
0000
0000
0C00
0C00
ENDCHAR
STARTCHAR LATIN
ENCODING 7828
SWIDTH 543 0
DWIDTH 12 0
BBX 10 18 0 -4
BITMAP
FFC0
FFC0
00C0
00C0
0300
0300
0C00
0C00
3000
3000
C000
C000
FFC0
FFC0
0000
0000
3F00
3F00
ENDCHAR
STARTCHAR LATIN
ENCODING 7829
SWIDTH 543 0
DWIDTH 12 0
BBX 10 14 0 -4
BITMAP
FFC0
FFC0
0300
0300
0C00
0C00
3000
3000
FFC0
FFC0
0000
0000
3F00
3F00
ENDCHAR
STARTCHAR LATIN
ENCODING 7830
SWIDTH 543 0
DWIDTH 12 0
BBX 10 18 0 -4
BITMAP
C000
C000
C000
C000
FF00
FF00
C0C0
C0C0
C0C0
C0C0
C0C0
C0C0
C0C0
C0C0
0000
0000
3F00
3F00
ENDCHAR
STARTCHAR LATIN
ENCODING 7831
SWIDTH 543 0
DWIDTH 12 0
BBX 8 18 2 0
BITMAP
CC
CC
00
00
30
30
30
30
FF
FF
30
30
30
30
30
30
0F
0F
ENDCHAR
STARTCHAR LATIN
ENCODING 7832
SWIDTH 543 0
DWIDTH 12 0
BBX 10 16 0 0
BITMAP
0C00
0C00
3300
3300
0C00
0C00
C0C0
C0C0
CCC0
CCC0
CCC0
CCC0
CCC0
CCC0
3300
3300
ENDCHAR
STARTCHAR LATIN
ENCODING 7833
SWIDTH 543 0
DWIDTH 12 0
BBX 10 20 0 -4
BITMAP
0C00
0C00
3300
3300
0C00
0C00
C0C0
C0C0
C0C0
C0C0
C0C0
C0C0
C0C0
C0C0
3FC0
3FC0
00C0
00C0
3F00
3F00
ENDCHAR
STARTCHAR LATIN
ENCODING 7834
SWIDTH 543 0
DWIDTH 12 0
BBX 10 18 0 0
BITMAP
0C00
0C00
0300
0300
0C00
0C00
0000
0000
3FC0
3FC0
C0C0
C0C0
C0C0
C0C0
C3C0
C3C0
3CC0
3CC0
ENDCHAR
STARTCHAR LATIN
ENCODING 7835
SWIDTH 543 0
DWIDTH 12 0
BBX 8 18 2 0
BITMAP
0C
0C
00
00
0F
0F
30
30
F0
F0
30
30
30
30
30
30
30
30
ENDCHAR
STARTCHAR LATIN
ENCODING 7836
SWIDTH 543 0
DWIDTH 12 0
BBX 8 14 2 0
BITMAP
0F
0F
30
30
F0
F0
3C
3C
F0
F0
30
30
30
30
ENDCHAR
STARTCHAR LATIN
ENCODING 7837
SWIDTH 543 0
DWIDTH 12 0
BBX 8 14 2 0
BITMAP
0F
0F
FC
FC
30
30
F0
F0
30
30
30
30
30
30
ENDCHAR
STARTCHAR LATIN
ENCODING 7838
SWIDTH 543 0
DWIDTH 12 0
BBX 10 18 0 -2
BITMAP
0F00
0F00
30C0
30C0
C0C0
C0C0
C300
C300
C300
C300
C0C0
C0C0
C0C0
C0C0
CF00
CF00
C000
C000
ENDCHAR
STARTCHAR LATIN
ENCODING 7839
SWIDTH 543 0
DWIDTH 12 0
BBX 10 16 0 0
BITMAP
3F00
3F00
C0C0
C0C0
C000
C000
3F00
3F00
C0C0
C0C0
C0C0
C0C0
C0C0
C0C0
3F00
3F00
ENDCHAR
STARTCHAR LATIN
ENCODING 7840
SWIDTH 543 0
DWIDTH 12 0
BBX 10 16 0 -2
BITMAP
3F00
3F00
C0C0
C0C0
C0C0
C0C0
FFC0
FFC0
C0C0
C0C0
C0C0
C0C0
C0C0
C0C0
0C00
0C00
ENDCHAR
STARTCHAR LATIN
ENCODING 7841
SWIDTH 543 0
DWIDTH 12 0
BBX 10 14 0 -4
BITMAP
3FC0
3FC0
C0C0
C0C0
C0C0
C0C0
C3C0
C3C0
3CC0
3CC0
0000
0000
0C00
0C00
ENDCHAR
STARTCHAR LATIN
ENCODING 7842
SWIDTH 543 0
DWIDTH 12 0
BBX 10 18 0 0
BITMAP
3000
3000
0C00
0C00
3F00
3F00
C0C0
C0C0
C0C0
C0C0
FFC0
FFC0
C0C0
C0C0
C0C0
C0C0
C0C0
C0C0
ENDCHAR
STARTCHAR LATIN
ENCODING 7843
SWIDTH 543 0
DWIDTH 12 0
BBX 10 16 0 0
BITMAP
0C00
0C00
0300
0300
0C00
0C00
3FC0
3FC0
C0C0
C0C0
C0C0
C0C0
C3C0
C3C0
3CC0
3CC0
ENDCHAR
STARTCHAR LATIN
ENCODING 7844
SWIDTH 543 0
DWIDTH 12 0
BBX 10 18 0 0
BITMAP
3CC0
3CC0
CF00
CF00
3F00
3F00
C0C0
C0C0
C0C0
C0C0
FFC0
FFC0
C0C0
C0C0
C0C0
C0C0
C0C0
C0C0
ENDCHAR
STARTCHAR LATIN
ENCODING 7845
SWIDTH 543 0
DWIDTH 12 0
BBX 10 16 0 0
BITMAP
3CC0
3CC0
CF00
CF00
0000
0000
3FC0
3FC0
C0C0
C0C0
C0C0
C0C0
C3C0
C3C0
3CC0
3CC0
ENDCHAR
STARTCHAR LATIN
ENCODING 7846
SWIDTH 543 0
DWIDTH 12 0
BBX 10 18 0 0
BITMAP
CF00
CF00
3CC0
3CC0
3F00
3F00
C0C0
C0C0
C0C0
C0C0
FFC0
FFC0
C0C0
C0C0
C0C0
C0C0
C0C0
C0C0
ENDCHAR
STARTCHAR LATIN
ENCODING 7847
SWIDTH 543 0
DWIDTH 12 0
BBX 10 16 0 0
BITMAP
CF00
CF00
3CC0
3CC0
0000
0000
3FC0
3FC0
C0C0
C0C0
C0C0
C0C0
C3C0
C3C0
3CC0
3CC0
ENDCHAR
STARTCHAR LATIN
ENCODING 7848
SWIDTH 543 0
DWIDTH 12 0
BBX 12 18 0 0
BITMAP
30C0
30C0
CC30
CC30
3FC0
3FC0
C0C0
C0C0
C0C0
C0C0
FFC0
FFC0
C0C0
C0C0
C0C0
C0C0
C0C0
C0C0
ENDCHAR
STARTCHAR LATIN
ENCODING 7849
SWIDTH 543 0
DWIDTH 12 0
BBX 12 16 0 0
BITMAP
30C0
30C0
CC30
CC30
00C0
00C0
3FC0
3FC0
C0C0
C0C0
C0C0
C0C0
C3C0
C3C0
3CC0
3CC0
ENDCHAR
STARTCHAR LATIN
ENCODING 7851
SWIDTH 543 0
DWIDTH 12 0
BBX 10 18 0 0
BITMAP
3CC0
3CC0
CF00
CF00
0C00
0C00
3300
3300
3FC0
3FC0
C0C0
C0C0
C0C0
C0C0
C3C0
C3C0
3CC0
3CC0
ENDCHAR
ENDFONT
